<?xml version="1.0" encoding="utf-8"?>
<!-- Generator: Adobe Illustrator 23.0.5, SVG Export Plug-In . SVG Version: 6.00 Build 0)  -->
<svg version="1.1" id="Capa_1" xmlns="http://www.w3.org/2000/svg" xmlns:xlink="http://www.w3.org/1999/xlink" x="0px" y="0px"
	 viewBox="0 0 1920 707.4" style="enable-background:new 0 0 1920 707.4;" xml:space="preserve">
<style type="text/css">
	.st0{fill:#606060;}
	.st1{fill:#C6B0A4;stroke:#998276;stroke-width:3;stroke-miterlimit:10;}
	.st2{fill:#52A346;stroke:#3C7233;stroke-width:3;stroke-miterlimit:10;}
	.st3{fill:#77BC9C;stroke:#577759;stroke-width:4;stroke-linejoin:round;stroke-miterlimit:10;}
	.st4{fill:#A4C5E2;}
	.st5{fill:#898989;stroke:#565656;stroke-width:3;stroke-miterlimit:10;}
	.st6{fill:#EAD0AC;stroke:#A8957E;stroke-width:2;stroke-linejoin:round;stroke-miterlimit:10;}
	.st7{fill:none;stroke:#FFFFFF;stroke-width:2.5549;stroke-miterlimit:10;}
	.st8{fill:none;stroke:#FFFFFF;stroke-width:1.9162;stroke-miterlimit:10;}
	.st9{fill:none;stroke:#FFFFFF;stroke-width:0.9785;stroke-miterlimit:10;}
	.st10{fill:none;}
	.st11{fill:#FFFFFF;}
	.st12{font-family:'Montserrat-Bold';}
	.st13{font-size:36px;}
	.st14{letter-spacing:1;}
	.st15{font-size:18px;}
	.st16{fill:#77BC9C;stroke:#577759;stroke-width:4;stroke-linecap:round;stroke-linejoin:round;stroke-miterlimit:10;}
	.st17{font-size:23.3431px;}
	.st18{font-size:25px;}
	.st19{fill:#BD5614;}
	.st20{opacity:0.1;fill:#EDEDED;}
	.st21{fill-rule:evenodd;clip-rule:evenodd;fill:#FAFAFA;}
	.st22{fill:#FAFAFA;}
	.st23{fill:#1A5FA9;}
	.st24{fill:#E0AD1E;}
	.st25{fill:none;stroke:#000000;stroke-width:5;stroke-linejoin:round;stroke-miterlimit:10;}
	
		.st26{fill:none;stroke:#FFFFFF;stroke-width:8;stroke-linecap:round;stroke-linejoin:round;stroke-miterlimit:10;stroke-dasharray:40;}
</style>
<rect id="Asfalto" x="9.5" y="21.5" class="st0" width="1895.8" height="648.4"/>
<polygon id="Suelo" class="st1" points="1275.2,592.3 684.9,592.3 684.9,499.7 420.4,499.7 420.4,585.7 104.8,585.7 104.8,484.8 
	291.7,484.8 291.7,471.8 257.7,471.8 257.7,448.3 196.7,407 223,329.1 233.5,329.1 369.9,329.5 369.9,435.4 367.3,433.7 
	367.3,442.9 381.4,455.1 424.1,455.1 424.1,433 525.6,433 525.6,457.5 584.8,457.5 584.8,442.9 651.2,442 651.2,454 752.3,454 
	752.3,464 747.2,464 747.2,493.1 761,493.1 761,475.6 850.7,475.6 850.7,526.8 821.8,526.8 821.8,540.6 871,540.6 871,526.8 
	862.3,526.8 862.3,464 850.7,464 850.7,353.7 931.6,353.7 931.6,524.7 911.9,524.7 911.9,546.6 1293.1,546.6 1395,600.3 
	1533.3,600.3 1544.8,610.7 1585.2,610.7 1585.2,84.8 9.5,84.8 9.5,610.7 1302.4,610.7 "/>
<polygon id="Estacionamiento" class="st0" points="1655.4,509.4 1655.4,84.8 1585.2,84.8 1585.2,506.6 1578.5,506.3 1570.1,552.7 
	1583.1,595.9 1656.8,519.6 "/>
<path id="Cesped" class="st2" d="M1564,269.9l-174.4,3.3l-73.5,11.2l-7.1-85l-46.5-10h-191.2l-46.2,6.3v11.1l-23.5,13.8L984.9,168
	l-210.6,5.1V84.8h-53.9v27.8L689,179.4l-273.4,0.1l-2-24.6l-195.6,1.9l-1,44.9l-44.4,2.6v53.4c46.5-1.8,62.8,18.8,62.8,18.8v41.4
	l134.6,2v118l16.1,14.8l29-3.1v-18h116.3v16.5l41,0.8l63.8-113.4l302.6,2l2.3,203.1l355.8-4.4l104.5,54.4h183.8V272.7v-2.8H1564z
	 M1048.2,257h-19.5l2.7-42.2h-3.9v-14.1h20.7V257z M1400.3,444h-11v-30.1h11V444z"/>
<g id="Detallitos">
	<rect x="60.6" y="49.7" class="st3" width="31.7" height="15"/>
	<rect x="74.2" y="427.2" class="st4" width="24.2" height="49.7"/>
</g>
<path id="Caminos" class="st5" d="M1479,263V410l15.8,44.4v34.7h-31.7V263H1479z M1689.6,478v35l-53.1,36.8v61h-91.7l-11.5-10.5
	H1395l-101.9-53.6H911.9v-22h19.7v-171H753.1V445h-42.6v-17.6h16.1v-83.7H642V358h-23v-28.1h-72.5v88.9h-11.7v-89.6H233.5V228.5
	l-33.7,33.7l-5.7-5.7l38.7-38.7v-10.5H58.4v-11h34v-22h-7.9V110h-14V84.8h8.4V94l2.6,2.6h153.2v63.6H222v37h24.5v116.4h242v-51.1
	h-13v-29.6h38.6v29.4h-11v51.6h51.1V186.1H418.4v12.8h-16.1v-42.1h15.8v16.1h147.8v-16.1h153.7v15.8H747v18.6H775l10.5-15.6h10.7
	l-12,18.4v12l12.8,12.3h-12.8l-8.9-11.2H747v119.2h139.9V200.7l-42.4,0.3l-1.3-13.5h107.5v12.8h-39.1v74.3h0.8h135.8v-73.8h-20.7
	v12.5h-28.3v-11.5h18.1v-13h-18.9v-10h31.1v10.7h41.6v85h154c-10.8-8.9-1.1-29.9-1.1-29.9s0.3-28.9,0-34.2s1-16.6,8.7-18.9
	c7.7-2.3,7.7-11.7,7.7-11.7v-12.3h7.7v38.8c1.5,5.9,8.4,6.6,8.4,6.6h24.3c14.8-8.7,24.3,2.6,24.3,2.6v-14.6h15.8v73.8h43.9v-7.1
	h40.6v6.4h-9.2v17.9h-7.4v60.5h14.6v9.7h-5.4h-9.2v43.7h14.6v8.2h-14V444h24v42.1h-14.6v-6.4h-138.9v6.9l32.2,33.2V530h8.2
	l101.1,56.2h143.5V445.3l14.6,1.5v139.9h18.9l77.1-77.1V478H1689.6z M219.2,107.7h-7.1h-2.6h-52.9v67.7h-7.4v21.4h7.4h2.3h53.1
	v-44.6h7.1V107.7z M729.9,187.2H572.2v126h72.5v14.3h85.1v-14.3v-5.8V187.2z M1249.4,292.1v60.3h10.8l-1.4,9.7h-9.4v42.4l10.5,53.6
	v9.2h114.6v-9.4h-10.5v-46.7h10.5v-5.4V362h-10.5v-9.7h10.5v-60.3H1249.4z M1305.2,274.2v-29.3c-18.5,1.2-27.5,11.1-27.4,29.3
	H1305.2z M1284.6,221.5c0,2.4,2.7,4.3,6.1,4.3s6.1-1.9,6.1-4.3s-2.7-4.3-6.1-4.3S1284.6,219.1,1284.6,221.5z M1249.4,229.3
	c7.6,6.2,17.6,11.3,29.5,15.7c5.5-5.9,13.9-9,26.2-8.5v-5.6l-6.1,0.5c-6.4,3.1-12.2,2.2-17.7-1c-3.3-4.4-6.6-8.5-10.2-8.8h-17
	C1250.2,222.4,1248.8,225.2,1249.4,229.3z M1239.8,243.4c10.9,2.9,20.8,19.6,9.6,30.8h18.8c0.1-9.5,1.3-16.7,4.8-19.7
	c-12.4-6.4-26.3-14.5-30.6-19.9C1237.7,233.6,1234.8,237,1239.8,243.4z M1230.8,210.3c0,4.8,2,8.8,4.5,8.8s4.5-3.9,4.5-8.8
	s-2-8.8-4.5-8.8S1230.8,205.5,1230.8,210.3z M1227.2,259.3c0,4.2,3.4,7.6,7.6,7.6s7.6-3.4,7.6-7.6c0-4.2-3.4-7.6-7.6-7.6
	S1227.2,255.1,1227.2,259.3z M1073.3,405.4h27V398h23.1v7.5h89.5l20.7-20.9v-92.4h-160.3V405.4z M1020,528.8l30.3-52.3v-14.8h-16.1
	v-22.7h15.1V292.1H911.6v34h35.7v202.7H1020z M1132.7,479.7h-71l-29.7,49h55.2l27.3-26h18.1V479.7z M1280.3,521.2l-39.8-39.8
	l-68.1-1v21.4h15.7l26.6,26.6h65.7V521.2z M862.3,526.8V464H747.2v29.1H761v-17.5h89.7v51.2h-28.9v13.8H871v-13.8H862.3z
	 M547.4,442.9v-15.7H528h-2.4H401v5.8h2.7v16.2h-18.6v-6.3v-9.2h-17.9v9.2l14.1,12.3h3.7h18.6h1.7h18.7V433h101.4v9.9v12.3v2.4h59.2
	v-14.6H547.4z M291.7,471.8v12.9H73.9L35,535.5H9.5v-7.1h21.8l30-43.6v-2h-8.2v-10.9H9.5v-47h43.6v4.1h24.5v24.2h17.7v-15.7h144.3
	l18,10.9v23.5H291.7z M77.6,459.2v12.6h17.7v-12.6H77.6z M1689.6,353.7v-17.4h-16.4V192h-16.3v249.5h16.3h9.9v-10.9l-9.9-13.3v-44.6
	L1689.6,353.7z M1541.8,641.9l-6.1,9.2h-167l-93.4-58.7H680.8v18.4h582l19.6,59.2h279.8l12.3-12.3v-15.8H1541.8z"/>
<g id="TorreCreo">
	<rect x="96.7" y="102" class="st6" width="47.6" height="47.6"/>
	<g id="Torre_creo">
		<polygon class="st7" points="102.5,107 120.8,112.3 139,107 133.7,125.2 139,143.5 120.8,138.1 102.5,143.5 107.9,125.2 		"/>
		<rect x="111.7" y="116.1" class="st8" width="18.2" height="18.2"/>
		<rect x="102.5" y="107" class="st8" width="36.5" height="36.5"/>
		<circle class="st9" cx="120.8" cy="125.2" r="3.3"/>
	</g>
</g>
<g id="Edificios">
	<g id="PC">
		<rect id="Zona_PC" x="1062" y="401.4" class="st10" width="168.5" height="81.4"/>
		<text transform="matrix(1 0 0 1 1124.2343 451.9148)" class="st11 st12 st13 st14">PC</text>
	</g>
	<g id="EM">
		<rect id="Zona_EM" x="476.6" y="233.9" class="st10" width="37.1" height="27.6"/>
		<text transform="matrix(1 0 0 1 480.0439 252.8793)" class="st11 st12 st15">EM</text>
	</g>
	<g id="Z">
		<path id="Edif_Z" class="st16" d="M205.9,409.9v-0.3h17v-112h-30.3c-7.7-10.9-19.3-16-35.1-15v8.5h6.5v6.5H85.5l-23.2-21.1v8.5
			l-12.6,12.6H23.8v112h29.3v19.7h43.2v6.1h109.6h33L205.9,409.9z"/>
		<g>
			<path class="st11" d="M57,363.9c0.2-3,1.1-6.4,3-9.6c0.7-1.2,1.8-2.3,2.8-3.4c7.2-8,14.4-16.1,21.6-24.1c1.5-1.7,3.1-3.4,4.6-5.1
				c0.9-1,1.9-1.3,3.1-1c11.3,2.5,22.7,5.1,34,7.6c2.4,0.5,3.2,3,1.6,4.8c-9.6,11-19.1,22.1-28.7,33.1c-0.1,0.2-0.3,0.3-0.4,0.5
				c-0.9,1-2,1.3-3.3,1c-9.3-2.7-18.6-5.4-27.9-8c-2.9-0.8-4.3,0.6-4.7,2.8c-0.4,1.9-0.3,3.8,0.4,5.6c0.7,1.8,1.9,3.1,3.9,3.6
				c10,2.9,20,5.9,30.1,8.9c0.3,0.1,0.5,0.1,0.8-0.2c8.1-9.7,16.2-19.5,24.3-29.2c0.3-0.3,0.3-0.6,0.2-1c-0.6-2.5-0.3-5,0.7-7.3
				c0.6-1.4,2.2-2,3.5-1.5c1.4,0.6,2.1,2.1,1.5,3.6c-0.6,1.5-0.7,3-0.3,4.6c0.1,0.2,0.1,0.5,0.2,0.7c0.5,1.1,0.3,2.1-0.5,3
				c-2.7,3.2-5.3,6.4-7.9,9.6c-6.3,7.5-12.5,15.1-18.8,22.6c-1,1.2-1.9,1.5-3.4,1c-10.8-3.2-21.6-6.4-32.4-9.6
				c-1.5-0.4-2.6-1.4-3.7-2.4C58.4,371.8,57,368.5,57,363.9z M107.7,342c1.2,0,2-0.1,2.6-0.8c0.9-0.9,1.7-1.9,2.5-2.9
				c0.3-0.4,0.2-0.9-0.2-1.2c-0.3-0.2-0.6-0.3-0.9-0.4c-1.7-0.4-3.3-0.8-5-1.2c-5.1-1.2-10.2-2.5-15.4-3.7c-1.1-0.3-2.3-0.2-3.1,0.7
				c-0.8,0.8-1.5,1.8-2.3,2.7c-0.4,0.5-0.3,1.1,0.3,1.4c0.3,0.2,0.6,0.3,1,0.4c6.1,1.5,12.1,3,18.2,4.5
				C106.1,341.7,107.1,341.9,107.7,342z"/>
			<text transform="matrix(1 0 0 1 151.9862 364.1636)" class="st11 st12 st13 st14">Z</text>
		</g>
	</g>
	<rect id="ConexEdifJ" x="946.4" y="174.6" class="st16" width="58.2" height="49.7"/>
	<g id="J1">
		<rect id="Edif_J1" x="927" y="214.8" class="st16" width="104.5" height="51.4"/>
		<text transform="matrix(1 0 0 1 961.951 250.9503)" class="st11 st12 st13 st14">J1</text>
	</g>
	<g id="J2">
		<rect id="Edif_J2" x="927" y="127" class="st16" width="104.5" height="52.4"/>
		<text transform="matrix(1 0 0 1 958.3866 163.6312)" class="st11 st12 st13 st14">J2</text>
	</g>
	<rect id="ConexEdifK" x="794.5" y="174.6" class="st16" width="56.9" height="43.9"/>
	<g id="K1">
		<rect id="Edif_K1" x="767" y="214.8" class="st16" width="105.2" height="51.4"/>
		<text transform="matrix(1 0 0 1 797.3774 251.0224)" class="st11 st12 st13 st14">K1</text>
	</g>
	<g id="K2">
		<rect id="Edif_K2" x="767" y="127" class="st16" width="105.2" height="52.4"/>
		<text transform="matrix(1 0 0 1 793.8132 163.7032)" class="st11 st12 st13 st14">K2</text>
	</g>
	<g id="G">
		<path id="Edif_G" class="st16" d="M927,182.5c-18.3,17.7-36.5,17.7-54.8,0v-73.2H927V182.5z"/>
		<text transform="matrix(1 0 0 1 884.7753 163.0224)" class="st11 st12 st13 st14">G</text>
	</g>
	<g id="W">
		<rect id="Edif_W" x="83" y="206.3" class="st16" width="81" height="37.1"/>
		<text transform="matrix(1 0 0 1 101.7192 235.3628)" class="st11 st12 st13 st14">W</text>
	</g>
	<rect id="ConexEdifV" x="293.1" y="154.9" class="st16" width="74.6" height="51.4"/>
	<g id="V1">
		<polygon id="Edif_V1" class="st16" points="421.1,197.4 231.8,197.4 231.8,231.8 231.8,242.7 231.8,249.9 305.7,249.9 
			312.8,242.7 421.1,242.7 		"/>
		<text transform="matrix(1 0 0 1 304.3248 228.5543)" class="st11 st12 st13 st14">V1</text>
	</g>
	<g id="v2">
		<polygon id="Edif_V2" class="st16" points="326.4,109.3 326.4,87.1 231.8,87.1 231.8,109.3 231.8,114.7 231.8,161.4 421.1,161.4 
			421.1,109.3 		"/>
		<text transform="matrix(1 0 0 1 300.7608 142.6573)" class="st11 st12 st13 st14">V2</text>
	</g>
	<g id="R">
		<rect id="Edif_R" x="415" y="329.5" class="st16" width="109.6" height="85.4"/>
		<text transform="matrix(1 0 0 1 455.6363 382.767)" class="st11 st12 st13 st14">R</text>
	</g>
	<g id="M">
		<rect id="Edif_M" x="560.7" y="111.3" class="st16" width="163.4" height="51.4"/>
		<text transform="matrix(1 0 0 1 624.2719 147.533)" class="st11 st12 st13 st14">M</text>
	</g>
	<g id="Q">
		<rect id="Edif_Q" x="609.7" y="248.2" class="st16" width="123.2" height="65.7"/>
		<text transform="matrix(1 0 0 1 655.2061 291.533)" class="st11 st12 st13 st14">Q</text>
	</g>
	<g id="P">
		<rect id="Edif_P" x="563" y="353.7" class="st16" width="146" height="87.8"/>
		<text transform="matrix(1 0 0 1 621.9879 408.1394)" class="st11 st12 st13 st14">P</text>
	</g>
	<g id="TV">
		<rect id="Edif_TV" x="709.1" y="351.3" class="st16" width="26.2" height="75.2"/>
		<text transform="matrix(6.123234e-17 -1 1 6.123234e-17 730.0078 404.0222)" class="st11 st12 st17 st14">TV</text>
	</g>
	<g id="S">
		<rect id="Edif_S" x="420.4" y="499.7" class="st16" width="99.1" height="64.3"/>
		<text transform="matrix(1 0 0 1 457.5524 542.4268)" class="st11 st12 st13 st14">S</text>
	</g>
	<g id="T">
		<rect id="Edif_T" x="577.7" y="499.7" class="st16" width="107.2" height="64.3"/>
		<text transform="matrix(1 0 0 1 619.2739 542.4266)" class="st11 st12 st13 st14">T</text>
	</g>
	<g id="O2">
		<rect id="Edif_O2" x="752.3" y="408.2" class="st16" width="98.4" height="55.8"/>
		<text transform="matrix(1 0 0 1 773.8986 446.5968)" class="st11 st12 st13 st14">O2</text>
	</g>
	<g id="O1">
		<rect id="Edif_O1" x="801" y="353.7" class="st16" width="49.7" height="54.4"/>
		<text transform="matrix(1 0 0 1 808.8762 388.2464)" class="st11 st12 st18 st14">O1</text>
	</g>
	<g id="O3">
		<rect id="Edif_O3" x="752.3" y="353.7" class="st16" width="48.7" height="54.4"/>
		<text transform="matrix(1 0 0 1 757.1849 388.2464)" class="st11 st12 st18 st14">O3</text>
	</g>
	<g id="B">
		<polygon id="Edif_B" class="st16" points="1051.6,348.9 946,348.9 946,437.1 946,442.6 946,506.2 1040.7,506.2 1040.7,442.6 
			1051.6,442.6 		"/>
		<text transform="matrix(1 0 0 1 988.5997 434.8743)" class="st11 st12 st18 st14">B</text>
	</g>
	<rect id="ConexEdifA" x="1125.8" y="260.1" class="st16" width="50.7" height="50.7"/>
	<g id="A1">
		<rect id="Edif_A1" x="1088" y="304" class="st16" width="126" height="86.5"/>
		<text transform="matrix(1 0 0 1 1135.3451 354.5338)" class="st11 st12 st18 st14">A1</text>
	</g>
	<g id="A2">
		<rect id="Edif_A2" x="1088" y="182.5" class="st16" width="126" height="83.7"/>
		<text transform="matrix(1 0 0 1 1132.87 231.6402)" class="st11 st12 st18 st14">A2</text>
	</g>
	<g id="L">
		<rect id="Edif_L" x="1254.8" y="312.2" class="st16" width="112.7" height="52.1"/>
		<text transform="matrix(1 0 0 1 1302.9529 345.5126)" class="st11 st12 st18 st14">L</text>
	</g>
	<g id="I">
		<polygon id="Edif_I" class="st16" points="1276.9,401.4 1276.9,377.5 1248.3,377.5 1248.3,405.1 1237.4,405.1 1237.4,457.2 
			1367.5,457.2 1367.5,412.3 1367.5,405.1 1367.5,401.4 		"/>
		<text transform="matrix(1 0 0 1 1297.7222 434.6615)" class="st11 st12 st18 st14">I</text>
	</g>
	<g id="H">
		<polygon id="Edif_H" class="st16" points="1254.8,160 1254.8,204.9 1318.4,204.9 1318.4,224.3 1334.4,224.3 1334.4,204.9 
			1334.4,202.2 1334.4,160 		"/>
		<text transform="matrix(1 0 0 1 1283.8918 188.47)" class="st11 st12 st18 st14">H</text>
	</g>
	<g id="C">
		<rect id="Edif_C" x="1396.4" y="482.7" class="st16" width="168.9" height="53.4"/>
		<text transform="matrix(1 0 0 1 1471.0427 516.7466)" class="st11 st12 st18 st14">C</text>
	</g>
	<g id="D">
		<rect id="Edif_D" x="1396.4" y="401.4" class="st16" width="168.9" height="53.4"/>
		<text transform="matrix(1 0 0 1 1469.8801 435.3849)" class="st11 st12 st18 st14">D</text>
	</g>
	<g id="E">
		<rect id="Edif_E" x="1396.4" y="310.8" class="st16" width="168.9" height="53.4"/>
		<text transform="matrix(1 0 0 1 1471.8176 344.8317)" class="st11 st12 st18 st14">E</text>
	</g>
	<g id="F">
		<rect id="Edif_F" x="1396.4" y="222.6" class="st16" width="168.9" height="53.4"/>
		<text transform="matrix(1 0 0 1 1472.2175 256.6615)" class="st11 st12 st18 st14">F</text>
	</g>
</g>
<g id="Baños">
	<g id="IconBaño">
		<path id="XMLID_2_" class="st19" d="M1568.2,448.1h-22.7c-0.5,0-0.9-0.4-0.9-0.9v-22.7c0-0.5,0.4-0.9,0.9-0.9h22.7
			c0.5,0,0.9,0.4,0.9,0.9v22.7C1569.1,447.7,1568.7,448.1,1568.2,448.1z"/>
		<path id="XMLID_6_" class="st20" d="M1568.2,423.6c-6.5,0-12.4,2.6-16.7,6.9c-4.3,4.3-6.9,10.2-6.9,16.7v-22.7
			c0-0.5,0.4-0.9,0.9-0.9H1568.2z"/>
		<g id="XMLID_3452_">
			<g id="XMLID_3454_">
				<g id="XMLID_3463_">
					<path id="XMLID_3472_" class="st21" d="M1562.2,429c0.9,0,1.6-0.7,1.6-1.6c0-0.9-0.7-1.6-1.6-1.6s-1.6,0.7-1.6,1.6
						C1560.6,428.2,1561.3,429,1562.2,429z"/>
					<g id="XMLID_3469_">
						<path id="XMLID_3471_" class="st22" d="M1562,444.8c0,0.6-0.4,1.1-0.9,1.1c-0.5,0-0.9-0.5-0.9-1.1v-9.1c0-0.6,0.4-1.1,0.9-1.1
							c0.5,0,0.9,0.5,0.9,1.1V444.8z"/>
						<path id="XMLID_3470_" class="st22" d="M1564.2,444.8c0,0.6-0.4,1.1-0.9,1.1c-0.5,0-0.9-0.5-0.9-1.1v-9.1
							c0-0.6,0.4-1.1,0.9-1.1c0.5,0,0.9,0.5,0.9,1.1V444.8z"/>
					</g>
					<polygon id="XMLID_3468_" class="st21" points="1559.5,438.7 1564.9,438.7 1563.6,430.3 1560.9,430.3 					"/>
					<path id="XMLID_3467_" class="st21" d="M1560.2,429.5h3.9c0.7,0,1.2,0.6,1.2,1.2v1.1h-6.4v-1.1
						C1559,430,1559.6,429.5,1560.2,429.5z"/>
					<g id="XMLID_3464_">
						<path id="XMLID_3466_" class="st22" d="M1559.4,436.7c-0.1,0.4-0.4,0.6-0.8,0.6c-0.4-0.1-0.6-0.4-0.6-0.8l1-5.8
							c0.1-0.4,0.4-0.6,0.8-0.6c0.4,0.1,0.6,0.4,0.6,0.8L1559.4,436.7z"/>
						<path id="XMLID_3465_" class="st22" d="M1565,436.7c0.1,0.4,0.4,0.6,0.8,0.6c0.4-0.1,0.6-0.4,0.6-0.8l-1-5.8
							c-0.1-0.4-0.4-0.6-0.8-0.6c-0.4,0.1-0.6,0.4-0.6,0.8L1565,436.7z"/>
					</g>
				</g>
				<g id="XMLID_3455_">
					<path id="XMLID_3462_" class="st21" d="M1551.1,429c0.9,0,1.6-0.7,1.6-1.6c0-0.9-0.7-1.6-1.6-1.6c-0.9,0-1.6,0.7-1.6,1.6
						C1549.5,428.2,1550.2,429,1551.1,429z"/>
					<path id="XMLID_3461_" class="st22" d="M1548.7,436.6c0,0.4-0.3,0.7-0.7,0.7c-0.4,0-0.7-0.3-0.7-0.7v-5.9
						c0-0.4,0.3-0.7,0.7-0.7c0.4,0,0.7,0.3,0.7,0.7V436.6z"/>
					<path id="XMLID_3460_" class="st22" d="M1554.8,436.6c0,0.4-0.3,0.7-0.7,0.7c-0.4,0-0.7-0.3-0.7-0.7v-5.9
						c0-0.4,0.3-0.7,0.7-0.7c0.4,0,0.7,0.3,0.7,0.7V436.6z"/>
					<path id="XMLID_3459_" class="st22" d="M1550.8,444.8c0,0.6-0.4,1.1-0.9,1.1c-0.5,0-0.9-0.5-0.9-1.1v-9.1
						c0-0.6,0.4-1.1,0.9-1.1c0.5,0,0.9,0.5,0.9,1.1V444.8z"/>
					<path id="XMLID_3458_" class="st22" d="M1553,444.8c0,0.6-0.4,1.1-0.9,1.1c-0.5,0-0.9-0.5-0.9-1.1v-9.1c0-0.6,0.4-1.1,0.9-1.1
						c0.5,0,0.9,0.5,0.9,1.1V444.8z"/>
					<rect id="XMLID_3457_" x="1549.1" y="431.3" class="st21" width="3.9" height="5.8"/>
					<path id="XMLID_3456_" class="st21" d="M1548.5,429.5h5c0.7,0,1.2,0.6,1.2,1.2v1.1h-7.5v-1.1
						C1547.3,430,1547.8,429.5,1548.5,429.5z"/>
				</g>
			</g>
			<rect id="XMLID_3453_" x="1556.5" y="425.7" class="st21" width="0.6" height="20.2"/>
		</g>
	</g>
	<g id="IconBaño_1_">
		<path id="XMLID_25_" class="st19" d="M1564.1,270.6h-22.7c-0.5,0-0.9-0.4-0.9-0.9V247c0-0.5,0.4-0.9,0.9-0.9h22.7
			c0.5,0,0.9,0.4,0.9,0.9v22.7C1565,270.2,1564.6,270.6,1564.1,270.6z"/>
		<path id="XMLID_24_" class="st20" d="M1564.1,246.1c-6.5,0-12.4,2.6-16.7,6.9c-4.3,4.3-6.9,10.2-6.9,16.7V247
			c0-0.5,0.4-0.9,0.9-0.9H1564.1z"/>
		<g id="XMLID_1_">
			<g id="XMLID_4_">
				<g id="XMLID_14_">
					<path id="XMLID_23_" class="st21" d="M1558.1,251.5c0.9,0,1.6-0.7,1.6-1.6c0-0.9-0.7-1.6-1.6-1.6s-1.6,0.7-1.6,1.6
						C1556.5,250.8,1557.2,251.5,1558.1,251.5z"/>
					<g id="XMLID_20_">
						<path id="XMLID_22_" class="st22" d="M1557.9,267.4c0,0.6-0.4,1.1-0.9,1.1c-0.5,0-0.9-0.5-0.9-1.1v-9.1c0-0.6,0.4-1.1,0.9-1.1
							c0.5,0,0.9,0.5,0.9,1.1V267.4z"/>
						<path id="XMLID_21_" class="st22" d="M1560.1,267.4c0,0.6-0.4,1.1-0.9,1.1c-0.5,0-0.9-0.5-0.9-1.1v-9.1c0-0.6,0.4-1.1,0.9-1.1
							c0.5,0,0.9,0.5,0.9,1.1V267.4z"/>
					</g>
					<polygon id="XMLID_19_" class="st21" points="1555.4,261.2 1560.8,261.2 1559.4,252.9 1556.7,252.9 					"/>
					<path id="XMLID_18_" class="st21" d="M1556.1,252h3.9c0.7,0,1.2,0.6,1.2,1.2v1.1h-6.4v-1.1C1554.9,252.6,1555.5,252,1556.1,252
						z"/>
					<g id="XMLID_15_">
						<path id="XMLID_17_" class="st22" d="M1555.3,259.3c-0.1,0.4-0.4,0.6-0.8,0.6c-0.4-0.1-0.6-0.4-0.6-0.8l1-5.8
							c0.1-0.4,0.4-0.6,0.8-0.6c0.4,0.1,0.6,0.4,0.6,0.8L1555.3,259.3z"/>
						<path id="XMLID_16_" class="st22" d="M1560.9,259.3c0.1,0.4,0.4,0.6,0.8,0.6c0.4-0.1,0.6-0.4,0.6-0.8l-1-5.8
							c-0.1-0.4-0.4-0.6-0.8-0.6c-0.4,0.1-0.6,0.4-0.6,0.8L1560.9,259.3z"/>
					</g>
				</g>
				<g id="XMLID_5_">
					<path id="XMLID_13_" class="st21" d="M1547,251.5c0.9,0,1.6-0.7,1.6-1.6c0-0.9-0.7-1.6-1.6-1.6c-0.9,0-1.6,0.7-1.6,1.6
						C1545.4,250.8,1546.1,251.5,1547,251.5z"/>
					<path id="XMLID_12_" class="st22" d="M1544.6,259.1c0,0.4-0.3,0.7-0.7,0.7s-0.7-0.3-0.7-0.7v-5.9c0-0.4,0.3-0.7,0.7-0.7
						s0.7,0.3,0.7,0.7V259.1z"/>
					<path id="XMLID_11_" class="st22" d="M1550.7,259.1c0,0.4-0.3,0.7-0.7,0.7c-0.4,0-0.7-0.3-0.7-0.7v-5.9c0-0.4,0.3-0.7,0.7-0.7
						c0.4,0,0.7,0.3,0.7,0.7V259.1z"/>
					<path id="XMLID_10_" class="st22" d="M1546.7,267.4c0,0.6-0.4,1.1-0.9,1.1c-0.5,0-0.9-0.5-0.9-1.1v-9.1c0-0.6,0.4-1.1,0.9-1.1
						c0.5,0,0.9,0.5,0.9,1.1V267.4z"/>
					<path id="XMLID_9_" class="st22" d="M1548.9,267.4c0,0.6-0.4,1.1-0.9,1.1c-0.5,0-0.9-0.5-0.9-1.1v-9.1c0-0.6,0.4-1.1,0.9-1.1
						c0.5,0,0.9,0.5,0.9,1.1V267.4z"/>
					<rect id="XMLID_8_" x="1545" y="253.9" class="st21" width="3.9" height="5.8"/>
					<path id="XMLID_7_" class="st21" d="M1544.4,252h5c0.7,0,1.2,0.6,1.2,1.2v1.1h-7.5v-1.1C1543.2,252.6,1543.7,252,1544.4,252z"
						/>
				</g>
			</g>
			<rect id="XMLID_3_" x="1552.4" y="248.3" class="st21" width="0.6" height="20.2"/>
		</g>
	</g>
	<g id="IconBaño_2_">
		<path id="XMLID_48_" class="st19" d="M1337.8,211.3h-22.7c-0.5,0-0.9-0.4-0.9-0.9v-22.7c0-0.5,0.4-0.9,0.9-0.9h22.7
			c0.5,0,0.9,0.4,0.9,0.9v22.7C1338.7,210.9,1338.2,211.3,1337.8,211.3z"/>
		<path id="XMLID_47_" class="st20" d="M1337.8,186.9c-6.5,0-12.4,2.6-16.7,6.9c-4.3,4.3-6.9,10.2-6.9,16.7v-22.7
			c0-0.5,0.4-0.9,0.9-0.9H1337.8z"/>
		<g id="XMLID_26_">
			<g id="XMLID_28_">
				<g id="XMLID_37_">
					<path id="XMLID_46_" class="st21" d="M1331.8,192.2c0.9,0,1.6-0.7,1.6-1.6c0-0.9-0.7-1.6-1.6-1.6s-1.6,0.7-1.6,1.6
						C1330.2,191.5,1330.9,192.2,1331.8,192.2z"/>
					<g id="XMLID_43_">
						<path id="XMLID_45_" class="st22" d="M1331.6,208.1c0,0.6-0.4,1.1-0.9,1.1s-0.9-0.5-0.9-1.1V199c0-0.6,0.4-1.1,0.9-1.1
							s0.9,0.5,0.9,1.1V208.1z"/>
						<path id="XMLID_44_" class="st22" d="M1333.7,208.1c0,0.6-0.4,1.1-0.9,1.1s-0.9-0.5-0.9-1.1V199c0-0.6,0.4-1.1,0.9-1.1
							s0.9,0.5,0.9,1.1V208.1z"/>
					</g>
					<polygon id="XMLID_42_" class="st21" points="1329.1,201.9 1334.4,201.9 1333.1,193.6 1330.4,193.6 					"/>
					<path id="XMLID_41_" class="st21" d="M1329.8,192.7h3.9c0.7,0,1.2,0.6,1.2,1.2v1.1h-6.4V194
						C1328.6,193.3,1329.2,192.7,1329.8,192.7z"/>
					<g id="XMLID_38_">
						<path id="XMLID_40_" class="st22" d="M1329,200c-0.1,0.4-0.4,0.6-0.8,0.6c-0.4-0.1-0.6-0.4-0.6-0.8l1-5.8
							c0.1-0.4,0.4-0.6,0.8-0.6c0.4,0.1,0.6,0.4,0.6,0.8L1329,200z"/>
						<path id="XMLID_39_" class="st22" d="M1334.6,200c0.1,0.4,0.4,0.6,0.8,0.6c0.4-0.1,0.6-0.4,0.6-0.8l-1-5.8
							c-0.1-0.4-0.4-0.6-0.8-0.6c-0.4,0.1-0.6,0.4-0.6,0.8L1334.6,200z"/>
					</g>
				</g>
				<g id="XMLID_29_">
					<path id="XMLID_36_" class="st21" d="M1320.7,192.2c0.9,0,1.6-0.7,1.6-1.6c0-0.9-0.7-1.6-1.6-1.6c-0.9,0-1.6,0.7-1.6,1.6
						C1319.1,191.5,1319.8,192.2,1320.7,192.2z"/>
					<path id="XMLID_35_" class="st22" d="M1318.3,199.8c0,0.4-0.3,0.7-0.7,0.7c-0.4,0-0.7-0.3-0.7-0.7V194c0-0.4,0.3-0.7,0.7-0.7
						c0.4,0,0.7,0.3,0.7,0.7V199.8z"/>
					<path id="XMLID_34_" class="st22" d="M1324.3,199.8c0,0.4-0.3,0.7-0.7,0.7c-0.4,0-0.7-0.3-0.7-0.7V194c0-0.4,0.3-0.7,0.7-0.7
						c0.4,0,0.7,0.3,0.7,0.7V199.8z"/>
					<path id="XMLID_33_" class="st22" d="M1320.4,208.1c0,0.6-0.4,1.1-0.9,1.1c-0.5,0-0.9-0.5-0.9-1.1V199c0-0.6,0.4-1.1,0.9-1.1
						c0.5,0,0.9,0.5,0.9,1.1V208.1z"/>
					<path id="XMLID_32_" class="st22" d="M1322.6,208.1c0,0.6-0.4,1.1-0.9,1.1c-0.5,0-0.9-0.5-0.9-1.1V199c0-0.6,0.4-1.1,0.9-1.1
						c0.5,0,0.9,0.5,0.9,1.1V208.1z"/>
					<rect id="XMLID_31_" x="1318.7" y="194.6" class="st21" width="3.9" height="5.8"/>
					<path id="XMLID_30_" class="st21" d="M1318.1,192.7h5c0.7,0,1.2,0.6,1.2,1.2v1.1h-7.5V194
						C1316.9,193.3,1317.4,192.7,1318.1,192.7z"/>
				</g>
			</g>
			<rect id="XMLID_27_" x="1326.1" y="189" class="st21" width="0.6" height="20.2"/>
		</g>
	</g>
	<g id="IconBaño_3_">
		<path id="XMLID_71_" class="st19" d="M1273,402.7h-22.7c-0.5,0-0.9-0.4-0.9-0.9v-22.7c0-0.5,0.4-0.9,0.9-0.9h22.7
			c0.5,0,0.9,0.4,0.9,0.9v22.7C1273.9,402.3,1273.5,402.7,1273,402.7z"/>
		<path id="XMLID_70_" class="st20" d="M1273,378.2c-6.5,0-12.4,2.6-16.7,6.9c-4.3,4.3-6.9,10.2-6.9,16.7v-22.7
			c0-0.5,0.4-0.9,0.9-0.9H1273z"/>
		<g id="XMLID_49_">
			<g id="XMLID_51_">
				<g id="XMLID_60_">
					<path id="XMLID_69_" class="st21" d="M1267,383.6c0.9,0,1.6-0.7,1.6-1.6c0-0.9-0.7-1.6-1.6-1.6s-1.6,0.7-1.6,1.6
						C1265.4,382.9,1266.2,383.6,1267,383.6z"/>
					<g id="XMLID_66_">
						<path id="XMLID_68_" class="st22" d="M1266.8,399.5c0,0.6-0.4,1.1-0.9,1.1s-0.9-0.5-0.9-1.1v-9.1c0-0.6,0.4-1.1,0.9-1.1
							s0.9,0.5,0.9,1.1V399.5z"/>
						<path id="XMLID_67_" class="st22" d="M1269,399.5c0,0.6-0.4,1.1-0.9,1.1c-0.5,0-0.9-0.5-0.9-1.1v-9.1c0-0.6,0.4-1.1,0.9-1.1
							c0.5,0,0.9,0.5,0.9,1.1V399.5z"/>
					</g>
					<polygon id="XMLID_65_" class="st21" points="1264.4,393.3 1269.7,393.3 1268.4,385 1265.7,385 					"/>
					<path id="XMLID_64_" class="st21" d="M1265.1,384.1h3.9c0.7,0,1.2,0.6,1.2,1.2v1.1h-6.4v-1.1
						C1263.9,384.7,1264.4,384.1,1265.1,384.1z"/>
					<g id="XMLID_61_">
						<path id="XMLID_63_" class="st22" d="M1264.3,391.3c-0.1,0.4-0.4,0.6-0.8,0.6c-0.4-0.1-0.6-0.4-0.6-0.8l1-5.8
							c0.1-0.4,0.4-0.6,0.8-0.6c0.4,0.1,0.6,0.4,0.6,0.8L1264.3,391.3z"/>
						<path id="XMLID_62_" class="st22" d="M1269.8,391.3c0.1,0.4,0.4,0.6,0.8,0.6c0.4-0.1,0.6-0.4,0.6-0.8l-1-5.8
							c-0.1-0.4-0.4-0.6-0.8-0.6c-0.4,0.1-0.6,0.4-0.6,0.8L1269.8,391.3z"/>
					</g>
				</g>
				<g id="XMLID_52_">
					<path id="XMLID_59_" class="st21" d="M1255.9,383.6c0.9,0,1.6-0.7,1.6-1.6c0-0.9-0.7-1.6-1.6-1.6c-0.9,0-1.6,0.7-1.6,1.6
						C1254.3,382.9,1255.1,383.6,1255.9,383.6z"/>
					<path id="XMLID_58_" class="st22" d="M1253.5,391.2c0,0.4-0.3,0.7-0.7,0.7c-0.4,0-0.7-0.3-0.7-0.7v-5.9c0-0.4,0.3-0.7,0.7-0.7
						c0.4,0,0.7,0.3,0.7,0.7V391.2z"/>
					<path id="XMLID_57_" class="st22" d="M1259.6,391.2c0,0.4-0.3,0.7-0.7,0.7c-0.4,0-0.7-0.3-0.7-0.7v-5.9c0-0.4,0.3-0.7,0.7-0.7
						c0.4,0,0.7,0.3,0.7,0.7V391.2z"/>
					<path id="XMLID_56_" class="st22" d="M1255.6,399.5c0,0.6-0.4,1.1-0.9,1.1c-0.5,0-0.9-0.5-0.9-1.1v-9.1c0-0.6,0.4-1.1,0.9-1.1
						c0.5,0,0.9,0.5,0.9,1.1V399.5z"/>
					<path id="XMLID_55_" class="st22" d="M1257.8,399.5c0,0.6-0.4,1.1-0.9,1.1c-0.5,0-0.9-0.5-0.9-1.1v-9.1c0-0.6,0.4-1.1,0.9-1.1
						c0.5,0,0.9,0.5,0.9,1.1V399.5z"/>
					<rect id="XMLID_54_" x="1253.9" y="386" class="st21" width="3.9" height="5.8"/>
					<path id="XMLID_53_" class="st21" d="M1253.3,384.1h5c0.7,0,1.2,0.6,1.2,1.2v1.1h-7.5v-1.1
						C1252.1,384.7,1252.7,384.1,1253.3,384.1z"/>
				</g>
			</g>
			<rect id="XMLID_50_" x="1261.4" y="380.4" class="st21" width="0.6" height="20.2"/>
		</g>
	</g>
	<g id="IconBaño_4_">
		<path id="XMLID_94_" class="st19" d="M1207.3,260.5h-22.7c-0.5,0-0.9-0.4-0.9-0.9V237c0-0.5,0.4-0.9,0.9-0.9h22.7
			c0.5,0,0.9,0.4,0.9,0.9v22.7C1208.2,260.1,1207.8,260.5,1207.3,260.5z"/>
		<path id="XMLID_93_" class="st20" d="M1207.3,236.1c-6.5,0-12.4,2.6-16.7,6.9c-4.3,4.3-6.9,10.2-6.9,16.7V237
			c0-0.5,0.4-0.9,0.9-0.9H1207.3z"/>
		<g id="XMLID_72_">
			<g id="XMLID_74_">
				<g id="XMLID_83_">
					<path id="XMLID_92_" class="st21" d="M1201.3,241.4c0.9,0,1.6-0.7,1.6-1.6c0-0.9-0.7-1.6-1.6-1.6s-1.6,0.7-1.6,1.6
						C1199.7,240.7,1200.4,241.4,1201.3,241.4z"/>
					<g id="XMLID_89_">
						<path id="XMLID_91_" class="st22" d="M1201.1,257.3c0,0.6-0.4,1.1-0.9,1.1s-0.9-0.5-0.9-1.1v-9.1c0-0.6,0.4-1.1,0.9-1.1
							s0.9,0.5,0.9,1.1V257.3z"/>
						<path id="XMLID_90_" class="st22" d="M1203.3,257.3c0,0.6-0.4,1.1-0.9,1.1s-0.9-0.5-0.9-1.1v-9.1c0-0.6,0.4-1.1,0.9-1.1
							s0.9,0.5,0.9,1.1V257.3z"/>
					</g>
					<polygon id="XMLID_88_" class="st21" points="1198.7,251.1 1204,251.1 1202.7,242.8 1200,242.8 					"/>
					<path id="XMLID_87_" class="st21" d="M1199.3,242h3.9c0.7,0,1.2,0.6,1.2,1.2v1.1h-6.4v-1.1C1198.1,242.5,1198.7,242,1199.3,242
						z"/>
					<g id="XMLID_84_">
						<path id="XMLID_86_" class="st22" d="M1198.5,249.2c-0.1,0.4-0.4,0.6-0.8,0.6c-0.4-0.1-0.6-0.4-0.6-0.8l1-5.8
							c0.1-0.4,0.4-0.6,0.8-0.6c0.4,0.1,0.6,0.4,0.6,0.8L1198.5,249.2z"/>
						<path id="XMLID_85_" class="st22" d="M1204.1,249.2c0.1,0.4,0.4,0.6,0.8,0.6c0.4-0.1,0.6-0.4,0.6-0.8l-1-5.8
							c-0.1-0.4-0.4-0.6-0.8-0.6c-0.4,0.1-0.6,0.4-0.6,0.8L1204.1,249.2z"/>
					</g>
				</g>
				<g id="XMLID_75_">
					<path id="XMLID_82_" class="st21" d="M1190.2,241.4c0.9,0,1.6-0.7,1.6-1.6c0-0.9-0.7-1.6-1.6-1.6c-0.9,0-1.6,0.7-1.6,1.6
						C1188.6,240.7,1189.3,241.4,1190.2,241.4z"/>
					<path id="XMLID_81_" class="st22" d="M1187.8,249c0,0.4-0.3,0.7-0.7,0.7c-0.4,0-0.7-0.3-0.7-0.7v-5.9c0-0.4,0.3-0.7,0.7-0.7
						c0.4,0,0.7,0.3,0.7,0.7V249z"/>
					<path id="XMLID_80_" class="st22" d="M1193.9,249c0,0.4-0.3,0.7-0.7,0.7c-0.4,0-0.7-0.3-0.7-0.7v-5.9c0-0.4,0.3-0.7,0.7-0.7
						c0.4,0,0.7,0.3,0.7,0.7V249z"/>
					<path id="XMLID_79_" class="st22" d="M1189.9,257.3c0,0.6-0.4,1.1-0.9,1.1s-0.9-0.5-0.9-1.1v-9.1c0-0.6,0.4-1.1,0.9-1.1
						s0.9,0.5,0.9,1.1V257.3z"/>
					<path id="XMLID_78_" class="st22" d="M1192.1,257.3c0,0.6-0.4,1.1-0.9,1.1c-0.5,0-0.9-0.5-0.9-1.1v-9.1c0-0.6,0.4-1.1,0.9-1.1
						c0.5,0,0.9,0.5,0.9,1.1V257.3z"/>
					<rect id="XMLID_77_" x="1188.2" y="243.8" class="st21" width="3.9" height="5.8"/>
					<path id="XMLID_76_" class="st21" d="M1187.6,242h5c0.7,0,1.2,0.6,1.2,1.2v1.1h-7.5v-1.1C1186.4,242.5,1187,242,1187.6,242z"/>
				</g>
			</g>
			<rect id="XMLID_73_" x="1195.6" y="238.2" class="st21" width="0.6" height="20.2"/>
		</g>
	</g>
	<g id="IconBaño_5_">
		<path id="XMLID_117_" class="st19" d="M974.6,208.4h-22.7c-0.5,0-0.9-0.4-0.9-0.9v-22.7c0-0.5,0.4-0.9,0.9-0.9h22.7
			c0.5,0,0.9,0.4,0.9,0.9v22.7C975.5,208,975.1,208.4,974.6,208.4z"/>
		<path id="XMLID_116_" class="st20" d="M974.6,183.9c-6.5,0-12.4,2.6-16.7,6.9c-4.3,4.3-6.9,10.2-6.9,16.7v-22.7
			c0-0.5,0.4-0.9,0.9-0.9H974.6z"/>
		<g id="XMLID_95_">
			<g id="XMLID_97_">
				<g id="XMLID_106_">
					<path id="XMLID_115_" class="st21" d="M968.6,189.3c0.9,0,1.6-0.7,1.6-1.6c0-0.9-0.7-1.6-1.6-1.6s-1.6,0.7-1.6,1.6
						C967,188.6,967.7,189.3,968.6,189.3z"/>
					<g id="XMLID_112_">
						<path id="XMLID_114_" class="st22" d="M968.4,205.2c0,0.6-0.4,1.1-0.9,1.1c-0.5,0-0.9-0.5-0.9-1.1v-9.1c0-0.6,0.4-1.1,0.9-1.1
							c0.5,0,0.9,0.5,0.9,1.1V205.2z"/>
						<path id="XMLID_113_" class="st22" d="M970.6,205.2c0,0.6-0.4,1.1-0.9,1.1c-0.5,0-0.9-0.5-0.9-1.1v-9.1c0-0.6,0.4-1.1,0.9-1.1
							c0.5,0,0.9,0.5,0.9,1.1V205.2z"/>
					</g>
					<polygon id="XMLID_111_" class="st21" points="965.9,199 971.3,199 970,190.7 967.3,190.7 					"/>
					<path id="XMLID_110_" class="st21" d="M966.6,189.8h3.9c0.7,0,1.2,0.6,1.2,1.2v1.1h-6.4v-1.1
						C965.4,190.4,966,189.8,966.6,189.8z"/>
					<g id="XMLID_107_">
						<path id="XMLID_109_" class="st22" d="M965.8,197.1c-0.1,0.4-0.4,0.6-0.8,0.6c-0.4-0.1-0.6-0.4-0.6-0.8l1-5.8
							c0.1-0.4,0.4-0.6,0.8-0.6c0.4,0.1,0.6,0.4,0.6,0.8L965.8,197.1z"/>
						<path id="XMLID_108_" class="st22" d="M971.4,197.1c0.1,0.4,0.4,0.6,0.8,0.6c0.4-0.1,0.6-0.4,0.6-0.8l-1-5.8
							c-0.1-0.4-0.4-0.6-0.8-0.6c-0.4,0.1-0.6,0.4-0.6,0.8L971.4,197.1z"/>
					</g>
				</g>
				<g id="XMLID_98_">
					<path id="XMLID_105_" class="st21" d="M957.5,189.3c0.9,0,1.6-0.7,1.6-1.6c0-0.9-0.7-1.6-1.6-1.6c-0.9,0-1.6,0.7-1.6,1.6
						C955.9,188.6,956.6,189.3,957.5,189.3z"/>
					<path id="XMLID_104_" class="st22" d="M955.1,196.9c0,0.4-0.3,0.7-0.7,0.7c-0.4,0-0.7-0.3-0.7-0.7v-5.9c0-0.4,0.3-0.7,0.7-0.7
						c0.4,0,0.7,0.3,0.7,0.7V196.9z"/>
					<path id="XMLID_103_" class="st22" d="M961.2,196.9c0,0.4-0.3,0.7-0.7,0.7s-0.7-0.3-0.7-0.7v-5.9c0-0.4,0.3-0.7,0.7-0.7
						s0.7,0.3,0.7,0.7V196.9z"/>
					<path id="XMLID_102_" class="st22" d="M957.2,205.2c0,0.6-0.4,1.1-0.9,1.1c-0.5,0-0.9-0.5-0.9-1.1v-9.1c0-0.6,0.4-1.1,0.9-1.1
						c0.5,0,0.9,0.5,0.9,1.1V205.2z"/>
					<path id="XMLID_101_" class="st22" d="M959.4,205.2c0,0.6-0.4,1.1-0.9,1.1c-0.5,0-0.9-0.5-0.9-1.1v-9.1c0-0.6,0.4-1.1,0.9-1.1
						c0.5,0,0.9,0.5,0.9,1.1V205.2z"/>
					<rect id="XMLID_100_" x="955.5" y="191.7" class="st21" width="3.9" height="5.8"/>
					<path id="XMLID_99_" class="st21" d="M954.9,189.8h5c0.7,0,1.2,0.6,1.2,1.2v1.1h-7.5v-1.1C953.7,190.4,954.2,189.8,954.9,189.8
						z"/>
				</g>
			</g>
			<rect id="XMLID_96_" x="962.9" y="186.1" class="st21" width="0.6" height="20.2"/>
		</g>
	</g>
	<g id="IconBaño_6_">
		<path id="XMLID_140_" class="st19" d="M846.5,211.3h-22.7c-0.5,0-0.9-0.4-0.9-0.9v-22.7c0-0.5,0.4-0.9,0.9-0.9h22.7
			c0.5,0,0.9,0.4,0.9,0.9v22.7C847.4,210.9,847,211.3,846.5,211.3z"/>
		<path id="XMLID_139_" class="st20" d="M846.5,186.9c-6.5,0-12.4,2.6-16.7,6.9c-4.3,4.3-6.9,10.2-6.9,16.7v-22.7
			c0-0.5,0.4-0.9,0.9-0.9H846.5z"/>
		<g id="XMLID_118_">
			<g id="XMLID_120_">
				<g id="XMLID_129_">
					<path id="XMLID_138_" class="st21" d="M840.6,192.2c0.9,0,1.6-0.7,1.6-1.6c0-0.9-0.7-1.6-1.6-1.6s-1.6,0.7-1.6,1.6
						C839,191.5,839.7,192.2,840.6,192.2z"/>
					<g id="XMLID_135_">
						<path id="XMLID_137_" class="st22" d="M840.4,208.1c0,0.6-0.4,1.1-0.9,1.1c-0.5,0-0.9-0.5-0.9-1.1V199c0-0.6,0.4-1.1,0.9-1.1
							c0.5,0,0.9,0.5,0.9,1.1V208.1z"/>
						<path id="XMLID_136_" class="st22" d="M842.5,208.1c0,0.6-0.4,1.1-0.9,1.1c-0.5,0-0.9-0.5-0.9-1.1V199c0-0.6,0.4-1.1,0.9-1.1
							c0.5,0,0.9,0.5,0.9,1.1V208.1z"/>
					</g>
					<polygon id="XMLID_134_" class="st21" points="837.9,201.9 843.2,201.9 841.9,193.6 839.2,193.6 					"/>
					<path id="XMLID_133_" class="st21" d="M838.6,192.7h3.9c0.7,0,1.2,0.6,1.2,1.2v1.1h-6.4V194
						C837.4,193.3,837.9,192.7,838.6,192.7z"/>
					<g id="XMLID_130_">
						<path id="XMLID_132_" class="st22" d="M837.8,200c-0.1,0.4-0.4,0.6-0.8,0.6c-0.4-0.1-0.6-0.4-0.6-0.8l1-5.8
							c0.1-0.4,0.4-0.6,0.8-0.6c0.4,0.1,0.6,0.4,0.6,0.8L837.8,200z"/>
						<path id="XMLID_131_" class="st22" d="M843.3,200c0.1,0.4,0.4,0.6,0.8,0.6c0.4-0.1,0.6-0.4,0.6-0.8l-1-5.8
							c-0.1-0.4-0.4-0.6-0.8-0.6c-0.4,0.1-0.6,0.4-0.6,0.8L843.3,200z"/>
					</g>
				</g>
				<g id="XMLID_121_">
					<path id="XMLID_128_" class="st21" d="M829.5,192.2c0.9,0,1.6-0.7,1.6-1.6c0-0.9-0.7-1.6-1.6-1.6c-0.9,0-1.6,0.7-1.6,1.6
						C827.9,191.5,828.6,192.2,829.5,192.2z"/>
					<path id="XMLID_127_" class="st22" d="M827.1,199.8c0,0.4-0.3,0.7-0.7,0.7c-0.4,0-0.7-0.3-0.7-0.7V194c0-0.4,0.3-0.7,0.7-0.7
						c0.4,0,0.7,0.3,0.7,0.7V199.8z"/>
					<path id="XMLID_126_" class="st22" d="M833.1,199.8c0,0.4-0.3,0.7-0.7,0.7s-0.7-0.3-0.7-0.7V194c0-0.4,0.3-0.7,0.7-0.7
						s0.7,0.3,0.7,0.7V199.8z"/>
					<path id="XMLID_125_" class="st22" d="M829.2,208.1c0,0.6-0.4,1.1-0.9,1.1c-0.5,0-0.9-0.5-0.9-1.1V199c0-0.6,0.4-1.1,0.9-1.1
						c0.5,0,0.9,0.5,0.9,1.1V208.1z"/>
					<path id="XMLID_124_" class="st22" d="M831.3,208.1c0,0.6-0.4,1.1-0.9,1.1c-0.5,0-0.9-0.5-0.9-1.1V199c0-0.6,0.4-1.1,0.9-1.1
						c0.5,0,0.9,0.5,0.9,1.1V208.1z"/>
					<rect id="XMLID_123_" x="827.4" y="194.6" class="st21" width="3.9" height="5.8"/>
					<path id="XMLID_122_" class="st21" d="M826.9,192.7h5c0.7,0,1.2,0.6,1.2,1.2v1.1h-7.5V194C825.7,193.3,826.2,192.7,826.9,192.7
						z"/>
				</g>
			</g>
			<rect id="XMLID_119_" x="834.9" y="189" class="st21" width="0.6" height="20.2"/>
		</g>
	</g>
	<g id="IconBaño_7_">
		<path id="XMLID_163_" class="st19" d="M775.9,463.1h-22.7c-0.5,0-0.9-0.4-0.9-0.9v-22.7c0-0.5,0.4-0.9,0.9-0.9h22.7
			c0.5,0,0.9,0.4,0.9,0.9v22.7C776.8,462.7,776.4,463.1,775.9,463.1z"/>
		<path id="XMLID_162_" class="st20" d="M775.9,438.7c-6.5,0-12.4,2.6-16.7,6.9c-4.3,4.3-6.9,10.2-6.9,16.7v-22.7
			c0-0.5,0.4-0.9,0.9-0.9H775.9z"/>
		<g id="XMLID_141_">
			<g id="XMLID_143_">
				<g id="XMLID_152_">
					<path id="XMLID_161_" class="st21" d="M769.9,444c0.9,0,1.6-0.7,1.6-1.6c0-0.9-0.7-1.6-1.6-1.6s-1.6,0.7-1.6,1.6
						C768.3,443.3,769,444,769.9,444z"/>
					<g id="XMLID_158_">
						<path id="XMLID_160_" class="st22" d="M769.7,459.9c0,0.6-0.4,1.1-0.9,1.1c-0.5,0-0.9-0.5-0.9-1.1v-9.1c0-0.6,0.4-1.1,0.9-1.1
							c0.5,0,0.9,0.5,0.9,1.1V459.9z"/>
						<path id="XMLID_159_" class="st22" d="M771.9,459.9c0,0.6-0.4,1.1-0.9,1.1c-0.5,0-0.9-0.5-0.9-1.1v-9.1c0-0.6,0.4-1.1,0.9-1.1
							c0.5,0,0.9,0.5,0.9,1.1V459.9z"/>
					</g>
					<polygon id="XMLID_157_" class="st21" points="767.3,453.7 772.6,453.7 771.3,445.4 768.6,445.4 					"/>
					<path id="XMLID_156_" class="st21" d="M768,444.5h3.9c0.7,0,1.2,0.6,1.2,1.2v1.1h-6.4v-1.1C766.8,445.1,767.3,444.5,768,444.5z
						"/>
					<g id="XMLID_153_">
						<path id="XMLID_155_" class="st22" d="M767.2,451.8c-0.1,0.4-0.4,0.6-0.8,0.6c-0.4-0.1-0.6-0.4-0.6-0.8l1-5.8
							c0.1-0.4,0.4-0.6,0.8-0.6c0.4,0.1,0.6,0.4,0.6,0.8L767.2,451.8z"/>
						<path id="XMLID_154_" class="st22" d="M772.7,451.8c0.1,0.4,0.4,0.6,0.8,0.6c0.4-0.1,0.6-0.4,0.6-0.8l-1-5.8
							c-0.1-0.4-0.4-0.6-0.8-0.6c-0.4,0.1-0.6,0.4-0.6,0.8L772.7,451.8z"/>
					</g>
				</g>
				<g id="XMLID_144_">
					<path id="XMLID_151_" class="st21" d="M758.8,444c0.9,0,1.6-0.7,1.6-1.6c0-0.9-0.7-1.6-1.6-1.6c-0.9,0-1.6,0.7-1.6,1.6
						C757.2,443.3,758,444,758.8,444z"/>
					<path id="XMLID_150_" class="st22" d="M756.4,451.6c0,0.4-0.3,0.7-0.7,0.7c-0.4,0-0.7-0.3-0.7-0.7v-5.9c0-0.4,0.3-0.7,0.7-0.7
						c0.4,0,0.7,0.3,0.7,0.7V451.6z"/>
					<path id="XMLID_149_" class="st22" d="M762.5,451.6c0,0.4-0.3,0.7-0.7,0.7c-0.4,0-0.7-0.3-0.7-0.7v-5.9c0-0.4,0.3-0.7,0.7-0.7
						c0.4,0,0.7,0.3,0.7,0.7V451.6z"/>
					<path id="XMLID_148_" class="st22" d="M758.5,459.9c0,0.6-0.4,1.1-0.9,1.1s-0.9-0.5-0.9-1.1v-9.1c0-0.6,0.4-1.1,0.9-1.1
						s0.9,0.5,0.9,1.1V459.9z"/>
					<path id="XMLID_147_" class="st22" d="M760.7,459.9c0,0.6-0.4,1.1-0.9,1.1c-0.5,0-0.9-0.5-0.9-1.1v-9.1c0-0.6,0.4-1.1,0.9-1.1
						c0.5,0,0.9,0.5,0.9,1.1V459.9z"/>
					<rect id="XMLID_146_" x="756.8" y="446.4" class="st21" width="3.9" height="5.8"/>
					<path id="XMLID_145_" class="st21" d="M756.2,444.5h5c0.7,0,1.2,0.6,1.2,1.2v1.1H755v-1.1C755,445.1,755.6,444.5,756.2,444.5z"
						/>
				</g>
			</g>
			<rect id="XMLID_142_" x="764.3" y="440.8" class="st21" width="0.6" height="20.2"/>
		</g>
	</g>
	<g id="IconBaño_8_">
		<path id="XMLID_186_" class="st19" d="M624,377.3h-22.7c-0.5,0-0.9-0.4-0.9-0.9v-22.7c0-0.5,0.4-0.9,0.9-0.9H624
			c0.5,0,0.9,0.4,0.9,0.9v22.7C624.9,376.9,624.5,377.3,624,377.3z"/>
		<path id="XMLID_185_" class="st20" d="M624,352.8c-6.5,0-12.4,2.6-16.7,6.9c-4.3,4.3-6.9,10.2-6.9,16.7v-22.7
			c0-0.5,0.4-0.9,0.9-0.9H624z"/>
		<g id="XMLID_164_">
			<g id="XMLID_166_">
				<g id="XMLID_175_">
					<path id="XMLID_184_" class="st21" d="M618,358.2c0.9,0,1.6-0.7,1.6-1.6c0-0.9-0.7-1.6-1.6-1.6c-0.9,0-1.6,0.7-1.6,1.6
						C616.4,357.5,617.1,358.2,618,358.2z"/>
					<g id="XMLID_181_">
						<path id="XMLID_183_" class="st22" d="M617.8,374.1c0,0.6-0.4,1.1-0.9,1.1c-0.5,0-0.9-0.5-0.9-1.1V365c0-0.6,0.4-1.1,0.9-1.1
							c0.5,0,0.9,0.5,0.9,1.1V374.1z"/>
						<path id="XMLID_182_" class="st22" d="M620,374.1c0,0.6-0.4,1.1-0.9,1.1c-0.5,0-0.9-0.5-0.9-1.1V365c0-0.6,0.4-1.1,0.9-1.1
							c0.5,0,0.9,0.5,0.9,1.1V374.1z"/>
					</g>
					<polygon id="XMLID_180_" class="st21" points="615.4,367.9 620.7,367.9 619.4,359.6 616.7,359.6 					"/>
					<path id="XMLID_179_" class="st21" d="M616.1,358.7h3.9c0.7,0,1.2,0.6,1.2,1.2v1.1h-6.4V360
						C614.8,359.3,615.4,358.7,616.1,358.7z"/>
					<g id="XMLID_176_">
						<path id="XMLID_178_" class="st22" d="M615.2,366c-0.1,0.4-0.4,0.6-0.8,0.6c-0.4-0.1-0.6-0.4-0.6-0.8l1-5.8
							c0.1-0.4,0.4-0.6,0.8-0.6c0.4,0.1,0.6,0.4,0.6,0.8L615.2,366z"/>
						<path id="XMLID_177_" class="st22" d="M620.8,366c0.1,0.4,0.4,0.6,0.8,0.6c0.4-0.1,0.6-0.4,0.6-0.8l-1-5.8
							c-0.1-0.4-0.4-0.6-0.8-0.6c-0.4,0.1-0.6,0.4-0.6,0.8L620.8,366z"/>
					</g>
				</g>
				<g id="XMLID_167_">
					<path id="XMLID_174_" class="st21" d="M606.9,358.2c0.9,0,1.6-0.7,1.6-1.6c0-0.9-0.7-1.6-1.6-1.6c-0.9,0-1.6,0.7-1.6,1.6
						C605.3,357.5,606,358.2,606.9,358.2z"/>
					<path id="XMLID_173_" class="st22" d="M604.5,365.8c0,0.4-0.3,0.7-0.7,0.7c-0.4,0-0.7-0.3-0.7-0.7V360c0-0.4,0.3-0.7,0.7-0.7
						c0.4,0,0.7,0.3,0.7,0.7V365.8z"/>
					<path id="XMLID_172_" class="st22" d="M610.6,365.8c0,0.4-0.3,0.7-0.7,0.7s-0.7-0.3-0.7-0.7V360c0-0.4,0.3-0.7,0.7-0.7
						s0.7,0.3,0.7,0.7V365.8z"/>
					<path id="XMLID_171_" class="st22" d="M606.6,374.1c0,0.6-0.4,1.1-0.9,1.1c-0.5,0-0.9-0.5-0.9-1.1V365c0-0.6,0.4-1.1,0.9-1.1
						c0.5,0,0.9,0.5,0.9,1.1V374.1z"/>
					<path id="XMLID_170_" class="st22" d="M608.8,374.1c0,0.6-0.4,1.1-0.9,1.1c-0.5,0-0.9-0.5-0.9-1.1V365c0-0.6,0.4-1.1,0.9-1.1
						c0.5,0,0.9,0.5,0.9,1.1V374.1z"/>
					<rect id="XMLID_169_" x="604.9" y="360.6" class="st21" width="3.9" height="5.8"/>
					<path id="XMLID_168_" class="st21" d="M604.3,358.7h5c0.7,0,1.2,0.6,1.2,1.2v1.1h-7.5V360C603.1,359.3,603.7,358.7,604.3,358.7
						z"/>
				</g>
			</g>
			<rect id="XMLID_165_" x="612.3" y="355" class="st21" width="0.6" height="20.2"/>
		</g>
	</g>
	<g id="IconBaño_9_">
		<path id="XMLID_209_" class="st19" d="M583.6,167.1h-22.7c-0.5,0-0.9-0.4-0.9-0.9v-22.7c0-0.5,0.4-0.9,0.9-0.9h22.7
			c0.5,0,0.9,0.4,0.9,0.9v22.7C584.5,166.7,584.1,167.1,583.6,167.1z"/>
		<path id="XMLID_208_" class="st20" d="M583.6,142.7c-6.5,0-12.4,2.6-16.7,6.9c-4.3,4.3-6.9,10.2-6.9,16.7v-22.7
			c0-0.5,0.4-0.9,0.9-0.9H583.6z"/>
		<g id="XMLID_187_">
			<g id="XMLID_189_">
				<g id="XMLID_198_">
					<path id="XMLID_207_" class="st21" d="M577.6,148c0.9,0,1.6-0.7,1.6-1.6c0-0.9-0.7-1.6-1.6-1.6s-1.6,0.7-1.6,1.6
						C576,147.3,576.7,148,577.6,148z"/>
					<g id="XMLID_204_">
						<path id="XMLID_206_" class="st22" d="M577.4,163.9c0,0.6-0.4,1.1-0.9,1.1c-0.5,0-0.9-0.5-0.9-1.1v-9.1c0-0.6,0.4-1.1,0.9-1.1
							c0.5,0,0.9,0.5,0.9,1.1V163.9z"/>
						<path id="XMLID_205_" class="st22" d="M579.6,163.9c0,0.6-0.4,1.1-0.9,1.1c-0.5,0-0.9-0.5-0.9-1.1v-9.1c0-0.6,0.4-1.1,0.9-1.1
							c0.5,0,0.9,0.5,0.9,1.1V163.9z"/>
					</g>
					<polygon id="XMLID_203_" class="st21" points="575,157.7 580.3,157.7 579,149.4 576.3,149.4 					"/>
					<path id="XMLID_202_" class="st21" d="M575.6,148.5h3.9c0.7,0,1.2,0.6,1.2,1.2v1.1h-6.4v-1.1
						C574.4,149.1,575,148.5,575.6,148.5z"/>
					<g id="XMLID_199_">
						<path id="XMLID_201_" class="st22" d="M574.8,155.8c-0.1,0.4-0.4,0.6-0.8,0.6c-0.4-0.1-0.6-0.4-0.6-0.8l1-5.8
							c0.1-0.4,0.4-0.6,0.8-0.6c0.4,0.1,0.6,0.4,0.6,0.8L574.8,155.8z"/>
						<path id="XMLID_200_" class="st22" d="M580.4,155.8c0.1,0.4,0.4,0.6,0.8,0.6c0.4-0.1,0.6-0.4,0.6-0.8l-1-5.8
							c-0.1-0.4-0.4-0.6-0.8-0.6c-0.4,0.1-0.6,0.4-0.6,0.8L580.4,155.8z"/>
					</g>
				</g>
				<g id="XMLID_190_">
					<path id="XMLID_197_" class="st21" d="M566.5,148c0.9,0,1.6-0.7,1.6-1.6c0-0.9-0.7-1.6-1.6-1.6c-0.9,0-1.6,0.7-1.6,1.6
						C564.9,147.3,565.6,148,566.5,148z"/>
					<path id="XMLID_196_" class="st22" d="M564.1,155.6c0,0.4-0.3,0.7-0.7,0.7c-0.4,0-0.7-0.3-0.7-0.7v-5.9c0-0.4,0.3-0.7,0.7-0.7
						c0.4,0,0.7,0.3,0.7,0.7V155.6z"/>
					<path id="XMLID_195_" class="st22" d="M570.2,155.6c0,0.4-0.3,0.7-0.7,0.7s-0.7-0.3-0.7-0.7v-5.9c0-0.4,0.3-0.7,0.7-0.7
						s0.7,0.3,0.7,0.7V155.6z"/>
					<path id="XMLID_194_" class="st22" d="M566.2,163.9c0,0.6-0.4,1.1-0.9,1.1c-0.5,0-0.9-0.5-0.9-1.1v-9.1c0-0.6,0.4-1.1,0.9-1.1
						c0.5,0,0.9,0.5,0.9,1.1V163.9z"/>
					<path id="XMLID_193_" class="st22" d="M568.4,163.9c0,0.6-0.4,1.1-0.9,1.1c-0.5,0-0.9-0.5-0.9-1.1v-9.1c0-0.6,0.4-1.1,0.9-1.1
						c0.5,0,0.9,0.5,0.9,1.1V163.9z"/>
					<rect id="XMLID_192_" x="564.5" y="150.4" class="st21" width="3.9" height="5.8"/>
					<path id="XMLID_191_" class="st21" d="M563.9,148.5h5c0.7,0,1.2,0.6,1.2,1.2v1.1h-7.5v-1.1
						C562.7,149.1,563.3,148.5,563.9,148.5z"/>
				</g>
			</g>
			<rect id="XMLID_188_" x="571.9" y="144.8" class="st21" width="0.6" height="20.2"/>
		</g>
	</g>
	<g id="IconBaño_10_">
		<path id="XMLID_232_" class="st19" d="M376.6,189.4h-22.7c-0.5,0-0.9-0.4-0.9-0.9v-22.7c0-0.5,0.4-0.9,0.9-0.9h22.7
			c0.5,0,0.9,0.4,0.9,0.9v22.7C377.5,189,377.1,189.4,376.6,189.4z"/>
		<path id="XMLID_231_" class="st20" d="M376.6,165c-6.5,0-12.4,2.6-16.7,6.9c-4.3,4.3-6.9,10.2-6.9,16.7v-22.7
			c0-0.5,0.4-0.9,0.9-0.9H376.6z"/>
		<g id="XMLID_210_">
			<g id="XMLID_212_">
				<g id="XMLID_221_">
					<path id="XMLID_230_" class="st21" d="M370.6,170.3c0.9,0,1.6-0.7,1.6-1.6c0-0.9-0.7-1.6-1.6-1.6c-0.9,0-1.6,0.7-1.6,1.6
						C369,169.6,369.7,170.3,370.6,170.3z"/>
					<g id="XMLID_227_">
						<path id="XMLID_229_" class="st22" d="M370.4,186.2c0,0.6-0.4,1.1-0.9,1.1c-0.5,0-0.9-0.5-0.9-1.1v-9.1c0-0.6,0.4-1.1,0.9-1.1
							c0.5,0,0.9,0.5,0.9,1.1V186.2z"/>
						<path id="XMLID_228_" class="st22" d="M372.6,186.2c0,0.6-0.4,1.1-0.9,1.1s-0.9-0.5-0.9-1.1v-9.1c0-0.6,0.4-1.1,0.9-1.1
							s0.9,0.5,0.9,1.1V186.2z"/>
					</g>
					<polygon id="XMLID_226_" class="st21" points="367.9,180 373.3,180 372,171.7 369.3,171.7 					"/>
					<path id="XMLID_225_" class="st21" d="M368.6,170.9h3.9c0.7,0,1.2,0.6,1.2,1.2v1.1h-6.4v-1.1
						C367.4,171.4,368,170.9,368.6,170.9z"/>
					<g id="XMLID_222_">
						<path id="XMLID_224_" class="st22" d="M367.8,178.1c-0.1,0.4-0.4,0.6-0.8,0.6c-0.4-0.1-0.6-0.4-0.6-0.8l1-5.8
							c0.1-0.4,0.4-0.6,0.8-0.6c0.4,0.1,0.6,0.4,0.6,0.8L367.8,178.1z"/>
						<path id="XMLID_223_" class="st22" d="M373.4,178.1c0.1,0.4,0.4,0.6,0.8,0.6c0.4-0.1,0.6-0.4,0.6-0.8l-1-5.8
							c-0.1-0.4-0.4-0.6-0.8-0.6c-0.4,0.1-0.6,0.4-0.6,0.8L373.4,178.1z"/>
					</g>
				</g>
				<g id="XMLID_213_">
					<path id="XMLID_220_" class="st21" d="M359.5,170.3c0.9,0,1.6-0.7,1.6-1.6c0-0.9-0.7-1.6-1.6-1.6c-0.9,0-1.6,0.7-1.6,1.6
						C357.9,169.6,358.6,170.3,359.5,170.3z"/>
					<path id="XMLID_219_" class="st22" d="M357.1,178c0,0.4-0.3,0.7-0.7,0.7c-0.4,0-0.7-0.3-0.7-0.7v-5.9c0-0.4,0.3-0.7,0.7-0.7
						c0.4,0,0.7,0.3,0.7,0.7V178z"/>
					<path id="XMLID_218_" class="st22" d="M363.2,178c0,0.4-0.3,0.7-0.7,0.7c-0.4,0-0.7-0.3-0.7-0.7v-5.9c0-0.4,0.3-0.7,0.7-0.7
						c0.4,0,0.7,0.3,0.7,0.7V178z"/>
					<path id="XMLID_217_" class="st22" d="M359.2,186.2c0,0.6-0.4,1.1-0.9,1.1c-0.5,0-0.9-0.5-0.9-1.1v-9.1c0-0.6,0.4-1.1,0.9-1.1
						c0.5,0,0.9,0.5,0.9,1.1V186.2z"/>
					<path id="XMLID_216_" class="st22" d="M361.4,186.2c0,0.6-0.4,1.1-0.9,1.1c-0.5,0-0.9-0.5-0.9-1.1v-9.1c0-0.6,0.4-1.1,0.9-1.1
						c0.5,0,0.9,0.5,0.9,1.1V186.2z"/>
					<rect id="XMLID_215_" x="357.5" y="172.7" class="st21" width="3.9" height="5.8"/>
					<path id="XMLID_214_" class="st21" d="M356.9,170.9h5c0.7,0,1.2,0.6,1.2,1.2v1.1h-7.5v-1.1
						C355.7,171.4,356.2,170.9,356.9,170.9z"/>
				</g>
			</g>
			<rect id="XMLID_211_" x="364.9" y="167.1" class="st21" width="0.6" height="20.2"/>
		</g>
	</g>
	<g id="IconBaño_11_">
		<path id="XMLID_255_" class="st19" d="M81.9,422.1H59.3c-0.5,0-0.9-0.4-0.9-0.9v-22.7c0-0.5,0.4-0.9,0.9-0.9h22.7
			c0.5,0,0.9,0.4,0.9,0.9v22.7C82.8,421.7,82.4,422.1,81.9,422.1z"/>
		<path id="XMLID_254_" class="st20" d="M81.9,397.6c-6.5,0-12.4,2.6-16.7,6.9c-4.3,4.3-6.9,10.2-6.9,16.7v-22.7
			c0-0.5,0.4-0.9,0.9-0.9H81.9z"/>
		<g id="XMLID_233_">
			<g id="XMLID_235_">
				<g id="XMLID_244_">
					<path id="XMLID_253_" class="st21" d="M76,403c0.9,0,1.6-0.7,1.6-1.6c0-0.9-0.7-1.6-1.6-1.6s-1.6,0.7-1.6,1.6
						C74.4,402.3,75.1,403,76,403z"/>
					<g id="XMLID_250_">
						<path id="XMLID_252_" class="st22" d="M75.8,418.9c0,0.6-0.4,1.1-0.9,1.1c-0.5,0-0.9-0.5-0.9-1.1v-9.1c0-0.6,0.4-1.1,0.9-1.1
							c0.5,0,0.9,0.5,0.9,1.1V418.9z"/>
						<path id="XMLID_251_" class="st22" d="M77.9,418.9c0,0.6-0.4,1.1-0.9,1.1c-0.5,0-0.9-0.5-0.9-1.1v-9.1c0-0.6,0.4-1.1,0.9-1.1
							c0.5,0,0.9,0.5,0.9,1.1V418.9z"/>
					</g>
					<polygon id="XMLID_249_" class="st21" points="73.3,412.7 78.6,412.7 77.3,404.4 74.6,404.4 					"/>
					<path id="XMLID_248_" class="st21" d="M74,403.5h3.9c0.7,0,1.2,0.6,1.2,1.2v1.1h-6.4v-1.1C72.8,404.1,73.3,403.5,74,403.5z"/>
					<g id="XMLID_245_">
						<path id="XMLID_247_" class="st22" d="M73.2,410.7c-0.1,0.4-0.4,0.6-0.8,0.6c-0.4-0.1-0.6-0.4-0.6-0.8l1-5.8
							c0.1-0.4,0.4-0.6,0.8-0.6c0.4,0.1,0.6,0.4,0.6,0.8L73.2,410.7z"/>
						<path id="XMLID_246_" class="st22" d="M78.7,410.7c0.1,0.4,0.4,0.6,0.8,0.6c0.4-0.1,0.6-0.4,0.6-0.8l-1-5.8
							c-0.1-0.4-0.4-0.6-0.8-0.6c-0.4,0.1-0.6,0.4-0.6,0.8L78.7,410.7z"/>
					</g>
				</g>
				<g id="XMLID_236_">
					<path id="XMLID_243_" class="st21" d="M64.9,403c0.9,0,1.6-0.7,1.6-1.6c0-0.9-0.7-1.6-1.6-1.6c-0.9,0-1.6,0.7-1.6,1.6
						C63.3,402.3,64,403,64.9,403z"/>
					<path id="XMLID_242_" class="st22" d="M62.5,410.6c0,0.4-0.3,0.7-0.7,0.7c-0.4,0-0.7-0.3-0.7-0.7v-5.9c0-0.4,0.3-0.7,0.7-0.7
						c0.4,0,0.7,0.3,0.7,0.7V410.6z"/>
					<path id="XMLID_241_" class="st22" d="M68.5,410.6c0,0.4-0.3,0.7-0.7,0.7c-0.4,0-0.7-0.3-0.7-0.7v-5.9c0-0.4,0.3-0.7,0.7-0.7
						c0.4,0,0.7,0.3,0.7,0.7V410.6z"/>
					<path id="XMLID_240_" class="st22" d="M64.6,418.9c0,0.6-0.4,1.1-0.9,1.1s-0.9-0.5-0.9-1.1v-9.1c0-0.6,0.4-1.1,0.9-1.1
						s0.9,0.5,0.9,1.1V418.9z"/>
					<path id="XMLID_239_" class="st22" d="M66.8,418.9c0,0.6-0.4,1.1-0.9,1.1c-0.5,0-0.9-0.5-0.9-1.1v-9.1c0-0.6,0.4-1.1,0.9-1.1
						c0.5,0,0.9,0.5,0.9,1.1V418.9z"/>
					<rect id="XMLID_238_" x="62.8" y="405.4" class="st21" width="3.9" height="5.8"/>
					<path id="XMLID_237_" class="st21" d="M62.3,403.5h5c0.7,0,1.2,0.6,1.2,1.2v1.1h-7.5v-1.1C61.1,404.1,61.6,403.5,62.3,403.5z"
						/>
				</g>
			</g>
			<rect id="XMLID_234_" x="70.3" y="399.8" class="st21" width="0.6" height="20.2"/>
		</g>
	</g>
</g>
<g>
	<path class="st23" d="M1686.3,413.9H1666c-1.3,0-2.3-1-2.3-2.3v-20.4c0-1.3,1-2.3,2.3-2.3h20.4c1.3,0,2.3,1,2.3,2.3v20.4
		C1688.6,412.8,1687.6,413.9,1686.3,413.9z"/>
	<path class="st11" d="M1677.1,399.1c0.6,0.7,1.3,1.4,1.9,2c0.3,0.3,0.5,0.6,0.8,0.9c0.4,0.4,0.9,0.4,1.3,0.2
		c0.4-0.3,0.5-0.8,0.3-1.2c-0.2-0.4-0.7-0.6-1.2-0.5c-0.1,0-0.2,0.1-0.3,0.1c-0.1,0-0.3,0-0.4-0.1c-0.2-0.2-0.4-0.4-0.5-0.6
		c-0.2-0.2-0.1-0.4,0.1-0.5c0.8-0.5,1.8-0.6,2.7,0c0.8,0.5,1.2,1.5,1,2.5c-0.2,0.9-1,1.7-1.9,1.8c-0.8,0.1-1.5-0.1-2-0.6
		c-1.1-1.1-2.1-2.2-3.2-3.4c-0.2-0.3-0.3-0.6-0.1-0.9c0.9-1.7,2.4-2.8,4.4-3c2.8-0.3,5.5,1.6,6,4.5c0.6,3-1.5,6-4.5,6.5
		c-1.3,0.2-2.5,0-3.7-0.6c-0.4-0.2-0.4-0.3-0.2-0.7c0.1-0.1,0.2-0.3,0.3-0.4c0.2-0.3,0.3-0.3,0.6-0.2c1.4,0.7,2.7,0.7,4-0.1
		c1.5-0.9,2.3-2.6,2-4.3c-0.3-1.7-1.7-3.1-3.4-3.3C1679.6,397,1677.9,397.8,1677.1,399.1z"/>
	<path class="st11" d="M1675.2,403.7c-1-1-1.9-2-2.8-3c-0.3-0.3-0.8-0.3-1.2-0.1c-0.4,0.3-0.5,0.7-0.3,1.2c0.2,0.4,0.6,0.6,1.1,0.6
		c0,0,0.1,0,0.1,0c0.2,0,0.4-0.2,0.5-0.1c0.3,0.2,0.5,0.5,0.7,0.7c0.1,0.1,0,0.3-0.1,0.4c-1.1,0.7-2.4,0.5-3.3-0.5
		c-0.8-1-0.7-2.4,0.3-3.2c0.9-0.9,2.4-0.8,3.2,0.1c1.1,1.1,2.1,2.2,3.2,3.4c0.3,0.3,0.3,0.6,0.1,0.9c-1.1,2-3.3,3.2-5.5,2.9
		c-2.3-0.3-4.2-1.9-4.7-4.1c-0.5-2.3,0.1-4.3,2-5.7c1.8-1.4,3.9-1.6,6-0.6c0.1,0,0.2,0.1,0.3,0.1c0.2,0.1,0.2,0.3,0.1,0.5
		c-0.1,0.2-0.3,0.4-0.4,0.6c-0.2,0.2-0.3,0.2-0.5,0c-1-0.5-2.1-0.7-3.2-0.3c-1.9,0.6-3.2,2.5-2.9,4.4c0.3,2.1,1.9,3.6,4,3.7
		C1673.1,405.6,1674.2,404.9,1675.2,403.7z"/>
</g>
<g>
	<path class="st24" d="M1686.3,385.3H1666c-1.3,0-2.3-1-2.3-2.3v-20.4c0-1.3,1-2.3,2.3-2.3h20.4c1.3,0,2.3,1,2.3,2.3V383
		C1688.6,384.2,1687.6,385.3,1686.3,385.3z"/>
	<g>
		<path class="st11" d="M1686.3,371.7c0,0.1-0.1,0.2-0.1,0.2c-0.1,0.1-0.2,0.2-0.4,0.2c-0.2,0-0.5,0-0.7,0c0-1.3,0-2.5,0-3.8
			c0.3,0,0.5,0,0.7,0c0.3,0,0.4,0.2,0.5,0.5C1686.3,369.8,1686.3,370.7,1686.3,371.7z"/>
		<path class="st11" d="M1666,368.8c0.2-0.6,0.8-0.5,1.3-0.5c0,1.3,0,2.5,0,3.8c-0.3,0-0.5,0-0.8,0c-0.3,0-0.4-0.2-0.5-0.5
			C1666,370.7,1666,369.7,1666,368.8z"/>
		<path class="st11" d="M1682.5,379.8c0,0.4,0,0.8,0,1.2c0,0.3-0.1,0.6-0.2,0.8c-0.2,0.3-0.5,0.5-0.9,0.5c-0.5,0-1,0-1.5,0
			c-0.6,0-1.1-0.6-1.1-1.3c0-0.4,0-0.7,0-1.1c0-0.1,0-0.1,0-0.2c-1.7,0-3.4,0-5.1,0c0,0.1,0,0.1,0,0.2c0,0.3,0,0.7,0,1
			c0,0.8-0.6,1.4-1.3,1.3c-0.4,0-0.8,0-1.2,0c-0.8,0-1.3-0.5-1.3-1.3c0-0.4,0-0.8,0-1.2c-0.2-0.1-0.4-0.1-0.5-0.2
			c-0.5-0.2-0.7-0.6-0.7-1.1c0-0.1,0-0.1,0-0.2c0-3.7,0-7.5,0-11.2c0-0.6,0.1-1.3,0.4-1.9c0.7-1.3,1.8-2,3.2-2.1c1.4,0,2.8,0,4.1,0
			c1.2,0,2.4,0,3.6,0c0.7,0,1.3,0.1,1.8,0.4c0.7,0.4,1.2,0.9,1.5,1.5c0.3,0.6,0.5,1.2,0.5,1.9c0,3.8,0,7.5,0,11.3
			c0,0.7-0.3,1.1-0.9,1.3C1682.8,379.7,1682.6,379.8,1682.5,379.8z M1669.8,367c0,2.6,0,5.1,0,7.6c4.3,0,8.5,0,12.7,0
			c0-2.6,0-5.1,0-7.6C1678.3,367,1674,367,1669.8,367z M1678.7,365.8c0-0.4,0-0.8,0-1.3c-1.7,0-3.4,0-5.1,0c0,0.4,0,0.8,0,1.3
			C1675.3,365.8,1677,365.8,1678.7,365.8z M1669.8,377.3c0,0.7,0.6,1.3,1.3,1.2c0.7,0,1.3-0.6,1.2-1.3c0-0.7-0.6-1.2-1.3-1.2
			C1670.3,376,1669.7,376.6,1669.8,377.3z M1681.2,378.5c0.7,0,1.3-0.5,1.3-1.3c0-0.7-0.5-1.3-1.3-1.3c-0.7,0-1.3,0.5-1.3,1.2
			C1679.9,377.9,1680.5,378.5,1681.2,378.5z"/>
	</g>
</g>
<polyline id="Reja" class="st25" points="9.5,610.7 1262.8,610.7 1282.4,670 1562.2,670 1574.4,657.7 1574.4,586.7 1578.3,586.7 
	1655.4,509.6 1655.4,84.8 92.2,84.8 92.2,30.3 "/>
<image style="display:none;overflow:visible;" width="1887" height="653" xlink:href="8BB8BAE.jpg"  transform="matrix(1.0175 0 0 1.0175 0 21.5135)">
</image>
<line class="st26" x1="1723.6" y1="49" x2="1723.6" y2="681.2"/>
<line class="st26" x1="1782.8" y1="49" x2="1782.8" y2="681.2"/>
<path class="st2" d="M1905.3,610.7c0,46-70.5,47-70.5,0V30.3h70.5V610.7z"/>
</svg>
