<?xml version="1.0" encoding="utf-8"?>
<!-- Generator: Adobe Illustrator 23.0.5, SVG Export Plug-In . SVG Version: 6.00 Build 0)  -->
<svg version="1.1" xmlns="http://www.w3.org/2000/svg" xmlns:xlink="http://www.w3.org/1999/xlink" x="0px" y="0px"
	 viewBox="0 0 707.5 1920" style="enable-background:new 0 0 707.5 1920;" xml:space="preserve">
<style type="text/css">
	.st0{display:none;}
	.st1{display:inline;fill:#606060;}
	.st2{display:inline;fill:#C6B0A4;stroke:#998276;stroke-width:3;stroke-miterlimit:10;}
	.st3{display:inline;fill:#52A346;stroke:#3C7233;stroke-width:3;stroke-miterlimit:10;}
	.st4{display:inline;}
	.st5{fill:#77BC9C;stroke:#577759;stroke-width:4;stroke-linejoin:round;stroke-miterlimit:10;}
	.st6{fill:#A4C5E2;}
	.st7{display:inline;fill:#898989;stroke:#565656;stroke-width:3;stroke-miterlimit:10;}
	.st8{fill:#EAD0AC;stroke:#A8957E;stroke-width:2;stroke-linejoin:round;stroke-miterlimit:10;}
	.st9{fill:none;stroke:#FFFFFF;stroke-width:2.5549;stroke-miterlimit:10;}
	.st10{fill:none;stroke:#FFFFFF;stroke-width:1.9162;stroke-miterlimit:10;}
	.st11{fill:none;stroke:#FFFFFF;stroke-width:0.9785;stroke-miterlimit:10;}
	.st12{fill:none;}
	.st13{fill:#FFFFFF;}
	.st14{fill:#77BC9C;stroke:#577759;stroke-width:4;stroke-linecap:round;stroke-linejoin:round;stroke-miterlimit:10;}
	.st15{fill:#BD5614;}
	.st16{opacity:0.1;fill:#EDEDED;}
	.st17{fill-rule:evenodd;clip-rule:evenodd;fill:#FAFAFA;}
	.st18{fill:#FAFAFA;}
	.st19{fill:#1A5FA9;}
	.st20{fill:#E0AD1E;}
	.st21{display:inline;fill:none;stroke:#000000;stroke-width:5;stroke-linejoin:round;stroke-miterlimit:10;}
	
		.st22{display:inline;fill:none;stroke:#FFFFFF;stroke-width:8;stroke-linecap:round;stroke-linejoin:round;stroke-miterlimit:10;stroke-dasharray:40;}
	.st23{fill:#606060;}
	.st24{fill:#C6B0A4;stroke:#998276;stroke-width:3;stroke-miterlimit:10;}
	.st25{fill:#52A346;stroke:#3C7233;stroke-width:3;stroke-miterlimit:10;}
	.st26{fill:#898989;stroke:#565656;stroke-width:3;stroke-miterlimit:10;}
	.st27{fill:none;stroke:#000000;stroke-width:5;stroke-linejoin:round;stroke-miterlimit:10;}
	
		.st28{fill:none;stroke:#FFFFFF;stroke-width:8;stroke-linecap:round;stroke-linejoin:round;stroke-miterlimit:10;stroke-dasharray:40;}
</style>
<g id="Capa_1" class="st0">
	<g id="Edificios" class="st4">
	</g>
</g>
<g id="Capa_1_copia">
	<g id="Edificios_copia">
	</g>
	<g>
		
			<rect id="Asfalto_1_" x="-586.2" y="633.2" transform="matrix(-1.346907e-10 1 -1 -1.346907e-10 1319.1384 595.7126)" class="st23" width="1895.8" height="648.4"/>
		<polygon id="Suelo_1_" class="st24" points="115.1,1275.2 115.1,684.9 207.7,684.9 207.7,420.4 121.7,420.4 121.7,104.8 
			222.7,104.8 222.7,291.7 235.6,291.7 235.6,257.7 259.1,257.7 300.5,196.7 378.3,223 378.3,233.5 377.9,369.9 272,369.9 
			273.7,367.3 264.6,367.3 252.3,381.4 252.3,424.1 274.4,424.1 274.4,525.6 249.9,525.6 249.9,584.8 264.6,584.8 265.4,651.2 
			253.5,651.2 253.5,752.3 243.4,752.3 243.4,747.2 214.3,747.2 214.3,761 231.9,761 231.9,850.7 180.6,850.7 180.6,821.8 
			166.9,821.8 166.9,871 180.6,871 180.6,862.3 243.4,862.3 243.4,850.7 353.7,850.7 353.7,931.6 182.8,931.6 182.8,911.9 
			160.8,911.9 160.8,1293.1 107.2,1395 107.2,1533.3 96.7,1544.8 96.7,1585.2 622.7,1585.2 622.7,9.5 96.7,9.5 96.7,1302.4 		"/>
		<polygon id="Estacionamiento_1_" class="st23" points="198,1655.4 622.7,1655.4 622.7,1585.2 200.9,1585.2 201.2,1578.5 
			154.8,1570.1 111.5,1583.1 187.9,1656.8 		"/>
		<path id="Cesped_1_" class="st25" d="M437.6,1564l-3.3-174.4l-11.2-73.5l85-7.1l10-46.5v-191.2l-6.3-46.2h-11.1l-13.8-23.5
			l52.6-16.6l-5.1-210.6h88.3v-53.9h-27.8L528,689L528,415.6l24.6-2l-1.9-195.6l-44.9-1l-2.6-44.4h-53.4
			c1.8,46.5-18.8,62.8-18.8,62.8h-41.4l-2,134.6h-118l-14.8,16.1l3.1,29h18v116.3h-16.5l-0.8,41L372,636.1l-2,302.6L166.9,941
			l4.4,355.8l-54.4,104.5v183.8h317.9h2.8V1564z M450.4,1048.2v-19.5l42.2,2.7v-3.9h14.1v20.7H450.4z M263.4,1400.3v-11h30.1v11
			H263.4z"/>
		<path id="Caminos_1_" class="st26" d="M444.5,1479H297.4l-44.4,15.8h-34.7v-31.7h226.2V1479z M229.5,1689.6h-35l-36.8-53.1h-61
			v-91.7l10.5-11.5V1395l53.6-101.9V911.9h22v19.7h171V753.1h-91.3v-42.6H280v16.1h83.7V642h-14.3v-23h28.1v-72.5h-88.9v-11.7h89.6
			V233.5h100.6l-33.7-33.7l5.7-5.7l38.7,38.7h10.5V58.4h11v34h22v-7.9h64.3v-14h25.3v8.4h-9.2l-2.6,2.6v153.2h-63.6V222h-37v24.5
			H393.9v242H445v-13h29.6v38.6h-29.4v-11h-51.6v51.1h127.7V418.4h-12.8v-16.1h42.1v15.8h-16.1v147.8h16.1v153.7h-15.8V747h-18.6
			V775l15.6,10.5v10.7l-18.4-12h-12L489.2,797v-12.8l11.2-8.9V747H381.2v139.9h125.6l-0.3-42.4l13.5-1.3v107.5h-12.8v-39.1H433v0.8
			v135.8h73.8v-20.7h-12.5v-28.3h11.5v18.1h13v-18.9h10v31.1H518v41.6h-85v154c8.9-10.8,29.9-1.1,29.9-1.1s28.9,0.3,34.2,0
			s16.6,1,18.9,8.7c2.3,7.7,11.7,7.7,11.7,7.7H540v7.7h-38.8c-5.9,1.5-6.6,8.4-6.6,8.4v24.3c8.7,14.8-2.6,24.3-2.6,24.3h14.6v15.8
			h-73.8v43.9h7.1v40.6h-6.4v-9.2h-17.9v-7.4h-60.5v14.6h-9.7v-5.4v-9.2h-43.7v14.6h-8.2v-14h-30.1v24h-42.1v-14.6h6.4v-138.9h-6.9
			l-33.2,32.2h-10.2v8.2l-56.2,101.1v143.5h140.9l-1.5,14.6H120.7v18.9l77.1,77.1h31.7V1689.6z M599.7,219.2v-7.1v-2.6v-52.9H532
			v-7.4h-21.4v7.4v2.3v53.1h44.6v7.1H599.7z M520.2,729.9V572.2h-126v72.5H380v85.1h14.3h5.8H520.2z M415.4,1249.4h-60.3v10.8
			l-9.7-1.4v-9.4H303l-53.6,10.5h-9.2v114.6h9.4v-10.5h46.7v10.5h5.4h43.7v-10.5h9.7v10.5h60.3V1249.4z M433.2,1305.2h29.3
			c-1.2-18.5-11.1-27.5-29.3-27.4V1305.2z M485.9,1284.6c-2.4,0-4.3,2.7-4.3,6.1s1.9,6.1,4.3,6.1s4.3-2.7,4.3-6.1
			S488.3,1284.6,485.9,1284.6z M478.2,1249.4c-6.2,7.6-11.3,17.6-15.7,29.5c5.9,5.5,9,13.9,8.5,26.2h5.6l-0.5-6.1
			c-3.1-6.4-2.2-12.2,1-17.7c4.4-3.3,8.5-6.6,8.8-10.2v-17C485,1250.2,482.3,1248.8,478.2,1249.4z M464,1239.8
			c-2.9,10.9-19.6,20.8-30.8,9.6v18.8c9.5,0.1,16.7,1.3,19.7,4.8c6.4-12.4,14.5-26.3,19.9-30.6
			C473.9,1237.7,470.4,1234.8,464,1239.8z M497.2,1230.8c-4.8,0-8.8,2-8.8,4.5s3.9,4.5,8.8,4.5s8.8-2,8.8-4.5
			S502,1230.8,497.2,1230.8z M448.1,1227.2c-4.2,0-7.6,3.4-7.6,7.6s3.4,7.6,7.6,7.6c4.2,0,7.6-3.4,7.6-7.6
			S452.3,1227.2,448.1,1227.2z M302,1073.3v27h7.5v23.1H302v89.5l20.9,20.7h92.4v-160.3H302z M178.7,1020l52.3,30.3h14.8v-16.1h22.7
			v15.1h146.8V911.6h-34v35.7H178.7V1020z M227.7,1132.7v-71l-49-29.7v55.2l26,27.3v18.1H227.7z M186.3,1280.3l39.8-39.8l1-68.1
			h-21.4v15.7l-26.6,26.6v65.7H186.3z M180.6,862.3h62.8V747.2h-29.1V761h17.5v89.7h-51.2v-28.9h-13.8V871h13.8V862.3z M264.6,547.4
			h15.7V528v-2.4V401h-5.8v2.7h-16.2v-18.6h6.3h9.2v-17.9h-9.2l-12.3,14.1v3.7v18.6v1.7v18.7h22.1v101.4h-9.9h-12.3h-2.4v59.2h14.6
			V547.4z M235.6,291.7h-12.9V73.9L172,35V9.5h7.1v21.8l43.6,30h2v-8.2h10.9V9.5h47v43.6h-4.1v24.5h-24.2v17.7H270v144.3l-10.9,18
			h-23.5V291.7z M248.2,77.6h-12.6v17.7h12.6V77.6z M353.7,1689.6h17.4v-16.4h144.3v-16.3H265.9v16.3v9.9h10.9l13.3-9.9h44.6
			L353.7,1689.6z M65.6,1541.8l-9.2-6.1v-167l58.7-93.4V680.8H96.7v582l-59.2,19.6v279.8l12.3,12.3h15.8V1541.8z"/>
		<g id="PC_1_">
			
				<rect id="Zona_PC_1_" x="181.2" y="1105.6" transform="matrix(-1.346836e-10 1 -1 -1.346836e-10 1411.6825 880.8707)" class="st12" width="168.5" height="81.4"/>
			<g>
				<path class="st13" d="M257.6,1138.8c1.6,0.7,2.9,1.8,3.8,3.2c0.9,1.4,1.3,3,1.3,4.9c0,1.8-0.4,3.5-1.3,4.8
					c-0.9,1.4-2.2,2.4-3.8,3.2c-1.6,0.7-3.6,1.1-5.8,1.1h-5.1v6.9h-5.8v-25.2h10.9C254,1137.7,255.9,1138.1,257.6,1138.8z
					 M255.4,1150.1c0.9-0.8,1.4-1.8,1.4-3.2c0-1.4-0.5-2.5-1.4-3.3c-0.9-0.8-2.2-1.1-4-1.1h-4.8v8.7h4.8
					C253.2,1151.2,254.5,1150.8,255.4,1150.1z"/>
				<path class="st13" d="M274.1,1161.7c-2.1-1.1-3.7-2.7-4.9-4.6c-1.2-2-1.8-4.2-1.8-6.7s0.6-4.7,1.8-6.7c1.2-2,2.8-3.5,4.9-4.6
					c2.1-1.1,4.4-1.7,7-1.7c2.2,0,4.2,0.4,5.9,1.2c1.8,0.8,3.2,1.9,4.4,3.3l-3.7,3.5c-1.7-2-3.8-3-6.3-3c-1.6,0-3,0.3-4.2,1
					c-1.2,0.7-2.2,1.6-2.9,2.9s-1,2.6-1,4.2s0.3,3,1,4.2s1.6,2.2,2.9,2.9c1.2,0.7,2.6,1,4.2,1c2.5,0,4.6-1,6.3-3l3.7,3.5
					c-1.2,1.5-2.7,2.6-4.5,3.3c-1.8,0.8-3.8,1.2-5.9,1.2C278.5,1163.3,276.2,1162.8,274.1,1161.7z"/>
			</g>
		</g>
		<g id="EM_1_">
			
				<rect id="Zona_EM_1_" x="441.2" y="481.3" transform="matrix(-1.347102e-10 1 -1 -1.347102e-10 954.9165 35.3388)" class="st12" width="37.1" height="27.6"/>
			<g>
				<path class="st13" d="M455.5,498.5v2.3h-9.8v-12.6h9.5v2.3h-6.6v2.7h5.9v2.3h-5.9v2.9H455.5z"/>
				<path class="st13" d="M470.2,500.8l0-7.6l-3.7,6.2h-1.3l-3.7-6.1v7.4h-2.7v-12.6h2.4l4.7,7.8l4.6-7.8h2.4l0,12.6H470.2z"/>
			</g>
		</g>
		<g id="Z_1_">
			<path id="Edif_Z_1_" class="st14" d="M297.6,205.9h0.3v17h112v-30.3c10.9-7.7,16-19.3,15-35.1h-8.5v6.5h-6.5V85.5L431,62.3h-8.5
				l-12.6-12.6V23.8h-112v29.3h-19.7v43.2H272v109.6v33L297.6,205.9z"/>
			<g>
				<path class="st13" d="M318,103c0.2-3,1.1-6.4,3-9.6c0.7-1.2,1.8-2.3,2.8-3.4c7.2-8,14.4-16.1,21.6-24.1c1.5-1.7,3.1-3.4,4.6-5.1
					c0.9-1,1.9-1.3,3.1-1c11.3,2.5,22.7,5.1,34,7.6c2.4,0.5,3.2,3,1.6,4.8c-9.6,11-19.1,22.1-28.7,33.1c-0.1,0.2-0.3,0.3-0.4,0.5
					c-0.9,1-2,1.3-3.3,1c-9.3-2.7-18.6-5.4-27.9-8c-2.9-0.8-4.3,0.6-4.7,2.8c-0.4,1.9-0.3,3.8,0.4,5.6c0.7,1.8,1.9,3.1,3.9,3.6
					c10,2.9,20,5.9,30.1,8.9c0.3,0.1,0.5,0.1,0.8-0.2c8.1-9.7,16.2-19.5,24.3-29.2c0.3-0.3,0.3-0.6,0.2-1c-0.6-2.5-0.3-5,0.7-7.3
					c0.6-1.4,2.2-2,3.5-1.5c1.4,0.6,2.1,2.1,1.5,3.6c-0.6,1.5-0.7,3-0.3,4.6c0.1,0.2,0.1,0.5,0.2,0.7c0.5,1.1,0.3,2.1-0.5,3
					c-2.7,3.2-5.3,6.4-7.9,9.6c-6.3,7.5-12.5,15.1-18.8,22.6c-1,1.2-1.9,1.5-3.4,1c-10.8-3.2-21.6-6.4-32.4-9.6
					c-1.5-0.4-2.6-1.4-3.7-2.4C319.4,110.9,318,107.5,318,103z M368.7,81.1c1.2,0,2-0.1,2.6-0.8c0.9-0.9,1.7-1.9,2.5-2.9
					c0.3-0.4,0.2-0.9-0.2-1.2c-0.3-0.2-0.6-0.3-0.9-0.4c-1.7-0.4-3.3-0.8-5-1.2c-5.1-1.2-10.2-2.5-15.4-3.7
					c-1.1-0.3-2.3-0.2-3.1,0.7c-0.8,0.8-1.5,1.8-2.3,2.7c-0.4,0.5-0.3,1.1,0.3,1.4c0.3,0.2,0.6,0.3,1,0.4c6.1,1.5,12.1,3,18.2,4.5
					C367.1,80.7,368.1,80.9,368.7,81.1z"/>
				<g>
					<path class="st13" d="M364.2,170.7v4.8h-22v-3.8L356,155h-13.5v-4.8h21.2v3.8l-13.8,16.7H364.2z"/>
				</g>
			</g>
		</g>
		
			<rect id="ConexEdifJ_1_" x="478.9" y="950.6" transform="matrix(-1.346756e-10 1 -1 -1.346756e-10 1483.4271 467.509)" class="st14" width="58.2" height="49.7"/>
		<g id="J1_1_">
			
				<rect id="Edif_J1_1_" x="414.7" y="953.5" transform="matrix(-1.346791e-10 1 -1 -1.346791e-10 1446.1505 512.275)" class="st14" width="104.5" height="51.4"/>
			<g>
				<path class="st13" d="M451.6,990.2c-1.4-0.6-2.6-1.5-3.5-2.7l3.2-3.9c1.4,1.8,2.9,2.8,4.7,2.8c2.4,0,3.6-1.4,3.6-4.2v-12h-8.9
					v-4.7h14.7v16.3c0,3.1-0.8,5.4-2.3,7s-3.8,2.3-6.8,2.3C454.6,991.2,453.1,990.9,451.6,990.2z"/>
				<path class="st13" d="M481.1,965.6v25.2h-5.8v-20.5h-5v-4.7H481.1z"/>
			</g>
		</g>
		<g id="J2_1_">
			
				<rect id="Edif_J2_1_" x="502" y="953" transform="matrix(-1.346791e-10 1 -1 -1.346791e-10 1533.4697 424.9559)" class="st14" width="104.5" height="52.4"/>
			<g>
				<path class="st13" d="M535.4,990.2c-1.4-0.6-2.6-1.5-3.5-2.7l3.2-3.9c1.4,1.8,2.9,2.8,4.7,2.8c2.4,0,3.6-1.4,3.6-4.2v-12h-8.9
					v-4.7h14.7v16.3c0,3.1-0.8,5.4-2.3,7c-1.5,1.5-3.8,2.3-6.8,2.3C538.4,991.2,536.8,990.9,535.4,990.2z"/>
				<path class="st13" d="M574,986v4.8h-19V987l9.7-9.2c1-1,1.7-1.8,2.1-2.5c0.4-0.7,0.5-1.4,0.5-2.1c0-1-0.3-1.8-1-2.3
					c-0.7-0.5-1.7-0.8-3-0.8c-1.1,0-2.1,0.2-3,0.6s-1.6,1-2.2,1.9l-4.2-2.7c1-1.5,2.3-2.6,4.1-3.4c1.7-0.8,3.7-1.2,5.9-1.2
					c1.9,0,3.5,0.3,4.9,0.9s2.5,1.5,3.3,2.6c0.8,1.1,1.2,2.4,1.2,3.9c0,1.4-0.3,2.7-0.9,3.9c-0.6,1.2-1.7,2.6-3.3,4.1l-5.8,5.5H574z
					"/>
			</g>
		</g>
		
			<rect id="ConexEdifK_1_" x="482.4" y="801" transform="matrix(-1.347022e-10 1 -1 -1.347022e-10 1333.8101 312.1048)" class="st14" width="56.9" height="43.9"/>
		<g id="K1_1_">
			
				<rect id="Edif_K1_1_" x="414.3" y="793.9" transform="matrix(-1.346889e-10 1 -1 -1.346889e-10 1286.491 352.6154)" class="st14" width="105.2" height="51.4"/>
			<g>
				<path class="st13" d="M456.6,820.2l-3.4,3.5v6.4h-5.8v-25.2h5.8v11.8l11.2-11.8h6.5l-10.4,11.2l11.1,14h-6.8L456.6,820.2z"/>
				<path class="st13" d="M484.7,804.9v25.2h-5.8v-20.5h-5v-4.7H484.7z"/>
			</g>
		</g>
		<g id="K2_1_">
			
				<rect id="Edif_K2_1_" x="501.7" y="793.3" transform="matrix(-1.346889e-10 1 -1 -1.346889e-10 1373.8101 265.2963)" class="st14" width="105.2" height="52.4"/>
			<g>
				<path class="st13" d="M540.6,820.2l-3.4,3.5v6.4h-5.8v-25.2h5.8v11.8l11.2-11.8h6.5l-10.4,11.2l11.1,14h-6.8L540.6,820.2z"/>
				<path class="st13" d="M577.2,825.3v4.8h-19v-3.8l9.7-9.2c1-1,1.7-1.8,2.1-2.5c0.4-0.7,0.5-1.4,0.5-2.1c0-1-0.3-1.8-1-2.3
					c-0.7-0.5-1.7-0.8-3-0.8c-1.1,0-2.1,0.2-3,0.6c-0.9,0.4-1.6,1-2.2,1.9l-4.2-2.7c1-1.5,2.3-2.6,4.1-3.4c1.7-0.8,3.7-1.2,5.9-1.2
					c1.9,0,3.5,0.3,4.9,0.9c1.4,0.6,2.5,1.5,3.3,2.6c0.8,1.1,1.2,2.4,1.2,3.9c0,1.4-0.3,2.7-0.9,3.9s-1.7,2.6-3.3,4.1l-5.8,5.5
					H577.2z"/>
			</g>
		</g>
		<g id="G_1_">
			<path id="Edif_G_1_" class="st14" d="M525,927c-17.7-18.3-17.7-36.5,0-54.8h73.2V927H525z"/>
			<g>
				<path class="st13" d="M560.2,897.1h5.3v10.2c-1.4,1-3,1.8-4.8,2.4c-1.8,0.6-3.6,0.8-5.4,0.8c-2.6,0-5-0.6-7.1-1.7
					c-2.1-1.1-3.7-2.7-4.9-4.6c-1.2-2-1.8-4.2-1.8-6.7s0.6-4.7,1.8-6.7c1.2-2,2.8-3.5,5-4.6c2.1-1.1,4.5-1.7,7.1-1.7
					c2.2,0,4.2,0.4,6,1.1c1.8,0.7,3.3,1.8,4.5,3.2l-3.7,3.5c-1.8-1.9-4-2.8-6.5-2.8c-1.6,0-3,0.3-4.3,1s-2.2,1.6-2.9,2.8
					c-0.7,1.2-1,2.6-1,4.2c0,1.6,0.3,3,1,4.2c0.7,1.2,1.7,2.2,2.9,2.9c1.2,0.7,2.6,1,4.2,1c1.7,0,3.2-0.4,4.5-1.1V897.1z"/>
			</g>
		</g>
		<g id="W_1_">
			
				<rect id="Edif_W_1_" x="442.1" y="105" transform="matrix(-1.346827e-10 1 -1 -1.346827e-10 606.1505 -359.0442)" class="st14" width="81" height="37.1"/>
			<g>
				<path class="st13" d="M501.8,108.9l-8.2,25.2h-6.3l-5.5-17.1l-5.7,17.1h-6.2l-8.3-25.2h6l5.7,17.7l5.9-17.7h5.4l5.8,17.9
					l5.9-17.9H501.8z"/>
			</g>
		</g>
		
			<rect id="ConexEdifV_1_" x="489.6" y="304.7" transform="matrix(-1.346800e-10 1 -1 -1.346800e-10 857.2144 -196.491)" class="st14" width="74.6" height="51.4"/>
		<g id="V1_1_">
			<polygon id="Edif_V1_1_" class="st14" points="510,421.1 510,231.8 475.6,231.8 464.7,231.8 457.6,231.8 457.6,305.7 
				464.7,312.8 464.7,421.1 			"/>
			<g>
				<path class="st13" d="M494,311.8L483.1,337h-5.8l-10.9-25.2h6.3l7.7,18l7.8-18H494z"/>
				<path class="st13" d="M507.6,311.8V337h-5.8v-20.5h-5v-4.7H507.6z"/>
			</g>
		</g>
		<g id="v2_1_">
			<polygon id="Edif_V2_1_" class="st14" points="598.2,326.4 620.3,326.4 620.3,231.8 598.2,231.8 592.7,231.8 546.1,231.8 
				546.1,421.1 598.2,421.1 			"/>
			<g>
				<path class="st13" d="M576.8,311.8L565.9,337h-5.8l-10.9-25.2h6.3l7.7,18l7.8-18H576.8z"/>
				<path class="st13" d="M598.5,332.2v4.8h-19v-3.8l9.7-9.2c1-1,1.7-1.8,2.1-2.5s0.5-1.4,0.5-2.1c0-1-0.3-1.8-1-2.3
					c-0.7-0.5-1.7-0.8-3-0.8c-1.1,0-2.1,0.2-3,0.6c-0.9,0.4-1.6,1.1-2.2,1.9l-4.2-2.7c1-1.5,2.3-2.6,4.1-3.4
					c1.7-0.8,3.7-1.2,5.9-1.2c1.9,0,3.5,0.3,4.9,0.9c1.4,0.6,2.5,1.5,3.3,2.6c0.8,1.1,1.2,2.4,1.2,3.9c0,1.4-0.3,2.7-0.9,3.9
					s-1.7,2.6-3.3,4.1l-5.8,5.5H598.5z"/>
			</g>
		</g>
		<g id="R_1_">
			
				<rect id="Edif_R_1_" x="280.4" y="427" transform="matrix(-1.346942e-10 1 -1 -1.346942e-10 804.959 134.5729)" class="st14" width="109.6" height="85.4"/>
			<g>
				<path class="st13" d="M340.1,480.3l-4.9-7H335h-5.1v7h-5.8v-25.2H335c2.2,0,4.2,0.4,5.8,1.1s2.9,1.8,3.8,3.2
					c0.9,1.4,1.3,3,1.3,4.9c0,1.9-0.4,3.5-1.3,4.8c-0.9,1.4-2.2,2.4-3.8,3.1l5.7,8.1H340.1z M338.6,461c-0.9-0.8-2.2-1.1-4-1.1h-4.8
					v8.8h4.8c1.8,0,3.1-0.4,4-1.2s1.4-1.8,1.4-3.2C340,462.8,339.5,461.7,338.6,461z"/>
			</g>
		</g>
		<g id="M_1_">
			
				<rect id="Edif_M_1_" x="488.7" y="616.7" transform="matrix(-1.346844e-10 1 -1 -1.346844e-10 1212.7888 71.9346)" class="st14" width="163.4" height="51.4"/>
			<g>
				<path class="st13" d="M578.3,652.9l0-15.1l-7.4,12.5h-2.6l-7.4-12.1v14.8h-5.5v-25.2h4.8l9.4,15.7l9.3-15.7h4.8l0.1,25.2H578.3z
					"/>
			</g>
		</g>
		<g id="Q_1_">
			
				<rect id="Edif_Q_1_" x="364.8" y="638.4" transform="matrix(-1.346889e-10 1 -1 -1.346889e-10 1097.725 244.8707)" class="st14" width="123.2" height="65.7"/>
			<g>
				<path class="st13" d="M440.6,684.5c-0.8,1-1.8,1.8-3,2.3c-1.2,0.5-2.4,0.8-3.8,0.8c-1.9,0-3.6-0.4-5.1-1.2
					c-1.5-0.8-3.2-2.2-5.2-4.3c-2.3-0.3-4.3-1-6.1-2.2s-3.2-2.7-4.2-4.6c-1-1.9-1.5-3.9-1.5-6.2c0-2.5,0.6-4.7,1.8-6.7
					c1.2-2,2.8-3.5,4.9-4.7c2.1-1.1,4.5-1.7,7.1-1.7c2.6,0,5,0.6,7.1,1.7c2.1,1.1,3.7,2.7,4.9,4.7c1.2,2,1.8,4.2,1.8,6.7
					c0,2.9-0.8,5.5-2.5,7.7c-1.6,2.2-3.8,3.7-6.5,4.6c0.6,0.6,1.2,1.1,1.7,1.3c0.6,0.3,1.2,0.4,1.8,0.4c1.6,0,2.9-0.6,4.1-1.9
					L440.6,684.5z M418.7,673.4c0.7,1.2,1.6,2.2,2.8,2.9s2.5,1,4,1c1.5,0,2.8-0.3,4-1c1.2-0.7,2.1-1.6,2.8-2.9c0.7-1.2,1-2.6,1-4.2
					c0-1.6-0.3-3-1-4.2c-0.7-1.2-1.6-2.2-2.8-2.9c-1.2-0.7-2.5-1-4-1c-1.5,0-2.8,0.3-4,1c-1.2,0.7-2.1,1.6-2.8,2.9
					c-0.7,1.2-1,2.6-1,4.2C417.6,670.8,418,672.2,418.7,673.4z"/>
			</g>
		</g>
		<g id="P_1_">
			
				<rect id="Edif_P_1_" x="236.8" y="592.2" transform="matrix(-1.346907e-10 1 -1 -1.346907e-10 945.8846 326.2431)" class="st14" width="146" height="87.8"/>
			<g>
				<path class="st13" d="M315.5,622.5c1.6,0.7,2.9,1.8,3.8,3.2c0.9,1.4,1.3,3,1.3,4.9c0,1.8-0.4,3.5-1.3,4.8
					c-0.9,1.4-2.2,2.4-3.8,3.2s-3.6,1.1-5.8,1.1h-5.1v6.9h-5.8v-25.2h10.9C311.9,621.4,313.8,621.7,315.5,622.5z M313.3,633.7
					c0.9-0.8,1.4-1.8,1.4-3.2c0-1.4-0.5-2.5-1.4-3.3c-0.9-0.8-2.2-1.1-4-1.1h-4.8v8.7h4.8C311.1,634.9,312.4,634.5,313.3,633.7z"/>
			</g>
		</g>
		<g id="TV_1_">
			
				<rect id="Edif_TV_1_" x="305.4" y="684.6" transform="matrix(-1.346924e-10 1 -1 -1.346924e-10 1040.7037 403.6793)" class="st14" width="26.2" height="75.2"/>
			<g>
				<path class="st13" d="M308.9,716.7h-5.2v-3.1h14.2v3.1h-5.2V730h-3.8V716.7z"/>
				<path class="st13" d="M336.5,713.7l-7.1,16.3h-3.7l-7-16.3h4.1l5,11.7l5-11.7H336.5z"/>
			</g>
		</g>
		<g id="S_1_">
			
				<rect id="Edif_S_1_" x="126" y="437.8" transform="matrix(-1.347022e-10 1 -1 -1.347022e-10 645.4697 294.4026)" class="st14" width="99.1" height="64.3"/>
			<g>
				<path class="st13" d="M168.6,480.1c-1.9-0.5-3.4-1.2-4.5-2.1l2-4.4c1.1,0.8,2.4,1.4,3.9,1.9c1.5,0.5,3,0.7,4.5,0.7
					c1.7,0,2.9-0.2,3.7-0.7c0.8-0.5,1.2-1.1,1.2-2c0-0.6-0.2-1.1-0.7-1.5c-0.5-0.4-1.1-0.7-1.8-1c-0.7-0.2-1.7-0.5-3-0.8
					c-1.9-0.5-3.5-0.9-4.7-1.4c-1.2-0.5-2.3-1.2-3.1-2.2c-0.9-1-1.3-2.4-1.3-4c0-1.5,0.4-2.8,1.2-4c0.8-1.2,2-2.1,3.6-2.8
					c1.6-0.7,3.5-1,5.8-1c1.6,0,3.2,0.2,4.7,0.6s2.9,0.9,4,1.7l-1.8,4.4c-2.3-1.3-4.7-2-7-2c-1.6,0-2.8,0.3-3.6,0.8
					c-0.8,0.5-1.2,1.2-1.2,2.1c0,0.9,0.5,1.5,1.4,1.9c0.9,0.4,2.3,0.8,4.1,1.2c1.9,0.5,3.5,0.9,4.7,1.4c1.2,0.5,2.3,1.2,3.1,2.2
					c0.9,1,1.3,2.3,1.3,4c0,1.4-0.4,2.8-1.2,3.9c-0.8,1.2-2,2.1-3.6,2.8c-1.6,0.7-3.6,1-5.9,1C172.4,480.9,170.5,480.6,168.6,480.1z
					"/>
			</g>
		</g>
		<g id="T_1_">
			
				<rect id="Edif_T_1_" x="121.9" y="599.1" transform="matrix(-1.346853e-10 1 -1 -1.346853e-10 806.8314 455.7644)" class="st14" width="107.2" height="64.3"/>
			<g>
				<path class="st13" d="M171.7,621.4h-8.1v-4.8h22v4.8h-8.1v20.4h-5.8V621.4z"/>
			</g>
		</g>
		<g id="O2_1_">
			
				<rect id="Edif_O2_1_" x="222.2" y="773.6" transform="matrix(-1.346915e-10 1 -1 -1.346915e-10 1072.8739 530.1473)" class="st14" width="98.4" height="55.8"/>
			<g>
				<path class="st13" d="M252.1,810.8c-2.1-1.1-3.7-2.7-4.9-4.7c-1.2-2-1.8-4.2-1.8-6.7s0.6-4.7,1.8-6.7c1.2-2,2.8-3.5,4.9-4.7
					c2.1-1.1,4.5-1.7,7.1-1.7s5,0.6,7.1,1.7c2.1,1.1,3.7,2.7,4.9,4.7c1.2,2,1.8,4.2,1.8,6.7s-0.6,4.7-1.8,6.7
					c-1.2,2-2.8,3.5-4.9,4.7s-4.4,1.7-7.1,1.7S254.2,811.9,252.1,810.8z M263.2,806.5c1.2-0.7,2.1-1.6,2.8-2.9c0.7-1.2,1-2.6,1-4.2
					c0-1.6-0.3-3-1-4.2c-0.7-1.2-1.6-2.2-2.8-2.9c-1.2-0.7-2.5-1-4-1s-2.8,0.3-4,1c-1.2,0.7-2.1,1.6-2.8,2.9c-0.7,1.2-1,2.6-1,4.2
					c0,1.6,0.3,3,1,4.2c0.7,1.2,1.6,2.2,2.8,2.9c1.2,0.7,2.5,1,4,1S262,807.1,263.2,806.5z"/>
				<path class="st13" d="M296,807.3v4.8h-19v-3.8l9.7-9.2c1-1,1.7-1.8,2.1-2.5c0.4-0.7,0.5-1.4,0.5-2.1c0-1-0.3-1.8-1-2.3
					s-1.7-0.8-3-0.8c-1.1,0-2.1,0.2-3,0.6c-0.9,0.4-1.6,1.1-2.2,1.9l-4.2-2.7c1-1.5,2.3-2.6,4.1-3.4c1.7-0.8,3.7-1.2,5.9-1.2
					c1.9,0,3.5,0.3,4.9,0.9c1.4,0.6,2.5,1.5,3.3,2.6s1.2,2.4,1.2,3.9c0,1.4-0.3,2.7-0.9,3.9c-0.6,1.2-1.7,2.6-3.3,4.1l-5.8,5.5H296z
					"/>
			</g>
		</g>
		<g id="O1_1_">
			
				<rect id="Edif_O1_1_" x="301.7" y="798.6" transform="matrix(-1.346800e-10 1 -1 -1.346800e-10 1152.3527 499.3495)" class="st14" width="49.7" height="54.4"/>
			<g>
				<path class="st13" d="M315.6,832c-1.5-0.8-2.6-1.9-3.4-3.2s-1.2-2.9-1.2-4.6s0.4-3.3,1.2-4.6s2-2.5,3.4-3.2s3.1-1.2,4.9-1.2
					s3.5,0.4,4.9,1.2c1.5,0.8,2.6,1.9,3.4,3.2c0.8,1.4,1.3,2.9,1.3,4.6s-0.4,3.3-1.3,4.6c-0.8,1.4-2,2.5-3.4,3.2
					c-1.4,0.8-3.1,1.2-4.9,1.2S317,832.8,315.6,832z M323.3,829c0.8-0.5,1.5-1.1,2-2c0.5-0.9,0.7-1.8,0.7-2.9s-0.2-2.1-0.7-2.9
					c-0.5-0.8-1.1-1.5-2-2c-0.8-0.5-1.8-0.7-2.8-0.7s-2,0.2-2.8,0.7c-0.8,0.5-1.5,1.1-2,2s-0.7,1.8-0.7,2.9s0.2,2,0.7,2.9
					c0.5,0.8,1.1,1.5,2,2c0.8,0.5,1.8,0.7,2.8,0.7S322.4,829.5,323.3,829z"/>
				<path class="st13" d="M339.8,815.4v17.5h-4v-14.3h-3.5v-3.3H339.8z"/>
			</g>
		</g>
		<g id="O3_1_">
			
				<rect id="Edif_O3_1_" x="302.2" y="749.4" transform="matrix(-1.347031e-10 1 -1 -1.347031e-10 1103.1611 450.158)" class="st14" width="48.7" height="54.4"/>
			<g>
				<path class="st13" d="M313.1,782.8c-1.5-0.8-2.6-1.9-3.4-3.2s-1.2-2.9-1.2-4.6s0.4-3.3,1.2-4.6s2-2.5,3.4-3.2
					c1.5-0.8,3.1-1.2,4.9-1.2s3.5,0.4,4.9,1.2s2.6,1.9,3.4,3.2s1.3,2.9,1.3,4.6s-0.4,3.3-1.3,4.6s-2,2.5-3.4,3.2s-3.1,1.2-4.9,1.2
					S314.6,783.6,313.1,782.8z M320.8,779.8c0.8-0.5,1.5-1.1,2-2c0.5-0.8,0.7-1.8,0.7-2.9c0-1.1-0.2-2-0.7-2.9c-0.5-0.8-1.1-1.5-2-2
					c-0.8-0.5-1.8-0.7-2.8-0.7s-2,0.2-2.8,0.7s-1.5,1.1-2,2c-0.5,0.9-0.7,1.8-0.7,2.9c0,1.1,0.2,2.1,0.7,2.9c0.5,0.8,1.1,1.5,2,2
					c0.8,0.5,1.8,0.7,2.8,0.7S320,780.3,320.8,779.8z"/>
				<path class="st13" d="M342.2,775c0.8,0.9,1.2,2,1.2,3.3c0,1-0.3,2-0.8,2.8c-0.5,0.9-1.3,1.5-2.4,2.1c-1.1,0.5-2.4,0.8-4,0.8
					c-1.2,0-2.4-0.2-3.6-0.5c-1.2-0.3-2.2-0.8-3-1.4l1.6-3.1c0.7,0.5,1.4,0.9,2.3,1.2s1.8,0.4,2.7,0.4c1,0,1.8-0.2,2.4-0.6
					c0.6-0.4,0.9-0.9,0.9-1.7c0-1.4-1.1-2.2-3.3-2.2h-1.8v-2.7l3.6-4.1h-7.4v-3.3h12.3v2.6l-4,4.5
					C340.2,773.6,341.3,774.1,342.2,775z"/>
			</g>
		</g>
		<g id="B_1_">
			<polygon id="Edif_B_1_" class="st14" points="358.5,1051.6 358.5,946 270.3,946 264.9,946 201.2,946 201.2,1040.7 264.9,1040.7 
				264.9,1051.6 			"/>
			<g>
				<path class="st13" d="M287,998.6c0.6,0.7,0.8,1.7,0.8,2.7c0,1.5-0.6,2.7-1.8,3.5c-1.2,0.8-2.9,1.2-5.2,1.2h-9v-17.5h8.5
					c2.1,0,3.8,0.4,4.9,1.2c1.1,0.8,1.7,1.9,1.7,3.3c0,0.9-0.2,1.6-0.6,2.3c-0.4,0.7-1,1.2-1.7,1.6
					C285.6,997.3,286.4,997.8,287,998.6z M275.8,991.6v4.1h4c1,0,1.8-0.2,2.3-0.5c0.5-0.4,0.8-0.9,0.8-1.6c0-0.7-0.3-1.2-0.8-1.5
					c-0.5-0.3-1.3-0.5-2.3-0.5H275.8z M282.9,1002.5c0.5-0.3,0.8-0.9,0.8-1.6c0-1.5-1.1-2.2-3.2-2.2h-4.7v4.3h4.7
					C281.6,1003,282.4,1002.9,282.9,1002.5z"/>
			</g>
		</g>
		
			<rect id="ConexEdifA_1_" x="396.6" y="1125.8" transform="matrix(-1.346942e-10 1 -1 -1.346942e-10 1573.1293 729.126)" class="st14" width="50.7" height="50.7"/>
		<g id="A1_1_">
			
				<rect id="Edif_A1_1_" x="297.2" y="1107.7" transform="matrix(-1.346942e-10 1 -1 -1.346942e-10 1511.1718 790.7431)" class="st14" width="126" height="86.5"/>
			<g>
				<path class="st13" d="M358.7,1154.5h-8.1l-1.5,3.8h-4.1l7.8-17.5h4l7.8,17.5h-4.3L358.7,1154.5z M357.5,1151.4l-2.8-6.7
					l-2.8,6.7H357.5z"/>
				<path class="st13" d="M372.2,1140.8v17.5h-4V1144h-3.5v-3.3H372.2z"/>
			</g>
		</g>
		<g id="A2_1_">
			
				<rect id="Edif_A2_1_" x="420.1" y="1109.1" transform="matrix(-1.346942e-10 1 -1 -1.346942e-10 1634.0654 667.8495)" class="st14" width="126" height="83.7"/>
			<g>
				<path class="st13" d="M478.6,1154.5h-8.1l-1.5,3.8h-4.1l7.8-17.5h4l7.8,17.5h-4.3L478.6,1154.5z M477.3,1151.4l-2.8-6.7
					l-2.8,6.7H477.3z"/>
				<path class="st13" d="M499.5,1155v3.3h-13.2v-2.6l6.8-6.4c0.7-0.7,1.2-1.3,1.5-1.8c0.3-0.5,0.4-1,0.4-1.5c0-0.7-0.2-1.2-0.7-1.6
					s-1.2-0.6-2.1-0.6c-0.8,0-1.5,0.1-2.1,0.4c-0.6,0.3-1.1,0.7-1.6,1.3l-2.9-1.9c0.7-1,1.6-1.8,2.8-2.4c1.2-0.6,2.6-0.9,4.1-0.9
					c1.3,0,2.4,0.2,3.4,0.6c1,0.4,1.7,1,2.3,1.8c0.5,0.8,0.8,1.7,0.8,2.7c0,1-0.2,1.8-0.6,2.7c-0.4,0.8-1.2,1.8-2.3,2.9l-4,3.8
					H499.5z"/>
			</g>
		</g>
		<g id="L_1_">
			
				<rect id="Edif_L_1_" x="312.9" y="1285.1" transform="matrix(-1.346960e-10 1 -1 -1.346960e-10 1680.3633 941.892)" class="st14" width="112.7" height="52.1"/>
			<g>
				<path class="st13" d="M363.1,1300.9h4v14.2h8.8v3.3h-12.8V1300.9z"/>
			</g>
		</g>
		<g id="I_1_">
			<polygon id="Edif_I_1_" class="st14" points="306.1,1276.9 329.9,1276.9 329.9,1248.3 302.3,1248.3 302.3,1237.4 250.3,1237.4 
				250.3,1367.5 295.2,1367.5 302.3,1367.5 306.1,1367.5 			"/>
			<g>
				<path class="st13" d="M277.4,1292.2h4v17.5h-4V1292.2z"/>
			</g>
		</g>
		<g id="H_1_">
			<polygon id="Edif_H_1_" class="st14" points="547.4,1254.8 502.5,1254.8 502.5,1318.4 483.1,1318.4 483.1,1334.4 502.5,1334.4 
				505.2,1334.4 547.4,1334.4 			"/>
			<g>
				<path class="st13" d="M533.7,1284.4v17.5h-4v-7.2h-8v7.2h-4v-17.5h4v6.9h8v-6.9H533.7z"/>
			</g>
		</g>
		<g id="C_1_">
			
				<rect id="Edif_C_1_" x="113.6" y="1454.1" transform="matrix(-1.346809e-10 1 -1 -1.346809e-10 1678.8314 1282.8282)" class="st14" width="168.9" height="53.4"/>
			<g>
				<path class="st13" d="M193.8,1487.3c-1.4-0.8-2.6-1.9-3.4-3.2c-0.8-1.4-1.2-2.9-1.2-4.7s0.4-3.3,1.2-4.7c0.8-1.4,2-2.5,3.4-3.2
					c1.4-0.8,3.1-1.2,4.9-1.2c1.5,0,2.9,0.3,4.1,0.8c1.2,0.5,2.3,1.3,3.1,2.3l-2.6,2.4c-1.2-1.4-2.7-2-4.4-2c-1.1,0-2,0.2-2.9,0.7
					c-0.9,0.5-1.5,1.1-2,2c-0.5,0.9-0.7,1.8-0.7,2.9c0,1.1,0.2,2,0.7,2.9c0.5,0.8,1.1,1.5,2,2c0.8,0.5,1.8,0.7,2.9,0.7
					c1.8,0,3.2-0.7,4.4-2.1l2.6,2.4c-0.8,1-1.9,1.8-3.1,2.3s-2.6,0.8-4.1,0.8C196.9,1488.4,195.3,1488,193.8,1487.3z"/>
			</g>
		</g>
		<g id="D_1_">
			
				<rect id="Edif_D_1_" x="194.9" y="1454.1" transform="matrix(-1.346809e-10 1 -1 -1.346809e-10 1760.1931 1201.4664)" class="st14" width="168.9" height="53.4"/>
			<g>
				<path class="st13" d="M270.5,1470.6h8c1.9,0,3.6,0.4,5,1.1c1.5,0.7,2.6,1.7,3.4,3.1c0.8,1.3,1.2,2.8,1.2,4.6s-0.4,3.3-1.2,4.6
					c-0.8,1.3-1.9,2.3-3.4,3.1c-1.5,0.7-3.1,1.1-5,1.1h-8V1470.6z M278.2,1484.8c1.8,0,3.1-0.5,4.2-1.5c1-1,1.6-2.3,1.6-4
					s-0.5-3-1.6-4c-1-1-2.4-1.5-4.2-1.5h-3.7v10.8H278.2z"/>
			</g>
		</g>
		<g id="E_1_">
			
				<rect id="Edif_E_1_" x="285.5" y="1454.1" transform="matrix(-1.346809e-10 1 -1 -1.346809e-10 1850.7462 1110.9133)" class="st14" width="168.9" height="53.4"/>
			<g>
				<path class="st13" d="M376.5,1484.9v3.3H363v-17.5h13.2v3.3H367v3.8h8.1v3.2H367v4.1H376.5z"/>
			</g>
		</g>
		<g id="F_1_">
			
				<rect id="Edif_F_1_" x="373.7" y="1454.1" transform="matrix(-1.346809e-10 1 -1 -1.346809e-10 1938.9165 1022.7431)" class="st14" width="168.9" height="53.4"/>
			<g>
				<path class="st13" d="M455.6,1473.9v4.6h8.1v3.3h-8.1v6.4h-4v-17.5h13.2v3.3H455.6z"/>
			</g>
		</g>
		<g id="Detallitos_1_">
			
				<rect x="634.4" y="68.9" transform="matrix(-1.346738e-10 1 -1 -1.346738e-10 726.6612 -573.8527)" class="st5" width="31.7" height="15"/>
			
				<rect x="243.3" y="61.4" transform="matrix(-1.346525e-10 1 -1 -1.346525e-10 341.6279 -169.0987)" class="st6" width="24.2" height="49.7"/>
		</g>
		<g id="TorreCreo_1_">
			
				<rect x="557.9" y="96.7" transform="matrix(-1.347004e-10 1 -1 -1.347004e-10 702.1505 -461.2569)" class="st8" width="47.6" height="47.6"/>
			<g id="Torre_creo_1_">
				<polygon class="st9" points="600.4,102.5 595.1,120.8 600.4,139 582.2,133.7 564,139 569.3,120.8 564,102.5 582.2,107.9 				"/>
				
					<rect x="573.1" y="111.7" transform="matrix(-1.347537e-10 1 -1 -1.347537e-10 702.9751 -461.4366)" class="st10" width="18.2" height="18.2"/>
				
					<rect x="564" y="102.5" transform="matrix(-1.347040e-10 1 -1 -1.347040e-10 702.9751 -461.4366)" class="st10" width="36.5" height="36.5"/>
				<circle class="st11" cx="582.2" cy="120.8" r="3.3"/>
			</g>
		</g>
		<g>
			<g id="IconBaño_23_">
				<path id="XMLID_531_" class="st15" d="M283,1569.1h-22.7c-0.5,0-0.9-0.4-0.9-0.9v-22.7c0-0.5,0.4-0.9,0.9-0.9H283
					c0.5,0,0.9,0.4,0.9,0.9v22.7C283.9,1568.7,283.5,1569.1,283,1569.1z"/>
				<path id="XMLID_530_" class="st16" d="M283,1544.6c-6.5,0-12.4,2.6-16.7,6.9c-4.3,4.3-6.9,10.2-6.9,16.7v-22.7
					c0-0.5,0.4-0.9,0.9-0.9H283z"/>
				<g id="XMLID_509_">
					<g id="XMLID_511_">
						<g id="XMLID_520_">
							<path id="XMLID_529_" class="st17" d="M277,1550c0.9,0,1.6-0.7,1.6-1.6c0-0.9-0.7-1.6-1.6-1.6s-1.6,0.7-1.6,1.6
								C275.4,1549.2,276.1,1550,277,1550z"/>
							<g id="XMLID_526_">
								<path id="XMLID_528_" class="st18" d="M276.8,1565.8c0,0.6-0.4,1.1-0.9,1.1c-0.5,0-0.9-0.5-0.9-1.1v-9.1
									c0-0.6,0.4-1.1,0.9-1.1c0.5,0,0.9,0.5,0.9,1.1V1565.8z"/>
								<path id="XMLID_527_" class="st18" d="M278.9,1565.8c0,0.6-0.4,1.1-0.9,1.1c-0.5,0-0.9-0.5-0.9-1.1v-9.1
									c0-0.6,0.4-1.1,0.9-1.1c0.5,0,0.9,0.5,0.9,1.1V1565.8z"/>
							</g>
							<polygon id="XMLID_525_" class="st17" points="274.3,1559.7 279.6,1559.7 278.3,1551.3 275.6,1551.3 							"/>
							<path id="XMLID_524_" class="st17" d="M275,1550.5h3.9c0.7,0,1.2,0.6,1.2,1.2v1.1h-6.4v-1.1
								C273.8,1551,274.4,1550.5,275,1550.5z"/>
							<g id="XMLID_521_">
								<path id="XMLID_523_" class="st18" d="M274.2,1557.7c-0.1,0.4-0.4,0.6-0.8,0.6c-0.4-0.1-0.6-0.4-0.6-0.8l1-5.8
									c0.1-0.4,0.4-0.6,0.8-0.6c0.4,0.1,0.6,0.4,0.6,0.8L274.2,1557.7z"/>
								<path id="XMLID_522_" class="st18" d="M279.8,1557.7c0.1,0.4,0.4,0.6,0.8,0.6c0.4-0.1,0.6-0.4,0.6-0.8l-1-5.8
									c-0.1-0.4-0.4-0.6-0.8-0.6c-0.4,0.1-0.6,0.4-0.6,0.8L279.8,1557.7z"/>
							</g>
						</g>
						<g id="XMLID_512_">
							<path id="XMLID_519_" class="st17" d="M265.9,1550c0.9,0,1.6-0.7,1.6-1.6c0-0.9-0.7-1.6-1.6-1.6c-0.9,0-1.6,0.7-1.6,1.6
								C264.3,1549.2,265,1550,265.9,1550z"/>
							<path id="XMLID_518_" class="st18" d="M263.5,1557.6c0,0.4-0.3,0.7-0.7,0.7c-0.4,0-0.7-0.3-0.7-0.7v-5.9
								c0-0.4,0.3-0.7,0.7-0.7c0.4,0,0.7,0.3,0.7,0.7V1557.6z"/>
							<path id="XMLID_517_" class="st18" d="M269.5,1557.6c0,0.4-0.3,0.7-0.7,0.7c-0.4,0-0.7-0.3-0.7-0.7v-5.9
								c0-0.4,0.3-0.7,0.7-0.7c0.4,0,0.7,0.3,0.7,0.7V1557.6z"/>
							<path id="XMLID_516_" class="st18" d="M265.6,1565.8c0,0.6-0.4,1.1-0.9,1.1c-0.5,0-0.9-0.5-0.9-1.1v-9.1
								c0-0.6,0.4-1.1,0.9-1.1c0.5,0,0.9,0.5,0.9,1.1V1565.8z"/>
							<path id="XMLID_515_" class="st18" d="M267.8,1565.8c0,0.6-0.4,1.1-0.9,1.1c-0.5,0-0.9-0.5-0.9-1.1v-9.1
								c0-0.6,0.4-1.1,0.9-1.1c0.5,0,0.9,0.5,0.9,1.1V1565.8z"/>
							<rect id="XMLID_514_" x="263.9" y="1552.3" class="st17" width="3.9" height="5.8"/>
							<path id="XMLID_513_" class="st17" d="M263.3,1550.5h5c0.7,0,1.2,0.6,1.2,1.2v1.1h-7.5v-1.1
								C262.1,1551,262.6,1550.5,263.3,1550.5z"/>
						</g>
					</g>
					<rect id="XMLID_510_" x="271.3" y="1546.7" class="st17" width="0.6" height="20.2"/>
				</g>
			</g>
			<g id="IconBaño_22_">
				<path id="XMLID_508_" class="st15" d="M460.4,1565h-22.7c-0.5,0-0.9-0.4-0.9-0.9v-22.7c0-0.5,0.4-0.9,0.9-0.9h22.7
					c0.5,0,0.9,0.4,0.9,0.9v22.7C461.3,1564.6,460.9,1565,460.4,1565z"/>
				<path id="XMLID_507_" class="st16" d="M460.4,1540.5c-6.5,0-12.4,2.6-16.7,6.9c-4.3,4.3-6.9,10.2-6.9,16.7v-22.7
					c0-0.5,0.4-0.9,0.9-0.9H460.4z"/>
				<g id="XMLID_486_">
					<g id="XMLID_488_">
						<g id="XMLID_497_">
							<path id="XMLID_506_" class="st17" d="M454.4,1545.9c0.9,0,1.6-0.7,1.6-1.6s-0.7-1.6-1.6-1.6s-1.6,0.7-1.6,1.6
								S453.6,1545.9,454.4,1545.9z"/>
							<g id="XMLID_503_">
								<path id="XMLID_505_" class="st18" d="M454.2,1561.7c0,0.6-0.4,1.1-0.9,1.1c-0.5,0-0.9-0.5-0.9-1.1v-9.1
									c0-0.6,0.4-1.1,0.9-1.1c0.5,0,0.9,0.5,0.9,1.1V1561.7z"/>
								<path id="XMLID_504_" class="st18" d="M456.4,1561.7c0,0.6-0.4,1.1-0.9,1.1c-0.5,0-0.9-0.5-0.9-1.1v-9.1
									c0-0.6,0.4-1.1,0.9-1.1c0.5,0,0.9,0.5,0.9,1.1V1561.7z"/>
							</g>
							<polygon id="XMLID_502_" class="st17" points="451.8,1555.6 457.1,1555.6 455.8,1547.2 453.1,1547.2 							"/>
							<path id="XMLID_501_" class="st17" d="M452.5,1546.4h3.9c0.7,0,1.2,0.6,1.2,1.2v1.1h-6.4v-1.1
								C451.3,1546.9,451.8,1546.4,452.5,1546.4z"/>
							<g id="XMLID_498_">
								<path id="XMLID_500_" class="st18" d="M451.7,1553.6c-0.1,0.4-0.4,0.6-0.8,0.6c-0.4-0.1-0.6-0.4-0.6-0.8l1-5.8
									c0.1-0.4,0.4-0.6,0.8-0.6c0.4,0.1,0.6,0.4,0.6,0.8L451.7,1553.6z"/>
								<path id="XMLID_499_" class="st18" d="M457.2,1553.6c0.1,0.4,0.4,0.6,0.8,0.6c0.4-0.1,0.6-0.4,0.6-0.8l-1-5.8
									c-0.1-0.4-0.4-0.6-0.8-0.6c-0.4,0.1-0.6,0.4-0.6,0.8L457.2,1553.6z"/>
							</g>
						</g>
						<g id="XMLID_489_">
							<path id="XMLID_496_" class="st17" d="M443.3,1545.9c0.9,0,1.6-0.7,1.6-1.6s-0.7-1.6-1.6-1.6c-0.9,0-1.6,0.7-1.6,1.6
								S442.5,1545.9,443.3,1545.9z"/>
							<path id="XMLID_495_" class="st18" d="M440.9,1553.5c0,0.4-0.3,0.7-0.7,0.7c-0.4,0-0.7-0.3-0.7-0.7v-5.9
								c0-0.4,0.3-0.7,0.7-0.7c0.4,0,0.7,0.3,0.7,0.7V1553.5z"/>
							<path id="XMLID_494_" class="st18" d="M447,1553.5c0,0.4-0.3,0.7-0.7,0.7c-0.4,0-0.7-0.3-0.7-0.7v-5.9c0-0.4,0.3-0.7,0.7-0.7
								c0.4,0,0.7,0.3,0.7,0.7V1553.5z"/>
							<path id="XMLID_493_" class="st18" d="M443.1,1561.7c0,0.6-0.4,1.1-0.9,1.1c-0.5,0-0.9-0.5-0.9-1.1v-9.1
								c0-0.6,0.4-1.1,0.9-1.1c0.5,0,0.9,0.5,0.9,1.1V1561.7z"/>
							<path id="XMLID_492_" class="st18" d="M445.2,1561.7c0,0.6-0.4,1.1-0.9,1.1c-0.5,0-0.9-0.5-0.9-1.1v-9.1
								c0-0.6,0.4-1.1,0.9-1.1c0.5,0,0.9,0.5,0.9,1.1V1561.7z"/>
							<rect id="XMLID_491_" x="441.3" y="1548.2" class="st17" width="3.9" height="5.8"/>
							<path id="XMLID_490_" class="st17" d="M440.7,1546.4h5c0.7,0,1.2,0.6,1.2,1.2v1.1h-7.5v-1.1
								C439.5,1546.9,440.1,1546.4,440.7,1546.4z"/>
						</g>
					</g>
					<rect id="XMLID_487_" x="448.8" y="1542.6" class="st17" width="0.6" height="20.2"/>
				</g>
			</g>
			<g id="IconBaño_21_">
				<path id="XMLID_485_" class="st15" d="M519.7,1338.7H497c-0.5,0-0.9-0.4-0.9-0.9v-22.7c0-0.5,0.4-0.9,0.9-0.9h22.7
					c0.5,0,0.9,0.4,0.9,0.9v22.7C520.6,1338.2,520.2,1338.7,519.7,1338.7z"/>
				<path id="XMLID_484_" class="st16" d="M519.7,1314.2c-6.5,0-12.4,2.6-16.7,6.9c-4.3,4.3-6.9,10.2-6.9,16.7v-22.7
					c0-0.5,0.4-0.9,0.9-0.9H519.7z"/>
				<g id="XMLID_463_">
					<g id="XMLID_465_">
						<g id="XMLID_474_">
							<path id="XMLID_483_" class="st17" d="M513.7,1319.5c0.9,0,1.6-0.7,1.6-1.6c0-0.9-0.7-1.6-1.6-1.6s-1.6,0.7-1.6,1.6
								C512.1,1318.8,512.8,1319.5,513.7,1319.5z"/>
							<g id="XMLID_480_">
								<path id="XMLID_482_" class="st18" d="M513.5,1335.4c0,0.6-0.4,1.1-0.9,1.1c-0.5,0-0.9-0.5-0.9-1.1v-9.1
									c0-0.6,0.4-1.1,0.9-1.1c0.5,0,0.9,0.5,0.9,1.1V1335.4z"/>
								<path id="XMLID_481_" class="st18" d="M515.7,1335.4c0,0.6-0.4,1.1-0.9,1.1c-0.5,0-0.9-0.5-0.9-1.1v-9.1
									c0-0.6,0.4-1.1,0.9-1.1c0.5,0,0.9,0.5,0.9,1.1V1335.4z"/>
							</g>
							<polygon id="XMLID_479_" class="st17" points="511.1,1329.2 516.4,1329.2 515.1,1320.9 512.4,1320.9 							"/>
							<path id="XMLID_478_" class="st17" d="M511.8,1320.1h3.9c0.7,0,1.2,0.6,1.2,1.2v1.1h-6.4v-1.1
								C510.6,1320.6,511.1,1320.1,511.8,1320.1z"/>
							<g id="XMLID_475_">
								<path id="XMLID_477_" class="st18" d="M511,1327.3c-0.1,0.4-0.4,0.6-0.8,0.6c-0.4-0.1-0.6-0.4-0.6-0.8l1-5.8
									c0.1-0.4,0.4-0.6,0.8-0.6c0.4,0.1,0.6,0.4,0.6,0.8L511,1327.3z"/>
								<path id="XMLID_476_" class="st18" d="M516.5,1327.3c0.1,0.4,0.4,0.6,0.8,0.6c0.4-0.1,0.6-0.4,0.6-0.8l-1-5.8
									c-0.1-0.4-0.4-0.6-0.8-0.6c-0.4,0.1-0.6,0.4-0.6,0.8L516.5,1327.3z"/>
							</g>
						</g>
						<g id="XMLID_466_">
							<path id="XMLID_473_" class="st17" d="M502.6,1319.5c0.9,0,1.6-0.7,1.6-1.6c0-0.9-0.7-1.6-1.6-1.6c-0.9,0-1.6,0.7-1.6,1.6
								C501,1318.8,501.8,1319.5,502.6,1319.5z"/>
							<path id="XMLID_472_" class="st18" d="M500.2,1327.2c0,0.4-0.3,0.7-0.7,0.7c-0.4,0-0.7-0.3-0.7-0.7v-5.9
								c0-0.4,0.3-0.7,0.7-0.7c0.4,0,0.7,0.3,0.7,0.7V1327.2z"/>
							<path id="XMLID_471_" class="st18" d="M506.3,1327.2c0,0.4-0.3,0.7-0.7,0.7c-0.4,0-0.7-0.3-0.7-0.7v-5.9
								c0-0.4,0.3-0.7,0.7-0.7c0.4,0,0.7,0.3,0.7,0.7V1327.2z"/>
							<path id="XMLID_470_" class="st18" d="M502.3,1335.4c0,0.6-0.4,1.1-0.9,1.1c-0.5,0-0.9-0.5-0.9-1.1v-9.1
								c0-0.6,0.4-1.1,0.9-1.1c0.5,0,0.9,0.5,0.9,1.1V1335.4z"/>
							<path id="XMLID_469_" class="st18" d="M504.5,1335.4c0,0.6-0.4,1.1-0.9,1.1c-0.5,0-0.9-0.5-0.9-1.1v-9.1
								c0-0.6,0.4-1.1,0.9-1.1c0.5,0,0.9,0.5,0.9,1.1V1335.4z"/>
							<rect id="XMLID_468_" x="500.6" y="1321.9" class="st17" width="3.9" height="5.8"/>
							<path id="XMLID_467_" class="st17" d="M500,1320.1h5c0.7,0,1.2,0.6,1.2,1.2v1.1h-7.5v-1.1
								C498.8,1320.6,499.4,1320.1,500,1320.1z"/>
						</g>
					</g>
					<rect id="XMLID_464_" x="508.1" y="1316.3" class="st17" width="0.6" height="20.2"/>
				</g>
			</g>
			<g id="IconBaño_20_">
				<path id="XMLID_462_" class="st15" d="M328.3,1273.9h-22.7c-0.5,0-0.9-0.4-0.9-0.9v-22.7c0-0.5,0.4-0.9,0.9-0.9h22.7
					c0.5,0,0.9,0.4,0.9,0.9v22.7C329.2,1273.5,328.8,1273.9,328.3,1273.9z"/>
				<path id="XMLID_461_" class="st16" d="M328.3,1249.4c-6.5,0-12.4,2.6-16.7,6.9c-4.3,4.3-6.9,10.2-6.9,16.7v-22.7
					c0-0.5,0.4-0.9,0.9-0.9H328.3z"/>
				<g id="XMLID_440_">
					<g id="XMLID_442_">
						<g id="XMLID_451_">
							<path id="XMLID_460_" class="st17" d="M322.4,1254.8c0.9,0,1.6-0.7,1.6-1.6c0-0.9-0.7-1.6-1.6-1.6s-1.6,0.7-1.6,1.6
								C320.7,1254.1,321.5,1254.8,322.4,1254.8z"/>
							<g id="XMLID_457_">
								<path id="XMLID_459_" class="st18" d="M322.1,1270.7c0,0.6-0.4,1.1-0.9,1.1s-0.9-0.5-0.9-1.1v-9.1c0-0.6,0.4-1.1,0.9-1.1
									s0.9,0.5,0.9,1.1V1270.7z"/>
								<path id="XMLID_458_" class="st18" d="M324.3,1270.7c0,0.6-0.4,1.1-0.9,1.1c-0.5,0-0.9-0.5-0.9-1.1v-9.1
									c0-0.6,0.4-1.1,0.9-1.1c0.5,0,0.9,0.5,0.9,1.1V1270.7z"/>
							</g>
							<polygon id="XMLID_456_" class="st17" points="319.7,1264.5 325,1264.5 323.7,1256.2 321,1256.2 							"/>
							<path id="XMLID_455_" class="st17" d="M320.4,1255.3h3.9c0.7,0,1.2,0.6,1.2,1.2v1.1h-6.4v-1.1
								C319.2,1255.9,319.7,1255.3,320.4,1255.3z"/>
							<g id="XMLID_452_">
								<path id="XMLID_454_" class="st18" d="M319.6,1262.5c-0.1,0.4-0.4,0.6-0.8,0.6c-0.4-0.1-0.6-0.4-0.6-0.8l1-5.8
									c0.1-0.4,0.4-0.6,0.8-0.6c0.4,0.1,0.6,0.4,0.6,0.8L319.6,1262.5z"/>
								<path id="XMLID_453_" class="st18" d="M325.1,1262.5c0.1,0.4,0.4,0.6,0.8,0.6c0.4-0.1,0.6-0.4,0.6-0.8l-1-5.8
									c-0.1-0.4-0.4-0.6-0.8-0.6c-0.4,0.1-0.6,0.4-0.6,0.8L325.1,1262.5z"/>
							</g>
						</g>
						<g id="XMLID_443_">
							<path id="XMLID_450_" class="st17" d="M311.3,1254.8c0.9,0,1.6-0.7,1.6-1.6c0-0.9-0.7-1.6-1.6-1.6c-0.9,0-1.6,0.7-1.6,1.6
								C309.7,1254.1,310.4,1254.8,311.3,1254.8z"/>
							<path id="XMLID_449_" class="st18" d="M308.8,1262.4c0,0.4-0.3,0.7-0.7,0.7c-0.4,0-0.7-0.3-0.7-0.7v-5.9
								c0-0.4,0.3-0.7,0.7-0.7c0.4,0,0.7,0.3,0.7,0.7V1262.4z"/>
							<path id="XMLID_448_" class="st18" d="M314.9,1262.4c0,0.4-0.3,0.7-0.7,0.7c-0.4,0-0.7-0.3-0.7-0.7v-5.9
								c0-0.4,0.3-0.7,0.7-0.7c0.4,0,0.7,0.3,0.7,0.7V1262.4z"/>
							<path id="XMLID_447_" class="st18" d="M311,1270.7c0,0.6-0.4,1.1-0.9,1.1c-0.5,0-0.9-0.5-0.9-1.1v-9.1c0-0.6,0.4-1.1,0.9-1.1
								c0.5,0,0.9,0.5,0.9,1.1V1270.7z"/>
							<path id="XMLID_446_" class="st18" d="M313.1,1270.7c0,0.6-0.4,1.1-0.9,1.1c-0.5,0-0.9-0.5-0.9-1.1v-9.1
								c0-0.6,0.4-1.1,0.9-1.1c0.5,0,0.9,0.5,0.9,1.1V1270.7z"/>
							<rect id="XMLID_445_" x="309.2" y="1257.2" class="st17" width="3.9" height="5.8"/>
							<path id="XMLID_444_" class="st17" d="M308.7,1255.3h5c0.7,0,1.2,0.6,1.2,1.2v1.1h-7.5v-1.1
								C307.5,1255.9,308,1255.3,308.7,1255.3z"/>
						</g>
					</g>
					<rect id="XMLID_441_" x="316.7" y="1251.6" class="st17" width="0.6" height="20.2"/>
				</g>
			</g>
			<g id="IconBaño_19_">
				<path id="XMLID_439_" class="st15" d="M470.5,1208.2h-22.7c-0.5,0-0.9-0.4-0.9-0.9v-22.7c0-0.5,0.4-0.9,0.9-0.9h22.7
					c0.5,0,0.9,0.4,0.9,0.9v22.7C471.4,1207.8,471,1208.2,470.5,1208.2z"/>
				<path id="XMLID_438_" class="st16" d="M470.5,1183.7c-6.5,0-12.4,2.6-16.7,6.9s-6.9,10.2-6.9,16.7v-22.7c0-0.5,0.4-0.9,0.9-0.9
					H470.5z"/>
				<g id="XMLID_417_">
					<g id="XMLID_419_">
						<g id="XMLID_428_">
							<path id="XMLID_437_" class="st17" d="M464.5,1189.1c0.9,0,1.6-0.7,1.6-1.6c0-0.9-0.7-1.6-1.6-1.6c-0.9,0-1.6,0.7-1.6,1.6
								C462.9,1188.3,463.6,1189.1,464.5,1189.1z"/>
							<g id="XMLID_434_">
								<path id="XMLID_436_" class="st18" d="M464.3,1204.9c0,0.6-0.4,1.1-0.9,1.1c-0.5,0-0.9-0.5-0.9-1.1v-9.1
									c0-0.6,0.4-1.1,0.9-1.1c0.5,0,0.9,0.5,0.9,1.1V1204.9z"/>
								<path id="XMLID_435_" class="st18" d="M466.5,1204.9c0,0.6-0.4,1.1-0.9,1.1c-0.5,0-0.9-0.5-0.9-1.1v-9.1
									c0-0.6,0.4-1.1,0.9-1.1c0.5,0,0.9,0.5,0.9,1.1V1204.9z"/>
							</g>
							<polygon id="XMLID_433_" class="st17" points="461.9,1198.8 467.2,1198.8 465.9,1190.5 463.2,1190.5 							"/>
							<path id="XMLID_432_" class="st17" d="M462.6,1189.6h3.9c0.7,0,1.2,0.6,1.2,1.2v1.1h-6.4v-1.1
								C461.3,1190.1,461.9,1189.6,462.6,1189.6z"/>
							<g id="XMLID_429_">
								<path id="XMLID_431_" class="st18" d="M461.7,1196.8c-0.1,0.4-0.4,0.6-0.8,0.6c-0.4-0.1-0.6-0.4-0.6-0.8l1-5.8
									c0.1-0.4,0.4-0.6,0.8-0.6c0.4,0.1,0.6,0.4,0.6,0.8L461.7,1196.8z"/>
								<path id="XMLID_430_" class="st18" d="M467.3,1196.8c0.1,0.4,0.4,0.6,0.8,0.6c0.4-0.1,0.6-0.4,0.6-0.8l-1-5.8
									c-0.1-0.4-0.4-0.6-0.8-0.6c-0.4,0.1-0.6,0.4-0.6,0.8L467.3,1196.8z"/>
							</g>
						</g>
						<g id="XMLID_420_">
							<path id="XMLID_427_" class="st17" d="M453.4,1189.1c0.9,0,1.6-0.7,1.6-1.6c0-0.9-0.7-1.6-1.6-1.6c-0.9,0-1.6,0.7-1.6,1.6
								C451.8,1188.3,452.5,1189.1,453.4,1189.1z"/>
							<path id="XMLID_426_" class="st18" d="M451,1196.7c0,0.4-0.3,0.7-0.7,0.7c-0.4,0-0.7-0.3-0.7-0.7v-5.9c0-0.4,0.3-0.7,0.7-0.7
								c0.4,0,0.7,0.3,0.7,0.7V1196.7z"/>
							<path id="XMLID_425_" class="st18" d="M457.1,1196.7c0,0.4-0.3,0.7-0.7,0.7c-0.4,0-0.7-0.3-0.7-0.7v-5.9
								c0-0.4,0.3-0.7,0.7-0.7c0.4,0,0.7,0.3,0.7,0.7V1196.7z"/>
							<path id="XMLID_424_" class="st18" d="M453.1,1204.9c0,0.6-0.4,1.1-0.9,1.1c-0.5,0-0.9-0.5-0.9-1.1v-9.1
								c0-0.6,0.4-1.1,0.9-1.1c0.5,0,0.9,0.5,0.9,1.1V1204.9z"/>
							<path id="XMLID_423_" class="st18" d="M455.3,1204.9c0,0.6-0.4,1.1-0.9,1.1c-0.5,0-0.9-0.5-0.9-1.1v-9.1
								c0-0.6,0.4-1.1,0.9-1.1c0.5,0,0.9,0.5,0.9,1.1V1204.9z"/>
							<rect id="XMLID_422_" x="451.4" y="1191.4" class="st17" width="3.9" height="5.8"/>
							<path id="XMLID_421_" class="st17" d="M450.8,1189.6h5c0.7,0,1.2,0.6,1.2,1.2v1.1h-7.5v-1.1
								C449.6,1190.1,450.2,1189.6,450.8,1189.6z"/>
						</g>
					</g>
					<rect id="XMLID_418_" x="458.8" y="1185.9" class="st17" width="0.6" height="20.2"/>
				</g>
			</g>
			<g id="IconBaño_18_">
				<path id="XMLID_416_" class="st15" d="M522.6,975.5h-22.7c-0.5,0-0.9-0.4-0.9-0.9v-22.7c0-0.5,0.4-0.9,0.9-0.9h22.7
					c0.5,0,0.9,0.4,0.9,0.9v22.7C523.5,975.1,523.1,975.5,522.6,975.5z"/>
				<path id="XMLID_415_" class="st16" d="M522.6,951c-6.5,0-12.4,2.6-16.7,6.9s-6.9,10.2-6.9,16.7v-22.7c0-0.5,0.4-0.9,0.9-0.9
					H522.6z"/>
				<g id="XMLID_394_">
					<g id="XMLID_396_">
						<g id="XMLID_405_">
							<path id="XMLID_414_" class="st17" d="M516.6,956.4c0.9,0,1.6-0.7,1.6-1.6c0-0.9-0.7-1.6-1.6-1.6s-1.6,0.7-1.6,1.6
								C515,955.6,515.8,956.4,516.6,956.4z"/>
							<g id="XMLID_411_">
								<path id="XMLID_413_" class="st18" d="M516.4,972.2c0,0.6-0.4,1.1-0.9,1.1c-0.5,0-0.9-0.5-0.9-1.1v-9.1
									c0-0.6,0.4-1.1,0.9-1.1c0.5,0,0.9,0.5,0.9,1.1V972.2z"/>
								<path id="XMLID_412_" class="st18" d="M518.6,972.2c0,0.6-0.4,1.1-0.9,1.1c-0.5,0-0.9-0.5-0.9-1.1v-9.1
									c0-0.6,0.4-1.1,0.9-1.1c0.5,0,0.9,0.5,0.9,1.1V972.2z"/>
							</g>
							<polygon id="XMLID_410_" class="st17" points="514,966.1 519.3,966.1 518,957.7 515.3,957.7 							"/>
							<path id="XMLID_409_" class="st17" d="M514.7,956.9h3.9c0.7,0,1.2,0.6,1.2,1.2v1.1h-6.4v-1.1
								C513.5,957.4,514,956.9,514.7,956.9z"/>
							<g id="XMLID_406_">
								<path id="XMLID_408_" class="st18" d="M513.9,964.1c-0.1,0.4-0.4,0.6-0.8,0.6c-0.4-0.1-0.6-0.4-0.6-0.8l1-5.8
									c0.1-0.4,0.4-0.6,0.8-0.6c0.4,0.1,0.6,0.4,0.6,0.8L513.9,964.1z"/>
								<path id="XMLID_407_" class="st18" d="M519.4,964.1c0.1,0.4,0.4,0.6,0.8,0.6c0.4-0.1,0.6-0.4,0.6-0.8l-1-5.8
									c-0.1-0.4-0.4-0.6-0.8-0.6c-0.4,0.1-0.6,0.4-0.6,0.8L519.4,964.1z"/>
							</g>
						</g>
						<g id="XMLID_397_">
							<path id="XMLID_404_" class="st17" d="M505.5,956.4c0.9,0,1.6-0.7,1.6-1.6c0-0.9-0.7-1.6-1.6-1.6c-0.9,0-1.6,0.7-1.6,1.6
								C503.9,955.6,504.7,956.4,505.5,956.4z"/>
							<path id="XMLID_403_" class="st18" d="M503.1,964c0,0.4-0.3,0.7-0.7,0.7c-0.4,0-0.7-0.3-0.7-0.7v-5.9c0-0.4,0.3-0.7,0.7-0.7
								c0.4,0,0.7,0.3,0.7,0.7V964z"/>
							<path id="XMLID_402_" class="st18" d="M509.2,964c0,0.4-0.3,0.7-0.7,0.7c-0.4,0-0.7-0.3-0.7-0.7v-5.9c0-0.4,0.3-0.7,0.7-0.7
								c0.4,0,0.7,0.3,0.7,0.7V964z"/>
							<path id="XMLID_401_" class="st18" d="M505.3,972.2c0,0.6-0.4,1.1-0.9,1.1c-0.5,0-0.9-0.5-0.9-1.1v-9.1
								c0-0.6,0.4-1.1,0.9-1.1c0.5,0,0.9,0.5,0.9,1.1V972.2z"/>
							<path id="XMLID_400_" class="st18" d="M507.4,972.2c0,0.6-0.4,1.1-0.9,1.1c-0.5,0-0.9-0.5-0.9-1.1v-9.1
								c0-0.6,0.4-1.1,0.9-1.1c0.5,0,0.9,0.5,0.9,1.1V972.2z"/>
							<rect id="XMLID_399_" x="503.5" y="958.7" class="st17" width="3.9" height="5.8"/>
							<path id="XMLID_398_" class="st17" d="M502.9,956.9h5c0.7,0,1.2,0.6,1.2,1.2v1.1h-7.5v-1.1
								C501.7,957.4,502.3,956.9,502.9,956.9z"/>
						</g>
					</g>
					<rect id="XMLID_395_" x="511" y="953.1" class="st17" width="0.6" height="20.2"/>
				</g>
			</g>
			<g id="IconBaño_17_">
				<path id="XMLID_393_" class="st15" d="M519.7,847.4H497c-0.5,0-0.9-0.4-0.9-0.9v-22.7c0-0.5,0.4-0.9,0.9-0.9h22.7
					c0.5,0,0.9,0.4,0.9,0.9v22.7C520.6,847,520.2,847.4,519.7,847.4z"/>
				<path id="XMLID_392_" class="st16" d="M519.7,823c-6.5,0-12.4,2.6-16.7,6.9c-4.3,4.3-6.9,10.2-6.9,16.7v-22.7
					c0-0.5,0.4-0.9,0.9-0.9H519.7z"/>
				<g id="XMLID_371_">
					<g id="XMLID_373_">
						<g id="XMLID_382_">
							<path id="XMLID_391_" class="st17" d="M513.7,828.3c0.9,0,1.6-0.7,1.6-1.6c0-0.9-0.7-1.6-1.6-1.6s-1.6,0.7-1.6,1.6
								C512.1,827.6,512.8,828.3,513.7,828.3z"/>
							<g id="XMLID_388_">
								<path id="XMLID_390_" class="st18" d="M513.5,844.2c0,0.6-0.4,1.1-0.9,1.1c-0.5,0-0.9-0.5-0.9-1.1v-9.1
									c0-0.6,0.4-1.1,0.9-1.1c0.5,0,0.9,0.5,0.9,1.1V844.2z"/>
								<path id="XMLID_389_" class="st18" d="M515.7,844.2c0,0.6-0.4,1.1-0.9,1.1c-0.5,0-0.9-0.5-0.9-1.1v-9.1
									c0-0.6,0.4-1.1,0.9-1.1c0.5,0,0.9,0.5,0.9,1.1V844.2z"/>
							</g>
							<polygon id="XMLID_387_" class="st17" points="511.1,838 516.4,838 515.1,829.7 512.4,829.7 							"/>
							<path id="XMLID_386_" class="st17" d="M511.8,828.8h3.9c0.7,0,1.2,0.6,1.2,1.2v1.1h-6.4v-1.1
								C510.6,829.4,511.1,828.8,511.8,828.8z"/>
							<g id="XMLID_383_">
								<path id="XMLID_385_" class="st18" d="M511,836.1c-0.1,0.4-0.4,0.6-0.8,0.6c-0.4-0.1-0.6-0.4-0.6-0.8l1-5.8
									c0.1-0.4,0.4-0.6,0.8-0.6c0.4,0.1,0.6,0.4,0.6,0.8L511,836.1z"/>
								<path id="XMLID_384_" class="st18" d="M516.5,836.1c0.1,0.4,0.4,0.6,0.8,0.6c0.4-0.1,0.6-0.4,0.6-0.8l-1-5.8
									c-0.1-0.4-0.4-0.6-0.8-0.6c-0.4,0.1-0.6,0.4-0.6,0.8L516.5,836.1z"/>
							</g>
						</g>
						<g id="XMLID_374_">
							<path id="XMLID_381_" class="st17" d="M502.6,828.3c0.9,0,1.6-0.7,1.6-1.6c0-0.9-0.7-1.6-1.6-1.6c-0.9,0-1.6,0.7-1.6,1.6
								C501,827.6,501.8,828.3,502.6,828.3z"/>
							<path id="XMLID_380_" class="st18" d="M500.2,835.9c0,0.4-0.3,0.7-0.7,0.7c-0.4,0-0.7-0.3-0.7-0.7v-5.9
								c0-0.4,0.3-0.7,0.7-0.7c0.4,0,0.7,0.3,0.7,0.7V835.9z"/>
							<path id="XMLID_379_" class="st18" d="M506.3,835.9c0,0.4-0.3,0.7-0.7,0.7c-0.4,0-0.7-0.3-0.7-0.7v-5.9
								c0-0.4,0.3-0.7,0.7-0.7c0.4,0,0.7,0.3,0.7,0.7V835.9z"/>
							<path id="XMLID_378_" class="st18" d="M502.3,844.2c0,0.6-0.4,1.1-0.9,1.1c-0.5,0-0.9-0.5-0.9-1.1v-9.1
								c0-0.6,0.4-1.1,0.9-1.1c0.5,0,0.9,0.5,0.9,1.1V844.2z"/>
							<path id="XMLID_377_" class="st18" d="M504.5,844.2c0,0.6-0.4,1.1-0.9,1.1c-0.5,0-0.9-0.5-0.9-1.1v-9.1
								c0-0.6,0.4-1.1,0.9-1.1c0.5,0,0.9,0.5,0.9,1.1V844.2z"/>
							<rect id="XMLID_376_" x="500.6" y="830.7" class="st17" width="3.9" height="5.8"/>
							<path id="XMLID_375_" class="st17" d="M500,828.8h5c0.7,0,1.2,0.6,1.2,1.2v1.1h-7.5v-1.1C498.8,829.4,499.4,828.8,500,828.8z
								"/>
						</g>
					</g>
					<rect id="XMLID_372_" x="508.1" y="825.1" class="st17" width="0.6" height="20.2"/>
				</g>
			</g>
			<g id="IconBaño_16_">
				<path id="XMLID_370_" class="st15" d="M267.9,776.8h-22.7c-0.5,0-0.9-0.4-0.9-0.9v-22.7c0-0.5,0.4-0.9,0.9-0.9h22.7
					c0.5,0,0.9,0.4,0.9,0.9v22.7C268.8,776.4,268.4,776.8,267.9,776.8z"/>
				<path id="XMLID_369_" class="st16" d="M267.9,752.3c-6.5,0-12.4,2.6-16.7,6.9c-4.3,4.3-6.9,10.2-6.9,16.7v-22.7
					c0-0.5,0.4-0.9,0.9-0.9H267.9z"/>
				<g id="XMLID_348_">
					<g id="XMLID_350_">
						<g id="XMLID_359_">
							<path id="XMLID_368_" class="st17" d="M261.9,757.7c0.9,0,1.6-0.7,1.6-1.6c0-0.9-0.7-1.6-1.6-1.6c-0.9,0-1.6,0.7-1.6,1.6
								C260.3,757,261,757.7,261.9,757.7z"/>
							<g id="XMLID_365_">
								<path id="XMLID_367_" class="st18" d="M261.7,773.6c0,0.6-0.4,1.1-0.9,1.1s-0.9-0.5-0.9-1.1v-9.1c0-0.6,0.4-1.1,0.9-1.1
									s0.9,0.5,0.9,1.1V773.6z"/>
								<path id="XMLID_366_" class="st18" d="M263.9,773.6c0,0.6-0.4,1.1-0.9,1.1s-0.9-0.5-0.9-1.1v-9.1c0-0.6,0.4-1.1,0.9-1.1
									s0.9,0.5,0.9,1.1V773.6z"/>
							</g>
							<polygon id="XMLID_364_" class="st17" points="259.3,767.4 264.6,767.4 263.3,759.1 260.6,759.1 							"/>
							<path id="XMLID_363_" class="st17" d="M260,758.2h3.9c0.7,0,1.2,0.6,1.2,1.2v1.1h-6.4v-1.1
								C258.7,758.8,259.3,758.2,260,758.2z"/>
							<g id="XMLID_360_">
								<path id="XMLID_362_" class="st18" d="M259.2,765.4c-0.1,0.4-0.4,0.6-0.8,0.6c-0.4-0.1-0.6-0.4-0.6-0.8l1-5.8
									c0.1-0.4,0.4-0.6,0.8-0.6c0.4,0.1,0.6,0.4,0.6,0.8L259.2,765.4z"/>
								<path id="XMLID_361_" class="st18" d="M264.7,765.4c0.1,0.4,0.4,0.6,0.8,0.6c0.4-0.1,0.6-0.4,0.6-0.8l-1-5.8
									c-0.1-0.4-0.4-0.6-0.8-0.6c-0.4,0.1-0.6,0.4-0.6,0.8L264.7,765.4z"/>
							</g>
						</g>
						<g id="XMLID_351_">
							<path id="XMLID_358_" class="st17" d="M250.8,757.7c0.9,0,1.6-0.7,1.6-1.6c0-0.9-0.7-1.6-1.6-1.6c-0.9,0-1.6,0.7-1.6,1.6
								C249.2,757,249.9,757.7,250.8,757.7z"/>
							<path id="XMLID_357_" class="st18" d="M248.4,765.3c0,0.4-0.3,0.7-0.7,0.7c-0.4,0-0.7-0.3-0.7-0.7v-5.9
								c0-0.4,0.3-0.7,0.7-0.7c0.4,0,0.7,0.3,0.7,0.7V765.3z"/>
							<path id="XMLID_356_" class="st18" d="M254.5,765.3c0,0.4-0.3,0.7-0.7,0.7c-0.4,0-0.7-0.3-0.7-0.7v-5.9
								c0-0.4,0.3-0.7,0.7-0.7c0.4,0,0.7,0.3,0.7,0.7V765.3z"/>
							<path id="XMLID_355_" class="st18" d="M250.5,773.6c0,0.6-0.4,1.1-0.9,1.1s-0.9-0.5-0.9-1.1v-9.1c0-0.6,0.4-1.1,0.9-1.1
								s0.9,0.5,0.9,1.1V773.6z"/>
							<path id="XMLID_354_" class="st18" d="M252.7,773.6c0,0.6-0.4,1.1-0.9,1.1c-0.5,0-0.9-0.5-0.9-1.1v-9.1
								c0-0.6,0.4-1.1,0.9-1.1c0.5,0,0.9,0.5,0.9,1.1V773.6z"/>
							<rect id="XMLID_353_" x="248.8" y="760.1" class="st17" width="3.9" height="5.8"/>
							<path id="XMLID_352_" class="st17" d="M248.2,758.2h5c0.7,0,1.2,0.6,1.2,1.2v1.1H247v-1.1C247,758.8,247.6,758.2,248.2,758.2
								z"/>
						</g>
					</g>
					<rect id="XMLID_349_" x="256.2" y="754.5" class="st17" width="0.6" height="20.2"/>
				</g>
			</g>
			<g id="IconBaño_15_">
				<path id="XMLID_347_" class="st15" d="M353.7,624.9H331c-0.5,0-0.9-0.4-0.9-0.9v-22.7c0-0.5,0.4-0.9,0.9-0.9h22.7
					c0.5,0,0.9,0.4,0.9,0.9V624C354.6,624.5,354.2,624.9,353.7,624.9z"/>
				<path id="XMLID_346_" class="st16" d="M353.7,600.4c-6.5,0-12.4,2.6-16.7,6.9c-4.3,4.3-6.9,10.2-6.9,16.7v-22.7
					c0-0.5,0.4-0.9,0.9-0.9H353.7z"/>
				<g id="XMLID_325_">
					<g id="XMLID_327_">
						<g id="XMLID_336_">
							<path id="XMLID_345_" class="st17" d="M347.7,605.8c0.9,0,1.6-0.7,1.6-1.6c0-0.9-0.7-1.6-1.6-1.6s-1.6,0.7-1.6,1.6
								C346.1,605.1,346.9,605.8,347.7,605.8z"/>
							<g id="XMLID_342_">
								<path id="XMLID_344_" class="st18" d="M347.5,621.7c0,0.6-0.4,1.1-0.9,1.1s-0.9-0.5-0.9-1.1v-9.1c0-0.6,0.4-1.1,0.9-1.1
									s0.9,0.5,0.9,1.1V621.7z"/>
								<path id="XMLID_343_" class="st18" d="M349.7,621.7c0,0.6-0.4,1.1-0.9,1.1s-0.9-0.5-0.9-1.1v-9.1c0-0.6,0.4-1.1,0.9-1.1
									s0.9,0.5,0.9,1.1V621.7z"/>
							</g>
							<polygon id="XMLID_341_" class="st17" points="345.1,615.5 350.4,615.5 349.1,607.2 346.4,607.2 							"/>
							<path id="XMLID_340_" class="st17" d="M345.8,606.3h3.9c0.7,0,1.2,0.6,1.2,1.2v1.1h-6.4v-1.1
								C344.6,606.9,345.1,606.3,345.8,606.3z"/>
							<g id="XMLID_337_">
								<path id="XMLID_339_" class="st18" d="M345,613.5c-0.1,0.4-0.4,0.6-0.8,0.6c-0.4-0.1-0.6-0.4-0.6-0.8l1-5.8
									c0.1-0.4,0.4-0.6,0.8-0.6c0.4,0.1,0.6,0.4,0.6,0.8L345,613.5z"/>
								<path id="XMLID_338_" class="st18" d="M350.5,613.5c0.1,0.4,0.4,0.6,0.8,0.6c0.4-0.1,0.6-0.4,0.6-0.8l-1-5.8
									c-0.1-0.4-0.4-0.6-0.8-0.6c-0.4,0.1-0.6,0.4-0.6,0.8L350.5,613.5z"/>
							</g>
						</g>
						<g id="XMLID_328_">
							<path id="XMLID_335_" class="st17" d="M336.6,605.8c0.9,0,1.6-0.7,1.6-1.6c0-0.9-0.7-1.6-1.6-1.6c-0.9,0-1.6,0.7-1.6,1.6
								C335,605.1,335.8,605.8,336.6,605.8z"/>
							<path id="XMLID_334_" class="st18" d="M334.2,613.4c0,0.4-0.3,0.7-0.7,0.7c-0.4,0-0.7-0.3-0.7-0.7v-5.9
								c0-0.4,0.3-0.7,0.7-0.7c0.4,0,0.7,0.3,0.7,0.7V613.4z"/>
							<path id="XMLID_333_" class="st18" d="M340.3,613.4c0,0.4-0.3,0.7-0.7,0.7s-0.7-0.3-0.7-0.7v-5.9c0-0.4,0.3-0.7,0.7-0.7
								s0.7,0.3,0.7,0.7V613.4z"/>
							<path id="XMLID_332_" class="st18" d="M336.3,621.7c0,0.6-0.4,1.1-0.9,1.1c-0.5,0-0.9-0.5-0.9-1.1v-9.1
								c0-0.6,0.4-1.1,0.9-1.1c0.5,0,0.9,0.5,0.9,1.1V621.7z"/>
							<path id="XMLID_331_" class="st18" d="M338.5,621.7c0,0.6-0.4,1.1-0.9,1.1c-0.5,0-0.9-0.5-0.9-1.1v-9.1
								c0-0.6,0.4-1.1,0.9-1.1c0.5,0,0.9,0.5,0.9,1.1V621.7z"/>
							<rect id="XMLID_330_" x="334.6" y="608.2" class="st17" width="3.9" height="5.8"/>
							<path id="XMLID_329_" class="st17" d="M334,606.3h5c0.7,0,1.2,0.6,1.2,1.2v1.1h-7.5v-1.1C332.8,606.9,333.4,606.3,334,606.3z
								"/>
						</g>
					</g>
					<rect id="XMLID_326_" x="342.1" y="602.6" class="st17" width="0.6" height="20.2"/>
				</g>
			</g>
			<g id="IconBaño_14_">
				<path id="XMLID_324_" class="st15" d="M563.9,584.5h-22.7c-0.5,0-0.9-0.4-0.9-0.9v-22.7c0-0.5,0.4-0.9,0.9-0.9h22.7
					c0.5,0,0.9,0.4,0.9,0.9v22.7C564.8,584.1,564.4,584.5,563.9,584.5z"/>
				<path id="XMLID_323_" class="st16" d="M563.9,560c-6.5,0-12.4,2.6-16.7,6.9s-6.9,10.2-6.9,16.7v-22.7c0-0.5,0.4-0.9,0.9-0.9
					H563.9z"/>
				<g id="XMLID_302_">
					<g id="XMLID_304_">
						<g id="XMLID_313_">
							<path id="XMLID_322_" class="st17" d="M557.9,565.4c0.9,0,1.6-0.7,1.6-1.6c0-0.9-0.7-1.6-1.6-1.6c-0.9,0-1.6,0.7-1.6,1.6
								C556.3,564.6,557,565.4,557.9,565.4z"/>
							<g id="XMLID_319_">
								<path id="XMLID_321_" class="st18" d="M557.7,581.2c0,0.6-0.4,1.1-0.9,1.1c-0.5,0-0.9-0.5-0.9-1.1v-9.1
									c0-0.6,0.4-1.1,0.9-1.1c0.5,0,0.9,0.5,0.9,1.1V581.2z"/>
								<path id="XMLID_320_" class="st18" d="M559.9,581.2c0,0.6-0.4,1.1-0.9,1.1c-0.5,0-0.9-0.5-0.9-1.1v-9.1
									c0-0.6,0.4-1.1,0.9-1.1c0.5,0,0.9,0.5,0.9,1.1V581.2z"/>
							</g>
							<polygon id="XMLID_318_" class="st17" points="555.3,575.1 560.6,575.1 559.3,566.8 556.6,566.8 							"/>
							<path id="XMLID_317_" class="st17" d="M556,565.9h3.9c0.7,0,1.2,0.6,1.2,1.2v1.1h-6.4v-1.1
								C554.8,566.4,555.3,565.9,556,565.9z"/>
							<g id="XMLID_314_">
								<path id="XMLID_316_" class="st18" d="M555.2,573.1c-0.1,0.4-0.4,0.6-0.8,0.6c-0.4-0.1-0.6-0.4-0.6-0.8l1-5.8
									c0.1-0.4,0.4-0.6,0.8-0.6c0.4,0.1,0.6,0.4,0.6,0.8L555.2,573.1z"/>
								<path id="XMLID_315_" class="st18" d="M560.7,573.1c0.1,0.4,0.4,0.6,0.8,0.6c0.4-0.1,0.6-0.4,0.6-0.8l-1-5.8
									c-0.1-0.4-0.4-0.6-0.8-0.6c-0.4,0.1-0.6,0.4-0.6,0.8L560.7,573.1z"/>
							</g>
						</g>
						<g id="XMLID_305_">
							<path id="XMLID_312_" class="st17" d="M546.8,565.4c0.9,0,1.6-0.7,1.6-1.6c0-0.9-0.7-1.6-1.6-1.6c-0.9,0-1.6,0.7-1.6,1.6
								C545.2,564.6,546,565.4,546.8,565.4z"/>
							<path id="XMLID_311_" class="st18" d="M544.4,573c0,0.4-0.3,0.7-0.7,0.7c-0.4,0-0.7-0.3-0.7-0.7v-5.9c0-0.4,0.3-0.7,0.7-0.7
								c0.4,0,0.7,0.3,0.7,0.7V573z"/>
							<path id="XMLID_310_" class="st18" d="M550.5,573c0,0.4-0.3,0.7-0.7,0.7s-0.7-0.3-0.7-0.7v-5.9c0-0.4,0.3-0.7,0.7-0.7
								s0.7,0.3,0.7,0.7V573z"/>
							<path id="XMLID_309_" class="st18" d="M546.5,581.2c0,0.6-0.4,1.1-0.9,1.1c-0.5,0-0.9-0.5-0.9-1.1v-9.1
								c0-0.6,0.4-1.1,0.9-1.1c0.5,0,0.9,0.5,0.9,1.1V581.2z"/>
							<path id="XMLID_308_" class="st18" d="M548.7,581.2c0,0.6-0.4,1.1-0.9,1.1c-0.5,0-0.9-0.5-0.9-1.1v-9.1
								c0-0.6,0.4-1.1,0.9-1.1c0.5,0,0.9,0.5,0.9,1.1V581.2z"/>
							<rect id="XMLID_307_" x="544.8" y="567.7" class="st17" width="3.9" height="5.8"/>
							<path id="XMLID_306_" class="st17" d="M544.2,565.9h5c0.7,0,1.2,0.6,1.2,1.2v1.1H543v-1.1C543,566.4,543.6,565.9,544.2,565.9
								z"/>
						</g>
					</g>
					<rect id="XMLID_303_" x="552.3" y="562.2" class="st17" width="0.6" height="20.2"/>
				</g>
			</g>
			<g id="IconBaño_13_">
				<path id="XMLID_301_" class="st15" d="M541.6,377.5h-22.7c-0.5,0-0.9-0.4-0.9-0.9v-22.7c0-0.5,0.4-0.9,0.9-0.9h22.7
					c0.5,0,0.9,0.4,0.9,0.9v22.7C542.5,377.1,542.1,377.5,541.6,377.5z"/>
				<path id="XMLID_300_" class="st16" d="M541.6,353c-6.5,0-12.4,2.6-16.7,6.9s-6.9,10.2-6.9,16.7v-22.7c0-0.5,0.4-0.9,0.9-0.9
					H541.6z"/>
				<g id="XMLID_279_">
					<g id="XMLID_281_">
						<g id="XMLID_290_">
							<path id="XMLID_299_" class="st17" d="M535.6,358.4c0.9,0,1.6-0.7,1.6-1.6c0-0.9-0.7-1.6-1.6-1.6c-0.9,0-1.6,0.7-1.6,1.6
								C534,357.6,534.7,358.4,535.6,358.4z"/>
							<g id="XMLID_296_">
								<path id="XMLID_298_" class="st18" d="M535.4,374.2c0,0.6-0.4,1.1-0.9,1.1c-0.5,0-0.9-0.5-0.9-1.1v-9.1
									c0-0.6,0.4-1.1,0.9-1.1c0.5,0,0.9,0.5,0.9,1.1V374.2z"/>
								<path id="XMLID_297_" class="st18" d="M537.6,374.2c0,0.6-0.4,1.1-0.9,1.1c-0.5,0-0.9-0.5-0.9-1.1v-9.1
									c0-0.6,0.4-1.1,0.9-1.1c0.5,0,0.9,0.5,0.9,1.1V374.2z"/>
							</g>
							<polygon id="XMLID_295_" class="st17" points="533,368.1 538.3,368.1 537,359.7 534.3,359.7 							"/>
							<path id="XMLID_294_" class="st17" d="M533.6,358.9h3.9c0.7,0,1.2,0.6,1.2,1.2v1.1h-6.4v-1.1
								C532.4,359.4,533,358.9,533.6,358.9z"/>
							<g id="XMLID_291_">
								<path id="XMLID_293_" class="st18" d="M532.8,366.1c-0.1,0.4-0.4,0.6-0.8,0.6c-0.4-0.1-0.6-0.4-0.6-0.8l1-5.8
									c0.1-0.4,0.4-0.6,0.8-0.6c0.4,0.1,0.6,0.4,0.6,0.8L532.8,366.1z"/>
								<path id="XMLID_292_" class="st18" d="M538.4,366.1c0.1,0.4,0.4,0.6,0.8,0.6c0.4-0.1,0.6-0.4,0.6-0.8l-1-5.8
									c-0.1-0.4-0.4-0.6-0.8-0.6c-0.4,0.1-0.6,0.4-0.6,0.8L538.4,366.1z"/>
							</g>
						</g>
						<g id="XMLID_282_">
							<path id="XMLID_289_" class="st17" d="M524.5,358.4c0.9,0,1.6-0.7,1.6-1.6c0-0.9-0.7-1.6-1.6-1.6c-0.9,0-1.6,0.7-1.6,1.6
								C522.9,357.6,523.6,358.4,524.5,358.4z"/>
							<path id="XMLID_288_" class="st18" d="M522.1,366c0,0.4-0.3,0.7-0.7,0.7c-0.4,0-0.7-0.3-0.7-0.7v-5.9c0-0.4,0.3-0.7,0.7-0.7
								c0.4,0,0.7,0.3,0.7,0.7V366z"/>
							<path id="XMLID_287_" class="st18" d="M528.2,366c0,0.4-0.3,0.7-0.7,0.7s-0.7-0.3-0.7-0.7v-5.9c0-0.4,0.3-0.7,0.7-0.7
								s0.7,0.3,0.7,0.7V366z"/>
							<path id="XMLID_286_" class="st18" d="M524.2,374.2c0,0.6-0.4,1.1-0.9,1.1c-0.5,0-0.9-0.5-0.9-1.1v-9.1
								c0-0.6,0.4-1.1,0.9-1.1c0.5,0,0.9,0.5,0.9,1.1V374.2z"/>
							<path id="XMLID_285_" class="st18" d="M526.4,374.2c0,0.6-0.4,1.1-0.9,1.1c-0.5,0-0.9-0.5-0.9-1.1v-9.1
								c0-0.6,0.4-1.1,0.9-1.1c0.5,0,0.9,0.5,0.9,1.1V374.2z"/>
							<rect id="XMLID_284_" x="522.5" y="360.7" class="st17" width="3.9" height="5.8"/>
							<path id="XMLID_283_" class="st17" d="M521.9,358.9h5c0.7,0,1.2,0.6,1.2,1.2v1.1h-7.5v-1.1
								C520.7,359.4,521.3,358.9,521.9,358.9z"/>
						</g>
					</g>
					<rect id="XMLID_280_" x="529.9" y="355.1" class="st17" width="0.6" height="20.2"/>
				</g>
			</g>
			<g id="IconBaño_12_">
				<path id="XMLID_278_" class="st15" d="M308.9,82.8h-22.7c-0.5,0-0.9-0.4-0.9-0.9V59.3c0-0.5,0.4-0.9,0.9-0.9h22.7
					c0.5,0,0.9,0.4,0.9,0.9v22.7C309.8,82.4,309.4,82.8,308.9,82.8z"/>
				<path id="XMLID_277_" class="st16" d="M308.9,58.4c-6.5,0-12.4,2.6-16.7,6.9s-6.9,10.2-6.9,16.7V59.3c0-0.5,0.4-0.9,0.9-0.9
					H308.9z"/>
				<g id="XMLID_256_">
					<g id="XMLID_258_">
						<g id="XMLID_267_">
							<path id="XMLID_276_" class="st17" d="M303,63.7c0.9,0,1.6-0.7,1.6-1.6c0-0.9-0.7-1.6-1.6-1.6s-1.6,0.7-1.6,1.6
								C301.4,63,302.1,63.7,303,63.7z"/>
							<g id="XMLID_273_">
								<path id="XMLID_275_" class="st18" d="M302.7,79.6c0,0.6-0.4,1.1-0.9,1.1c-0.5,0-0.9-0.5-0.9-1.1v-9.1
									c0-0.6,0.4-1.1,0.9-1.1c0.5,0,0.9,0.5,0.9,1.1V79.6z"/>
								<path id="XMLID_274_" class="st18" d="M304.9,79.6c0,0.6-0.4,1.1-0.9,1.1c-0.5,0-0.9-0.5-0.9-1.1v-9.1
									c0-0.6,0.4-1.1,0.9-1.1c0.5,0,0.9,0.5,0.9,1.1V79.6z"/>
							</g>
							<polygon id="XMLID_272_" class="st17" points="300.3,73.4 305.6,73.4 304.3,65.1 301.6,65.1 							"/>
							<path id="XMLID_271_" class="st17" d="M301,64.2h3.9c0.7,0,1.2,0.6,1.2,1.2v1.1h-6.4v-1.1C299.8,64.8,300.3,64.2,301,64.2z"
								/>
							<g id="XMLID_268_">
								<path id="XMLID_270_" class="st18" d="M300.2,71.5c-0.1,0.4-0.4,0.6-0.8,0.6c-0.4-0.1-0.6-0.4-0.6-0.8l1-5.8
									c0.1-0.4,0.4-0.6,0.8-0.6c0.4,0.1,0.6,0.4,0.6,0.8L300.2,71.5z"/>
								<path id="XMLID_269_" class="st18" d="M305.7,71.5c0.1,0.4,0.4,0.6,0.8,0.6c0.4-0.1,0.6-0.4,0.6-0.8l-1-5.8
									c-0.1-0.4-0.4-0.6-0.8-0.6c-0.4,0.1-0.6,0.4-0.6,0.8L305.7,71.5z"/>
							</g>
						</g>
						<g id="XMLID_259_">
							<path id="XMLID_266_" class="st17" d="M291.9,63.7c0.9,0,1.6-0.7,1.6-1.6c0-0.9-0.7-1.6-1.6-1.6c-0.9,0-1.6,0.7-1.6,1.6
								C290.3,63,291,63.7,291.9,63.7z"/>
							<path id="XMLID_265_" class="st18" d="M289.4,71.3c0,0.4-0.3,0.7-0.7,0.7c-0.4,0-0.7-0.3-0.7-0.7v-5.9c0-0.4,0.3-0.7,0.7-0.7
								c0.4,0,0.7,0.3,0.7,0.7V71.3z"/>
							<path id="XMLID_264_" class="st18" d="M295.5,71.3c0,0.4-0.3,0.7-0.7,0.7c-0.4,0-0.7-0.3-0.7-0.7v-5.9c0-0.4,0.3-0.7,0.7-0.7
								c0.4,0,0.7,0.3,0.7,0.7V71.3z"/>
							<path id="XMLID_263_" class="st18" d="M291.6,79.6c0,0.6-0.4,1.1-0.9,1.1c-0.5,0-0.9-0.5-0.9-1.1v-9.1c0-0.6,0.4-1.1,0.9-1.1
								c0.5,0,0.9,0.5,0.9,1.1V79.6z"/>
							<path id="XMLID_262_" class="st18" d="M293.7,79.6c0,0.6-0.4,1.1-0.9,1.1c-0.5,0-0.9-0.5-0.9-1.1v-9.1c0-0.6,0.4-1.1,0.9-1.1
								c0.5,0,0.9,0.5,0.9,1.1V79.6z"/>
							<rect id="XMLID_261_" x="289.8" y="66.1" class="st17" width="3.9" height="5.8"/>
							<path id="XMLID_260_" class="st17" d="M289.3,64.2h5c0.7,0,1.2,0.6,1.2,1.2v1.1h-7.5v-1.1C288.1,64.8,288.6,64.2,289.3,64.2z
								"/>
						</g>
					</g>
					<rect id="XMLID_257_" x="297.3" y="60.5" class="st17" width="0.6" height="20.2"/>
				</g>
			</g>
		</g>
		<g>
			<path class="st19" d="M316.3,1688.6h-20.4c-1.3,0-2.3-1-2.3-2.3V1666c0-1.3,1-2.3,2.3-2.3h20.4c1.3,0,2.3,1,2.3,2.3v20.4
				C318.6,1687.6,317.6,1688.6,316.3,1688.6z"/>
			<path class="st13" d="M307.1,1673.9c0.6,0.7,1.3,1.4,1.9,2c0.3,0.3,0.5,0.6,0.8,0.9c0.4,0.4,0.9,0.4,1.3,0.2
				c0.4-0.3,0.5-0.8,0.3-1.2c-0.2-0.4-0.7-0.6-1.2-0.5c-0.1,0-0.2,0.1-0.3,0.1c-0.1,0-0.3,0-0.4-0.1c-0.2-0.2-0.4-0.4-0.5-0.6
				c-0.2-0.2-0.1-0.4,0.1-0.5c0.8-0.5,1.8-0.6,2.7,0c0.8,0.5,1.2,1.5,1,2.5c-0.2,0.9-1,1.7-1.9,1.8c-0.8,0.1-1.5-0.1-2-0.6
				c-1.1-1.1-2.1-2.2-3.2-3.4c-0.2-0.3-0.3-0.6-0.1-0.9c0.9-1.7,2.4-2.8,4.4-3c2.8-0.3,5.5,1.6,6,4.5c0.6,3-1.5,6-4.5,6.5
				c-1.3,0.2-2.5,0-3.7-0.6c-0.4-0.2-0.4-0.3-0.2-0.7c0.1-0.1,0.2-0.3,0.3-0.4c0.2-0.3,0.3-0.3,0.6-0.2c1.4,0.7,2.7,0.7,4-0.1
				c1.5-0.9,2.3-2.6,2-4.3c-0.3-1.7-1.7-3.1-3.4-3.3C309.5,1671.8,307.9,1672.6,307.1,1673.9z"/>
			<path class="st13" d="M305.1,1678.4c-1-1-1.9-2-2.8-3c-0.3-0.3-0.8-0.3-1.2-0.1c-0.4,0.3-0.5,0.7-0.3,1.2
				c0.2,0.4,0.6,0.7,1.1,0.6c0,0,0.1,0,0.1,0c0.2,0,0.4-0.2,0.5-0.1c0.3,0.2,0.5,0.5,0.7,0.7c0.1,0.1,0,0.3-0.1,0.4
				c-1.1,0.7-2.4,0.5-3.3-0.5c-0.8-1-0.7-2.4,0.3-3.2c0.9-0.9,2.4-0.8,3.2,0.1c1.1,1.1,2.1,2.2,3.2,3.4c0.3,0.3,0.3,0.6,0.1,0.9
				c-1.1,2-3.3,3.2-5.5,2.9c-2.3-0.3-4.2-1.9-4.7-4.1c-0.5-2.3,0.1-4.3,2-5.7c1.8-1.4,3.9-1.6,6-0.6c0.1,0,0.2,0.1,0.3,0.1
				c0.2,0.1,0.2,0.3,0.1,0.5c-0.1,0.2-0.3,0.4-0.4,0.6c-0.2,0.2-0.3,0.2-0.5,0c-1-0.5-2.1-0.7-3.2-0.3c-1.9,0.6-3.2,2.5-2.9,4.4
				c0.3,2.1,1.9,3.6,4,3.7C303,1680.3,304.2,1679.7,305.1,1678.4z"/>
		</g>
		<g>
			<path class="st20" d="M344.9,1688.6h-20.4c-1.3,0-2.3-1-2.3-2.3V1666c0-1.3,1-2.3,2.3-2.3h20.4c1.3,0,2.3,1,2.3,2.3v20.4
				C347.2,1687.6,346.1,1688.6,344.9,1688.6z"/>
			<g>
				<path class="st13" d="M344.9,1675c0,0.1-0.1,0.2-0.1,0.2c-0.1,0.1-0.2,0.2-0.4,0.2c-0.2,0-0.5,0-0.7,0c0-1.3,0-2.5,0-3.8
					c0.3,0,0.5,0,0.7,0c0.3,0,0.4,0.2,0.5,0.5C344.9,1673.1,344.9,1674.1,344.9,1675z"/>
				<path class="st13" d="M324.5,1672.2c0.2-0.6,0.8-0.5,1.3-0.5c0,1.3,0,2.5,0,3.8c-0.3,0-0.5,0-0.8,0c-0.3,0-0.4-0.2-0.5-0.5
					C324.5,1674.1,324.5,1673.1,324.5,1672.2z"/>
				<path class="st13" d="M341,1683.2c0,0.4,0,0.8,0,1.2c0,0.3-0.1,0.6-0.2,0.8c-0.2,0.3-0.5,0.5-0.9,0.5c-0.5,0-1,0-1.5,0
					c-0.6,0-1.1-0.6-1.1-1.3c0-0.4,0-0.7,0-1.1c0-0.1,0-0.1,0-0.2c-1.7,0-3.4,0-5.1,0c0,0.1,0,0.1,0,0.2c0,0.3,0,0.7,0,1
					c0,0.8-0.6,1.4-1.3,1.3c-0.4,0-0.8,0-1.2,0c-0.8,0-1.3-0.5-1.3-1.3c0-0.4,0-0.8,0-1.2c-0.2-0.1-0.4-0.1-0.5-0.2
					c-0.5-0.2-0.7-0.6-0.7-1.1c0-0.1,0-0.1,0-0.2c0-3.7,0-7.5,0-11.2c0-0.6,0.1-1.3,0.4-1.9c0.7-1.3,1.8-2,3.2-2.1
					c1.4,0,2.8,0,4.1,0c1.2,0,2.4,0,3.6,0c0.7,0,1.3,0.1,1.8,0.4c0.7,0.4,1.2,0.9,1.5,1.5c0.3,0.6,0.5,1.2,0.5,1.9
					c0,3.8,0,7.5,0,11.3c0,0.7-0.3,1.1-0.9,1.3C341.3,1683.1,341.2,1683.1,341,1683.2z M328.3,1670.4c0,2.6,0,5.1,0,7.6
					c4.3,0,8.5,0,12.7,0c0-2.6,0-5.1,0-7.6C336.8,1670.4,332.6,1670.4,328.3,1670.4z M337.2,1669.1c0-0.4,0-0.8,0-1.3
					c-1.7,0-3.4,0-5.1,0c0,0.4,0,0.8,0,1.3C333.8,1669.1,335.5,1669.1,337.2,1669.1z M328.3,1680.6c0,0.7,0.6,1.3,1.3,1.2
					c0.7,0,1.3-0.6,1.2-1.3c0-0.7-0.6-1.2-1.3-1.2C328.9,1679.4,328.3,1679.9,328.3,1680.6z M339.8,1681.9c0.7,0,1.3-0.5,1.3-1.3
					c0-0.7-0.5-1.3-1.3-1.3c-0.7,0-1.3,0.5-1.3,1.2C338.5,1681.3,339.1,1681.9,339.8,1681.9z"/>
			</g>
		</g>
		<polyline id="Reja_1_" class="st27" points="96.7,9.5 96.7,1262.8 37.5,1282.4 37.5,1562.2 49.7,1574.4 120.7,1574.4 
			120.7,1578.3 197.8,1655.4 622.7,1655.4 622.7,92.2 677.2,92.2 		"/>
		
			<image style="display:none;overflow:visible;" width="1887" height="653" xlink:href="B8F8F572.jpg"  transform="matrix(-1.370452e-10 1.0175 -1.0175 -1.370452e-10 685.9349 0)">
		</image>
		<line class="st28" x1="658.4" y1="1723.6" x2="26.3" y2="1723.6"/>
		<line class="st28" x1="658.4" y1="1782.8" x2="26.3" y2="1782.8"/>
		<path class="st25" d="M96.7,1905.3c-46,0-47-70.5,0-70.5h580.4v70.5H96.7z"/>
	</g>
</g>
</svg>
