<?xml version="1.0" encoding="utf-8"?>
<!-- Generator: Adobe Illustrator 23.0.5, SVG Export Plug-In . SVG Version: 6.00 Build 0)  -->
<svg version="1.1" xmlns="http://www.w3.org/2000/svg" xmlns:xlink="http://www.w3.org/1999/xlink" x="0px" y="0px"
	 viewBox="0 0 7765 1296.7" style="enable-background:new 0 0 7765 1296.7;" xml:space="preserve">
<style type="text/css">
	.st0{display:none;}
	.st1{display:inline;fill:#606060;}
	.st2{fill:#FFFFFF;}
	.st3{fill:url(#SVGID_1_);}
	.st4{fill:url(#Exterior_1_);}
	.st5{fill:url(#Nombre_1_);}
	.st6{fill:url(#Exterior_3_);}
</style>
<g id="Fondos" class="st0">
</g>
<g id="Ãcono">
</g>
<g id="Horizontal">
	<g>
		<linearGradient id="Nombre_1_" gradientUnits="userSpaceOnUse" x1="4760.5073" y1="1028.8927" x2="4721.1465" y2="418.7946">
			<stop  offset="0" style="stop-color:#136BAE"/>
			<stop  offset="1" style="stop-color:#009FBD"/>
		</linearGradient>
		<path id="Nombre" class="st5" d="M1892.9,395.8v212.4h372v149.2h-372v292.7h-186V246.6h607.3v149.2H1892.9z M2408.4,246.6h186
			v803.6h-186V246.6z M3578.7,282.1c52.4,23.7,92.8,57.4,121.1,101c28.3,43.6,42.5,95.3,42.5,155c0,58.9-14.2,110.4-42.5,154.4
			c-28.3,44-68.7,77.7-121.1,101c-52.4,23.3-114.2,35-185.4,35h-161.9v221.6h-186V246.6h347.8
			C3464.5,246.6,3526.3,258.4,3578.7,282.1z M3510.4,640.9c29.1-24.1,43.6-58.4,43.6-102.7c0-45.2-14.6-79.8-43.6-103.9
			c-29.1-24.1-71.6-36.2-127.4-36.2h-151.5v279H3383C3438.9,677.1,3481.3,665,3510.4,640.9z M4017.3,1010
			c-67-36-119.4-85.5-157.3-148.7c-37.9-63.1-56.8-134.1-56.8-213c0-78.8,18.9-149.8,56.8-213c37.9-63.1,90.3-112.7,157.3-148.7
			c67-36,142.2-54,225.6-54s158.4,18,225,54c66.6,36,119,85.5,157.3,148.7c38.3,63.1,57.4,134.1,57.4,213
			c0,78.8-19.1,149.8-57.4,213c-38.3,63.1-90.7,112.7-157.3,148.7c-66.6,36-141.6,54-225,54S4084.3,1046,4017.3,1010z M4371.5,872.8
			c38.3-21.8,68.3-52.2,90.1-91.3c21.8-39,32.7-83.4,32.7-133.2c0-49.7-10.9-94.1-32.7-133.2c-21.8-39-51.8-69.4-90.1-91.3
			c-38.3-21.8-81.1-32.7-128.6-32.7s-90.3,10.9-128.6,32.7c-38.3,21.8-68.3,52.2-90.1,91.3c-21.8,39-32.7,83.4-32.7,133.2
			c0,49.7,10.9,94.1,32.7,133.2c21.8,39,51.8,69.5,90.1,91.3c38.3,21.8,81.1,32.7,128.6,32.7S4333.2,894.6,4371.5,872.8z
			 M4952.9,1010.6c-66.2-35.6-118.2-85-156.1-148.1c-37.9-63.1-56.8-134.5-56.8-214.1c0-79.6,18.9-151,56.8-214.1
			c37.9-63.1,89.9-112.5,156.1-148.1s140.6-53.4,223.3-53.4c69.6,0,132.6,12.2,188.8,36.7c56.2,24.5,103.5,59.7,141.8,105.6
			l-119.4,110.2c-54.4-62.8-121.7-94.1-202.1-94.1c-49.7,0-94.1,10.9-133.2,32.7c-39,21.8-69.5,52.2-91.3,91.3
			c-21.8,39-32.7,83.4-32.7,133.2c0,49.7,10.9,94.1,32.7,133.2c21.8,39,52.2,69.5,91.3,91.3c39,21.8,83.4,32.7,133.2,32.7
			c80.4,0,147.7-31.8,202.1-95.3l119.4,110.2c-38.3,46.7-85.7,82.3-142.4,106.8c-56.6,24.5-119.8,36.7-189.4,36.7
			C5093.2,1063.9,5019.1,1046.2,4952.9,1010.6z M5892.6,734.5L5784.7,847v203.2h-184.8V246.6h184.8V622l355.9-375.4h206.6
			l-332.9,358.2l352.4,445.4h-217L5892.6,734.5z M7039.5,900.9v149.2h-622.2V246.6h607.3v149.2h-422.5v174.5h373.1V715h-373.1v186
			H7039.5z M7321.9,398.1h-257.2V246.6H7765v151.5h-257.2v652.1h-186V398.1z"/>
		<g id="Logo_1_">
			
				<radialGradient id="Exterior_1_" cx="-6594.1675" cy="-6881.1479" r="1306.1749" gradientTransform="matrix(1 0 0 1 7248 8191)" gradientUnits="userSpaceOnUse">
				<stop  offset="0" style="stop-color:#136BAE"/>
				<stop  offset="1" style="stop-color:#009FBD"/>
			</radialGradient>
			<path id="Exterior_2_" class="st4" d="M773,1296.7l-249.3,0C235.7,1296.7,0,1061.1,0,773l0-652.7C0,54.1,54.1,0,120.3,0l1056.2,0
				c66.1,0,120.3,54.1,120.3,120.3l0,652.7C1296.7,1061.1,1061.1,1296.7,773,1296.7z"/>
			<path id="Interior_1_" class="st2" d="M725.3,1048.5H571.4c-177.8,0-323.2-145.5-323.2-323.2l0-402.9c0-40.8,33.4-74.2,74.2-74.2
				l651.9,0c40.8,0,74.2,33.4,74.2,74.2l0,402.9C1048.5,903.1,903.1,1048.5,725.3,1048.5z"/>
		</g>
	</g>
</g>
</svg>
