<?xml version="1.0" encoding="utf-8"?>
<!-- Generator: Adobe Illustrator 23.0.5, SVG Export Plug-In . SVG Version: 6.00 Build 0)  -->
<svg version="1.1" id="Capa_1_copia" xmlns="http://www.w3.org/2000/svg" xmlns:xlink="http://www.w3.org/1999/xlink" x="0px"
	 y="0px" viewBox="0 0 647.8 1920" style="enable-background:new 0 0 647.8 1920;" xml:space="preserve">
<style type="text/css">
	.st0{fill:#CECECE;}
	.st1{fill:#EAEAEA;}
	.st2{fill:#D8D8D8;}
	.st3{fill:#9E9E9E;}
	.st4{fill:none;}
	.st5{fill:#FFFFFF;}
	.st6{fill:#009FBD;stroke:#0094A8;stroke-width:2.0255;stroke-linecap:round;stroke-linejoin:round;stroke-miterlimit:10;}
	.st7{fill:#009FBD;stroke:#0094A8;stroke-width:2.0255;stroke-linejoin:round;stroke-miterlimit:10;}
	.st8{fill:#A4C5E2;}
	.st9{fill:#E5E5E5;stroke:#D1CFCD;stroke-width:2.0255;stroke-linejoin:round;stroke-miterlimit:10;}
	.st10{fill:none;stroke:#FFFFFF;stroke-width:2.5875;stroke-miterlimit:10;}
	.st11{fill:none;stroke:#FFFFFF;stroke-width:1.9406;stroke-miterlimit:10;}
	.st12{fill:none;stroke:#FFFFFF;stroke-width:0.991;stroke-miterlimit:10;}
	.st13{fill:#BD5614;}
	.st14{opacity:0.1;fill:#EDEDED;}
	.st15{fill-rule:evenodd;clip-rule:evenodd;fill:#FAFAFA;}
	.st16{fill:#FAFAFA;}
	.st17{fill:#1A5FA9;}
	.st18{fill:#E0AD1E;}
	.st19{fill:none;stroke:#9E9E9E;stroke-width:2.0255;stroke-linejoin:round;stroke-miterlimit:10;}
</style>
<g id="Edificios_copia">
</g>
<g>
	<polygon id="Suelo_1_" class="st0" points="78.6,1281.8 78.6,684 172.4,684 172.4,416.1 85.3,416.1 85.3,96.5 187.6,96.5 
		187.6,285.8 200.7,285.8 200.7,251.3 224.4,251.3 266.3,189.6 345.2,216.2 345.2,226.9 344.8,364.9 237.5,364.9 239.3,362.3 
		230,362.3 217.5,376.7 217.5,419.9 240,419.9 240,522.7 215.1,522.7 215.1,582.7 230,582.7 230.8,649.9 218.8,649.9 218.8,752.3 
		208.6,752.3 208.6,747.1 179.1,747.1 179.1,761.1 196.9,761.1 196.9,851.9 145,851.9 145,822.6 131,822.6 131,872.4 145,872.4 
		145,863.6 208.6,863.6 208.6,851.9 320.3,851.9 320.3,933.8 147.1,933.8 147.1,913.9 124.9,913.9 124.9,1299.9 70.6,1403.1 
		70.6,1543.3 60,1554.9 60,1595.7 592.7,1595.7 592.7,0 60,0 60,1309.4 	"/>
	<polygon id="Estacionamiento_1_" class="st1" points="162.6,1666.9 592.7,1666.9 592.7,1595.7 165.5,1595.7 165.7,1589 
		118.8,1580.5 75,1593.7 152.3,1668.3 	"/>
	<path id="Cesped_1_" class="st2" d="M405.2,1574.3l-3.4-176.6l-11.4-74.5l86.1-7.2l10.1-47.1v-193.7l-6.4-46.8h-11.2l-14-23.8
		l53.3-16.8l-5.2-213.3h89.5V720h-28.2l-67.7-31.8l-0.1-276.9l24.9-2.1l-1.9-198.1l-45.5-1l-2.6-45h-54c1.8,47.1-19,63.6-19,63.6
		h-42l-2.1,136.3H235l-15,16.3l3.1,29.4h18.2v117.7h-16.7l-0.8,41.5l114.8,64.6L336.7,941L131,943.4l4.5,360.4l-55.1,105.8v186.2
		h321.9h2.8V1574.3z M418.2,1052v-19.7l42.8,2.8v-4h14.3v20.9H418.2z M228.8,1408.5v-11.1h30.5v11.1H228.8z"/>
	<path id="Caminos_1_" class="st3" d="M412.2,1488.2H263.2l-45,16h-35.2v-32.1h229.1V1488.2z M194.4,1701.5H159l-37.2-53.8H60v-92.8
		l10.6-11.6v-140.1l54.3-103.2V913.9h22.2v19.9h173.1V753.1h-92.5v-43.2h17.8v16.3h84.8v-85.6H316v-23.3h28.4v-73.4h-90V532h90.8
		V226.9h101.9l-34.1-34.1l5.8-5.8l39.2,39.2h10.6V49.5h11.1v34.4h22.2v-8h65.2V61.6h25.6v8.5h-9.3l-2.6,2.6v155.1h-64.4v-12.7h-37.5
		V240H361v245.1h51.7V472h30v39h-29.7v-11.1h-52.2v51.7H490V414.1h-12.9v-16.3h42.7v16h-16.3v149.7h16.3v155.7h-16v27.7h-18.9v28.4
		l15.8,10.6v10.9L482,784.6h-12.2l-12.4,12.9v-12.9l11.4-9.1v-28.7H348v141.7h127.2l-0.3-42.9l13.7-1.3v108.9h-12.9v-39.6h-75.2v0.8
		V1052h74.7V1031h-12.7v-28.7h11.6v18.4h13.2v-19.1h10.1v31.5h-10.9v42.1h-86.1v155.9c9.1-10.9,30.3-1.1,30.3-1.1s29.2,0.3,34.6,0
		c5.4-0.3,16.8,1,19.1,8.8c2.3,7.8,11.9,7.8,11.9,7.8h12.4v7.8h-39.3c-5.9,1.6-6.7,8.5-6.7,8.5v24.6c8.8,15-2.6,24.6-2.6,24.6H475
		v16h-74.7v44.5h7.2v41.1H401v-9.3h-18.1v-7.5h-61.3v14.7h-9.8v-5.4v-9.3h-44.2v14.7h-8.3v-14.2h-30.5v24.3h-42.7V1407h6.5v-140.7
		h-7l-33.6,32.6h-10.3v8.3l-56.9,102.4v145.3h142.7l-1.6,14.7H84.3v19.1l78.1,78.1h32.1V1701.5z M569.4,212.4v-7.2v-2.6V149h-68.5
		v-7.5h-21.7v7.5v2.3v53.8h45.1v7.2H569.4z M488.9,729.5V569.9H361.3v73.4h-14.5v86.2h14.5h5.9H488.9z M382.7,1255.7h-61v10.9
		l-9.8-1.4v-9.6h-42.9l-54.3,10.6h-9.3v116.1h9.6v-10.6h47.3v10.6h5.4h44.2v-10.6h9.8v10.6h61V1255.7z M400.8,1312.2h29.6
		c-1.2-18.7-11.2-27.9-29.6-27.8V1312.2z M454.1,1291.3c-2.4,0-4.4,2.8-4.4,6.2c0,3.4,2,6.2,4.4,6.2c2.4,0,4.4-2.8,4.4-6.2
		C458.5,1294.1,456.6,1291.3,454.1,1291.3z M446.3,1255.7c-6.3,7.7-11.5,17.9-15.9,29.9c6,5.5,9.1,14.1,8.6,26.5h5.7l-0.5-6.2
		c-3.2-6.5-2.2-12.4,1-17.9c4.4-3.4,8.6-6.7,8.9-10.3v-17.2C453.2,1256.5,450.5,1255.1,446.3,1255.7z M432,1246
		c-2.9,11-19.8,21-31.2,9.7v19c9.6,0.1,16.9,1.4,20,4.8c6.5-12.6,14.7-26.7,20.2-31C441.9,1243.9,438.4,1240.9,432,1246z
		 M465.5,1236.8c-4.9,0-8.9,2-8.9,4.6s4,4.6,8.9,4.6c4.9,0,8.9-2,8.9-4.6S470.4,1236.8,465.5,1236.8z M415.9,1233.2
		c-4.2,0-7.7,3.4-7.7,7.7s3.4,7.7,7.7,7.7c4.2,0,7.7-3.4,7.7-7.7S420.1,1233.2,415.9,1233.2z M267.9,1077.3v27.3h7.6v23.4h-7.6v90.7
		l21.2,20.9h93.6v-162.4H267.9z M143,1023.3l53,30.7h15v-16.3h23v15.3h148.7V913.6h-34.4v36.2H143V1023.3z M192.6,1137.6v-71.9
		l-49.6-30.1v55.9l26.4,27.7v18.4H192.6z M150.7,1287l40.3-40.3l1-69h-21.7v15.9l-26.9,26.9v66.5H150.7z M145,863.6h63.6V747.1
		h-29.5v14h17.8v90.8H145v-29.3h-14v49.8h14V863.6z M230,544.7h15.9v-19.7v-2.4V396.5H240v2.8h-16.4v-18.8h6.4h9.3v-18.1H230
		l-12.4,14.3v3.8v18.8v1.7v19H240v102.7h-10h-12.4h-2.4v60H230V544.7z M200.7,285.8h-13.1V65.2l-51.4-39.3V0l7.2,0v22.1l44.1,30.3
		h2.1v-8.3h11V0l47.6,0v44.1h-4.1V69h-24.5v17.9h15.9v146.2l-11,18.3h-23.8V285.8z M213.4,69h-12.8v17.9h12.8V69z M320.3,1701.5
		h17.6v-16.6h146.2v-16.5H231.3v16.5v10h11l13.4-10H301L320.3,1701.5z M28.4,1551.8l-9.3-6.2v-169.1l59.5-94.6v-602H60v589.4
		l-60,19.8l0,283.4l12.4,12.4h16V1551.8z"/>
	<g id="PC_1_">
		
			<rect id="Zona_PC_1_" x="145.5" y="1110.1" transform="matrix(-1.347146e-10 1 -1 -1.347146e-10 1382.0793 920.4382)" class="st4" width="170.7" height="82.4"/>
		<g>
			<path class="st5" d="M222.9,1143.7c1.7,0.8,2.9,1.8,3.8,3.2s1.3,3,1.3,4.9c0,1.9-0.4,3.5-1.3,4.9c-0.9,1.4-2.2,2.5-3.8,3.2
				s-3.6,1.1-5.9,1.1h-5.1v7H206v-25.5h11C219.3,1142.6,221.2,1143,222.9,1143.7z M220.7,1155.1c0.9-0.8,1.4-1.9,1.4-3.3
				c0-1.4-0.5-2.5-1.4-3.3s-2.3-1.1-4-1.1h-4.8v8.9h4.8C218.5,1156.3,219.8,1155.9,220.7,1155.1z"/>
			<path class="st5" d="M239.6,1166.9c-2.1-1.1-3.8-2.7-5-4.7s-1.8-4.3-1.8-6.8c0-2.5,0.6-4.8,1.8-6.8c1.2-2,2.9-3.6,5-4.7
				c2.1-1.1,4.5-1.7,7.1-1.7c2.2,0,4.2,0.4,6,1.2c1.8,0.8,3.3,1.9,4.5,3.4l-3.8,3.5c-1.7-2-3.9-3-6.4-3c-1.6,0-3,0.3-4.2,1
				c-1.2,0.7-2.2,1.7-2.9,2.9c-0.7,1.2-1,2.6-1,4.2s0.3,3,1,4.2c0.7,1.2,1.7,2.2,2.9,2.9s2.6,1,4.2,1c2.6,0,4.7-1,6.4-3l3.8,3.5
				c-1.2,1.5-2.7,2.6-4.5,3.4c-1.8,0.8-3.8,1.2-6,1.2C244.1,1168.5,241.7,1168,239.6,1166.9z"/>
		</g>
	</g>
	<g id="EM_1_">
		
			<rect id="Zona_EM_1_" x="408.9" y="477.8" transform="matrix(-1.347084e-10 1 -1 -1.347084e-10 919.49 64.1265)" class="st4" width="37.6" height="27.9"/>
		<g>
			<path class="st5" d="M423.4,495.2v2.4h-9.9v-12.8h9.6v2.4h-6.7v2.8h5.9v2.3h-5.9v3H423.4z"/>
			<path class="st5" d="M438.3,497.6l0-7.7l-3.8,6.3h-1.3l-3.7-6.1v7.5h-2.8v-12.8h2.4l4.8,7.9l4.7-7.9h2.4l0,12.8H438.3z"/>
		</g>
	</g>
	<g id="Z_1_">
		<path id="Edif_Z_1_" class="st6 EdificioMapa" d="M263.4,198.9h0.3v17.2h113.4v-30.7c11-7.8,16.2-19.5,15.2-35.5h-8.6v6.6h-6.6V77l21.4-23.5
			h-8.6l-12.8-12.8V14.5H263.7v29.6h-20v43.8h-6.2v111v33.4L263.4,198.9z"/>
		<g>
			<path class="st5" d="M284,94.6c0.2-3,1.1-6.5,3-9.7c0.8-1.2,1.9-2.3,2.8-3.4c7.3-8.1,14.6-16.3,21.9-24.4
				c1.5-1.7,3.1-3.4,4.6-5.2c0.9-1,2-1.3,3.2-1c11.5,2.6,22.9,5.1,34.4,7.7c2.4,0.5,3.2,3.1,1.6,4.9c-9.7,11.2-19.4,22.3-29.1,33.5
				c-0.1,0.2-0.3,0.3-0.4,0.5c-0.9,1.1-2,1.4-3.3,1c-9.4-2.7-18.8-5.4-28.2-8.1c-2.9-0.8-4.3,0.6-4.8,2.8c-0.4,1.9-0.3,3.8,0.4,5.7
				c0.7,1.9,1.9,3.1,3.9,3.7c10.2,3,20.3,6,30.4,9c0.3,0.1,0.6,0.1,0.8-0.2c8.2-9.9,16.4-19.7,24.6-29.6c0.3-0.3,0.3-0.6,0.2-1
				c-0.6-2.6-0.3-5,0.7-7.4c0.6-1.4,2.2-2,3.6-1.5c1.4,0.6,2.1,2.1,1.5,3.6c-0.6,1.5-0.7,3-0.3,4.6c0.1,0.2,0.1,0.5,0.2,0.7
				c0.5,1.1,0.3,2.2-0.5,3.1c-2.7,3.2-5.4,6.5-8.1,9.7c-6.3,7.6-12.7,15.3-19,22.9c-1,1.2-2,1.5-3.5,1.1
				c-10.9-3.2-21.9-6.5-32.8-9.7c-1.5-0.4-2.6-1.4-3.7-2.4C285.5,102.6,284,99.3,284,94.6z M335.4,72.5c1.2,0,2-0.1,2.6-0.8
				c0.9-0.9,1.7-1.9,2.5-2.9c0.3-0.4,0.2-0.9-0.2-1.3c-0.3-0.2-0.6-0.3-1-0.4c-1.7-0.4-3.4-0.8-5.1-1.2c-5.2-1.3-10.4-2.5-15.6-3.8
				c-1.1-0.3-2.3-0.2-3.2,0.7c-0.8,0.8-1.6,1.8-2.3,2.7c-0.4,0.5-0.3,1.1,0.3,1.4c0.3,0.2,0.7,0.3,1,0.4c6.1,1.5,12.3,3,18.4,4.5
				C333.8,72.1,334.8,72.3,335.4,72.5z"/>
			<g>
				<g>
					<path class="st5" d="M330.9,163.3v4.8h-22.3v-3.8l14-16.9h-13.7v-4.8h21.5v3.8l-14,16.9H330.9z"/>
				</g>
			</g>
		</g>
	</g>
	
		<rect id="ConexEdifJ_1_" x="447" y="953.1" transform="matrix(-1.346773e-10 1 -1 -1.346773e-10 1454.7386 501.8065)" class="st6" width="59" height="50.3"/>
	<g id="J1_1_">
		
			<rect id="Edif_J1_1_" x="382" y="956" transform="matrix(-1.347191e-10 1 -1 -1.347191e-10 1416.9868 547.1432)" class="st6 EdificioMapa" width="105.8" height="52.1"/>
		<g>
			<path class="st5" d="M419.4,993.2c-1.4-0.6-2.6-1.6-3.6-2.8l3.3-3.9c1.4,1.9,3,2.8,4.7,2.8c2.4,0,3.6-1.4,3.6-4.2V973h-9v-4.7
				h14.8v16.6c0,3.1-0.8,5.5-2.3,7.1c-1.6,1.6-3.8,2.4-6.9,2.4C422.5,994.2,420.9,993.9,419.4,993.2z"/>
			<path class="st5" d="M449.3,968.2v25.5h-5.9V973h-5.1v-4.7H449.3z"/>
		</g>
	</g>
	<g id="J2_1_">
		
			<rect id="Edif_J2_1_" x="470.4" y="955.5" transform="matrix(-1.346161e-10 1 -1 -1.346161e-10 1505.4192 458.7108)" class="st6 EdificioMapa" width="105.8" height="53.1"/>
		<g>
			<path class="st5" d="M504.3,993.2c-1.4-0.6-2.6-1.6-3.6-2.8l3.3-3.9c1.4,1.9,3,2.8,4.7,2.8c2.4,0,3.6-1.4,3.6-4.2V973h-9v-4.7
				h14.8v16.6c0,3.1-0.8,5.5-2.3,7.1c-1.6,1.6-3.8,2.4-6.9,2.4C507.3,994.2,505.7,993.9,504.3,993.2z"/>
			<path class="st5" d="M543.3,989v4.8H524v-3.8l9.8-9.3c1-1,1.8-1.9,2.1-2.6c0.4-0.7,0.5-1.4,0.5-2.1c0-1-0.3-1.8-1-2.4
				c-0.7-0.5-1.7-0.8-3-0.8c-1.1,0-2.1,0.2-3,0.6c-0.9,0.4-1.7,1.1-2.3,1.9l-4.3-2.8c1-1.5,2.4-2.6,4.1-3.5c1.8-0.8,3.8-1.3,6-1.3
				c1.9,0,3.6,0.3,5,0.9c1.4,0.6,2.5,1.5,3.3,2.6c0.8,1.1,1.2,2.5,1.2,4c0,1.4-0.3,2.7-0.9,3.9c-0.6,1.2-1.7,2.6-3.4,4.2l-5.9,5.5
				H543.3z"/>
		</g>
	</g>
	
		<rect id="ConexEdifK_1_" x="450.6" y="801.6" transform="matrix(-1.347759e-10 1 -1 -1.347759e-10 1303.2142 344.421)" class="st6" width="57.6" height="44.5"/>
	<g id="K1_1_">
		
			<rect id="Edif_K1_1_" x="381.7" y="794.3" transform="matrix(-1.347013e-10 1 -1 -1.347013e-10 1255.2917 385.4481)" class="st6 EdificioMapa" width="106.5" height="52.1"/>
		<g>
			<path class="st5" d="M424.4,821l-3.4,3.6v6.5h-5.9v-25.5h5.9v11.9l11.3-11.9h6.6l-10.6,11.4l11.2,14.1h-6.9L424.4,821z"/>
			<path class="st5" d="M452.9,805.5V831H447v-20.8h-5.1v-4.7H452.9z"/>
		</g>
	</g>
	<g id="K2_1_">
		
			<rect id="Edif_K2_1_" x="470.1" y="793.8" transform="matrix(-1.347013e-10 1 -1 -1.347013e-10 1343.7241 297.0157)" class="st6 EdificioMapa" width="106.5" height="53.1"/>
		<g>
			<path class="st5" d="M509.6,821l-3.4,3.6v6.5h-5.9v-25.5h5.9v11.9l11.3-11.9h6.6l-10.6,11.4l11.2,14.1h-6.9L509.6,821z"/>
			<path class="st5" d="M546.6,826.2v4.8h-19.3v-3.8l9.8-9.3c1-1,1.8-1.9,2.1-2.6c0.4-0.7,0.5-1.4,0.5-2.1c0-1-0.3-1.8-1-2.4
				c-0.7-0.5-1.7-0.8-3-0.8c-1.1,0-2.1,0.2-3,0.6c-0.9,0.4-1.7,1.1-2.3,1.9l-4.3-2.8c1-1.5,2.4-2.6,4.1-3.5c1.8-0.8,3.8-1.3,6-1.3
				c1.9,0,3.6,0.3,5,0.9c1.4,0.6,2.5,1.5,3.3,2.6c0.8,1.1,1.2,2.5,1.2,4c0,1.4-0.3,2.7-0.9,3.9c-0.6,1.2-1.7,2.6-3.4,4.2l-5.9,5.5
				H546.6z"/>
		</g>
	</g>
	<g id="G_1_">
		<path id="Edif_G_1_" class="st6 EdificioMapa" d="M493.7,929.1c-17.9-18.5-17.9-37,0-55.5h74.1v55.5H493.7z"/>
		<g>
			<path class="st5" d="M529.3,898.9h5.4v10.4c-1.4,1-3,1.8-4.8,2.4c-1.8,0.6-3.7,0.8-5.5,0.8c-2.7,0-5-0.6-7.1-1.7
				c-2.1-1.1-3.8-2.7-5-4.7c-1.2-2-1.8-4.3-1.8-6.8c0-2.5,0.6-4.8,1.8-6.8c1.2-2,2.9-3.6,5-4.7c2.1-1.1,4.5-1.7,7.2-1.7
				c2.2,0,4.3,0.4,6.1,1.1c1.8,0.8,3.4,1.8,4.6,3.3l-3.8,3.5c-1.8-1.9-4-2.9-6.6-2.9c-1.6,0-3.1,0.3-4.3,1c-1.3,0.7-2.2,1.6-3,2.9
				s-1.1,2.7-1.1,4.3c0,1.6,0.4,3,1.1,4.2c0.7,1.2,1.7,2.2,2.9,2.9c1.3,0.7,2.7,1,4.3,1c1.7,0,3.2-0.4,4.6-1.1V898.9z"/>
		</g>
	</g>
	<g id="W_1_">
		
			<rect id="Edif_W_1_" x="409.8" y="96.7" transform="matrix(-1.346720e-10 1 -1 -1.346720e-10 566.2776 -335.2845)" class="st6 EdificioMapa" width="82.1" height="37.6"/>
		<g>
			<path class="st5" d="M470.3,100.6l-8.3,25.5h-6.3l-5.6-17.3l-5.8,17.3h-6.3l-8.4-25.5h6.1l5.8,17.9l6-17.9h5.5l5.8,18.1l5.9-18.1
				H470.3z"/>
		</g>
	</g>
	
		<rect id="ConexEdifV_1_" x="457.8" y="298.9" transform="matrix(-1.346471e-10 1 -1 -1.346471e-10 820.5422 -170.659)" class="st6" width="75.5" height="52.1"/>
	<g id="V1_1_">
		<polygon id="Edif_V1_1_" class="st6 EdificioMapa" points="478.5,416.8 478.5,225.1 443.7,225.1 432.7,225.1 425.4,225.1 425.4,299.9 
			432.7,307.2 432.7,416.8 		"/>
		<g>
			<path class="st5" d="M462.3,306.1l-11,25.5h-5.8l-11-25.5h6.4l7.8,18.2l7.9-18.2H462.3z"/>
			<path class="st5" d="M476.1,306.1v25.5h-5.9v-20.8h-5.1v-4.7H476.1z"/>
		</g>
	</g>
	<g id="v2_1_">
		<polygon id="Edif_V2_1_" class="st6 EdificioMapa" points="567.8,321 590.2,321 590.2,225.1 567.8,225.1 562.3,225.1 515.1,225.1 515.1,416.8 
			567.8,416.8 		"/>
		<g>
			<path class="st5" d="M546.2,306.1l-11,25.5h-5.8l-11-25.5h6.4l7.8,18.2l7.9-18.2H546.2z"/>
			<path class="st5" d="M568.2,326.8v4.8h-19.3v-3.8l9.8-9.3c1-1,1.8-1.9,2.1-2.6c0.4-0.7,0.5-1.4,0.5-2.1c0-1-0.3-1.8-1-2.4
				c-0.7-0.5-1.7-0.8-3-0.8c-1.1,0-2.1,0.2-3,0.6c-0.9,0.4-1.7,1.1-2.3,1.9l-4.3-2.8c1-1.5,2.4-2.6,4.1-3.5c1.8-0.8,3.8-1.3,6-1.3
				c1.9,0,3.6,0.3,5,0.9c1.4,0.6,2.5,1.5,3.3,2.6c0.8,1.1,1.2,2.5,1.2,4c0,1.4-0.3,2.7-0.9,3.9c-0.6,1.2-1.7,2.6-3.4,4.2l-5.9,5.5
				H568.2z"/>
		</g>
	</g>
	<g id="R_1_">
		
			<rect id="Edif_R_1_" x="246" y="422.9" transform="matrix(-1.346374e-10 1 -1 -1.346374e-10 767.6207 164.6257)" class="st6 EdificioMapa" width="111" height="86.5"/>
		<g>
			<path class="st5" d="M306.5,476.8l-4.9-7.1h-0.3h-5.1v7.1h-5.9v-25.5h11c2.3,0,4.2,0.4,5.9,1.1c1.7,0.8,2.9,1.8,3.8,3.2
				s1.3,3,1.3,4.9s-0.5,3.5-1.4,4.9c-0.9,1.4-2.2,2.4-3.9,3.2l5.7,8.2H306.5z M305,457.2c-0.9-0.8-2.3-1.1-4-1.1h-4.8v8.9h4.8
				c1.8,0,3.1-0.4,4-1.2c0.9-0.8,1.4-1.9,1.4-3.3C306.4,459.1,305.9,458,305,457.2z"/>
		</g>
	</g>
	<g id="M_1_">
		
			<rect id="Edif_M_1_" x="457" y="614.9" transform="matrix(-1.346924e-10 1 -1 -1.346924e-10 1180.65 101.1888)" class="st6 EdificioMapa" width="165.5" height="52.1"/>
		<g>
			<path class="st5" d="M547.7,651.6l0-15.3l-7.5,12.6h-2.7l-7.5-12.3v15h-5.5V626h4.9l9.6,15.9l9.4-15.9h4.8l0.1,25.5H547.7z"/>
		</g>
	</g>
	<g id="Q_1_">
		
			<rect id="Edif_Q_1_" x="331.5" y="637" transform="matrix(-1.346995e-10 1 -1 -1.346995e-10 1064.1191 276.3297)" class="st6 EdificioMapa" width="124.8" height="66.5"/>
		<g>
			<path class="st5" d="M408.2,683.6c-0.8,1-1.8,1.8-3,2.3c-1.2,0.5-2.5,0.8-3.9,0.8c-1.9,0-3.6-0.4-5.1-1.2s-3.3-2.3-5.3-4.3
				c-2.3-0.3-4.4-1-6.2-2.2c-1.8-1.2-3.2-2.7-4.2-4.6s-1.5-4-1.5-6.3c0-2.5,0.6-4.8,1.8-6.8c1.2-2,2.9-3.6,5-4.7
				c2.1-1.1,4.5-1.7,7.2-1.7c2.6,0,5,0.6,7.1,1.7c2.1,1.1,3.8,2.7,5,4.7c1.2,2,1.8,4.3,1.8,6.8c0,3-0.8,5.6-2.5,7.8
				s-3.9,3.8-6.6,4.7c0.6,0.6,1.2,1.1,1.8,1.4s1.2,0.4,1.8,0.4c1.6,0,3-0.6,4.2-1.9L408.2,683.6z M386,672.3
				c0.7,1.2,1.6,2.2,2.9,2.9c1.2,0.7,2.6,1,4.1,1c1.5,0,2.9-0.3,4.1-1s2.2-1.7,2.9-2.9c0.7-1.2,1-2.6,1-4.2s-0.3-3-1-4.2
				c-0.7-1.2-1.6-2.2-2.9-2.9c-1.2-0.7-2.6-1-4.1-1c-1.5,0-2.9,0.3-4.1,1c-1.2,0.7-2.2,1.7-2.9,2.9c-0.7,1.2-1,2.6-1,4.2
				S385.3,671.1,386,672.3z"/>
		</g>
	</g>
	<g id="P_1_">
		
			<rect id="Edif_P_1_" x="201.8" y="590.1" transform="matrix(-1.346800e-10 1 -1 -1.346800e-10 910.343 358.7395)" class="st6 EdificioMapa" width="147.9" height="88.9"/>
		<g>
			<path class="st5" d="M281.5,620.8c1.7,0.8,2.9,1.8,3.8,3.2s1.3,3,1.3,4.9c0,1.9-0.4,3.5-1.3,4.9c-0.9,1.4-2.2,2.5-3.8,3.2
				s-3.6,1.1-5.9,1.1h-5.1v7h-5.9v-25.5h11C277.9,619.7,279.8,620,281.5,620.8z M279.3,632.2c0.9-0.8,1.4-1.9,1.4-3.3
				c0-1.4-0.5-2.5-1.4-3.3s-2.3-1.1-4-1.1h-4.8v8.9h4.8C277.1,633.3,278.4,633,279.3,632.2z"/>
		</g>
	</g>
	<g id="TV_1_">
		
			<rect id="Edif_TV_1_" x="271.3" y="683.7" transform="matrix(-1.347786e-10 1 -1 -1.347786e-10 1006.371 437.1629)" class="st6 EdificioMapa" width="26.5" height="76.2"/>
		<g>
			<path class="st5" d="M274.9,716.3h-5.3v-3.1H284v3.1h-5.3v13.4h-3.8V716.3z"/>
			<path class="st5" d="M302.8,713.1l-7.2,16.5h-3.8l-7.1-16.5h4.1l5,11.8l5.1-11.8H302.8z"/>
		</g>
	</g>
	<g id="S_1_">
		
			<rect id="Edif_S_1_" x="89.6" y="433.7" transform="matrix(-1.346747e-10 1 -1 -1.346747e-10 606.098 326.4931)" class="st6 EdificioMapa" width="100.3" height="65.2"/>
		<g>
			<path class="st5" d="M132.8,476.6c-1.9-0.5-3.4-1.3-4.5-2.1l2-4.4c1.1,0.8,2.4,1.4,3.9,1.9s3,0.7,4.5,0.7c1.7,0,2.9-0.2,3.7-0.7
				c0.8-0.5,1.2-1.2,1.2-2c0-0.6-0.2-1.1-0.7-1.5c-0.5-0.4-1.1-0.7-1.8-1s-1.7-0.5-3-0.8c-1.9-0.5-3.5-0.9-4.8-1.4
				c-1.2-0.5-2.3-1.2-3.2-2.2c-0.9-1-1.3-2.4-1.3-4.1c0-1.5,0.4-2.8,1.2-4s2-2.2,3.6-2.9c1.6-0.7,3.6-1.1,5.9-1.1
				c1.6,0,3.2,0.2,4.8,0.6s2.9,0.9,4.1,1.7l-1.8,4.5c-2.4-1.3-4.7-2-7.1-2c-1.7,0-2.9,0.3-3.7,0.8c-0.8,0.5-1.2,1.2-1.2,2.1
				s0.5,1.5,1.4,2c0.9,0.4,2.3,0.8,4.2,1.3c1.9,0.5,3.5,0.9,4.8,1.4c1.2,0.5,2.3,1.2,3.2,2.2c0.9,1,1.3,2.3,1.3,4
				c0,1.5-0.4,2.8-1.2,4s-2,2.2-3.7,2.9c-1.6,0.7-3.6,1.1-5.9,1.1C136.7,477.4,134.7,477.1,132.8,476.6z"/>
		</g>
	</g>
	<g id="T_1_">
		
			<rect id="Edif_T_1_" x="85.5" y="597.1" transform="matrix(-1.346480e-10 1 -1 -1.346480e-10 769.5169 489.912)" class="st6 EdificioMapa" width="108.6" height="65.2"/>
		<g>
			<path class="st5" d="M135.9,619.7h-8.2v-4.8H150v4.8h-8.2v20.7h-5.9V619.7z"/>
		</g>
	</g>
	<g id="O2_1_">
		
			<rect id="Edif_O2_1_" x="187" y="773.8" transform="matrix(-1.346756e-10 1 -1 -1.346756e-10 1038.9513 565.2433)" class="st6 EdificioMapa" width="99.6" height="56.5"/>
		<g>
			<path class="st5" d="M217.3,811.5c-2.1-1.1-3.8-2.7-5-4.7c-1.2-2-1.8-4.3-1.8-6.8c0-2.5,0.6-4.8,1.8-6.8c1.2-2,2.9-3.6,5-4.7
				c2.1-1.1,4.5-1.7,7.2-1.7c2.6,0,5,0.6,7.1,1.7c2.1,1.1,3.8,2.7,5,4.7c1.2,2,1.8,4.3,1.8,6.8c0,2.5-0.6,4.8-1.8,6.8
				c-1.2,2-2.9,3.6-5,4.7c-2.1,1.1-4.5,1.7-7.1,1.7C221.8,813.2,219.4,812.6,217.3,811.5z M228.5,807.1c1.2-0.7,2.2-1.7,2.9-2.9
				c0.7-1.2,1-2.6,1-4.2s-0.3-3-1-4.2c-0.7-1.2-1.6-2.2-2.9-2.9c-1.2-0.7-2.6-1-4.1-1c-1.5,0-2.9,0.3-4.1,1
				c-1.2,0.7-2.2,1.7-2.9,2.9c-0.7,1.2-1,2.6-1,4.2s0.3,3,1,4.2c0.7,1.2,1.6,2.2,2.9,2.9c1.2,0.7,2.6,1,4.1,1
				C226,808.1,227.3,807.8,228.5,807.1z"/>
			<path class="st5" d="M261.8,807.9v4.8h-19.3v-3.8l9.8-9.3c1-1,1.8-1.9,2.1-2.6c0.4-0.7,0.5-1.4,0.5-2.1c0-1-0.3-1.8-1-2.4
				c-0.7-0.5-1.7-0.8-3-0.8c-1.1,0-2.1,0.2-3,0.6c-0.9,0.4-1.7,1.1-2.3,1.9l-4.3-2.8c1-1.5,2.4-2.6,4.1-3.5c1.8-0.8,3.8-1.3,6-1.3
				c1.9,0,3.6,0.3,5,0.9c1.4,0.6,2.5,1.5,3.3,2.6c0.8,1.1,1.2,2.5,1.2,4c0,1.4-0.3,2.7-0.9,3.9c-0.6,1.2-1.7,2.6-3.4,4.2l-5.9,5.5
				H261.8z"/>
		</g>
	</g>
	<g id="O1_1_">
		
			<rect id="Edif_O1_1_" x="267.5" y="799.2" transform="matrix(-1.346107e-10 1 -1 -1.346107e-10 1119.4434 534.0529)" class="st6 EdificioMapa" width="50.3" height="55.1"/>
		<g>
			<path class="st5" d="M281.6,833c-1.5-0.8-2.6-1.9-3.5-3.3c-0.8-1.4-1.3-3-1.3-4.7s0.4-3.3,1.3-4.7c0.8-1.4,2-2.5,3.5-3.3
				c1.5-0.8,3.1-1.2,5-1.2s3.5,0.4,5,1.2c1.5,0.8,2.6,1.9,3.5,3.3s1.3,3,1.3,4.7s-0.4,3.3-1.3,4.7s-2,2.5-3.5,3.3
				c-1.5,0.8-3.1,1.2-5,1.2S283.1,833.8,281.6,833z M289.4,829.9c0.8-0.5,1.5-1.2,2-2c0.5-0.9,0.7-1.8,0.7-2.9s-0.2-2.1-0.7-2.9
				c-0.5-0.9-1.1-1.5-2-2c-0.8-0.5-1.8-0.7-2.8-0.7c-1,0-2,0.2-2.8,0.7c-0.8,0.5-1.5,1.2-2,2c-0.5,0.9-0.7,1.8-0.7,2.9
				s0.2,2.1,0.7,2.9c0.5,0.9,1.1,1.5,2,2c0.8,0.5,1.8,0.7,2.8,0.7C287.6,830.7,288.6,830.4,289.4,829.9z"/>
			<path class="st5" d="M306.1,816.1v17.7H302v-14.4h-3.5v-3.3H306.1z"/>
		</g>
	</g>
	<g id="O3_1_">
		
			<rect id="Edif_O3_1_" x="268" y="749.4" transform="matrix(-1.345201e-10 1 -1 -1.345201e-10 1069.6246 484.2342)" class="st6 EdificioMapa" width="49.3" height="55.1"/>
		<g>
			<path class="st5" d="M279.1,783.2c-1.5-0.8-2.6-1.9-3.5-3.3c-0.8-1.4-1.3-3-1.3-4.7s0.4-3.3,1.3-4.7c0.8-1.4,2-2.5,3.5-3.3
				c1.5-0.8,3.1-1.2,5-1.2s3.5,0.4,5,1.2c1.5,0.8,2.6,1.9,3.5,3.3s1.3,3,1.3,4.7s-0.4,3.3-1.3,4.7s-2,2.5-3.5,3.3
				c-1.5,0.8-3.1,1.2-5,1.2S280.6,784,279.1,783.2z M286.9,780.1c0.8-0.5,1.5-1.2,2-2c0.5-0.9,0.7-1.8,0.7-2.9s-0.2-2.1-0.7-2.9
				c-0.5-0.9-1.1-1.5-2-2c-0.8-0.5-1.8-0.7-2.8-0.7c-1,0-2,0.2-2.8,0.7c-0.8,0.5-1.5,1.2-2,2c-0.5,0.9-0.7,1.8-0.7,2.9
				s0.2,2.1,0.7,2.9c0.5,0.9,1.1,1.5,2,2c0.8,0.5,1.8,0.7,2.8,0.7C285.1,780.9,286.1,780.6,286.9,780.1z"/>
			<path class="st5" d="M308.6,775.3c0.8,0.9,1.2,2,1.2,3.4c0,1-0.3,2-0.8,2.8c-0.5,0.9-1.4,1.6-2.5,2.1c-1.1,0.5-2.5,0.8-4.1,0.8
				c-1.2,0-2.5-0.2-3.7-0.5s-2.2-0.8-3.1-1.4l1.6-3.1c0.7,0.5,1.5,0.9,2.3,1.2c0.9,0.3,1.8,0.4,2.7,0.4c1,0,1.8-0.2,2.4-0.6
				c0.6-0.4,0.9-1,0.9-1.7c0-1.5-1.1-2.2-3.3-2.2h-1.9v-2.7l3.6-4.1h-7.5v-3.3H309v2.7l-4,4.6C306.5,773.8,307.7,774.4,308.6,775.3z
				"/>
		</g>
	</g>
	<g id="B_1_">
		<polygon id="Edif_B_1_" class="st6 EdificioMapa" points="325.1,1055.3 325.1,948.5 235.8,948.5 230.3,948.5 165.8,948.5 165.8,1044.3 
			230.3,1044.3 230.3,1055.3 		"/>
		<g>
			<path class="st5" d="M252.7,1001.7c0.6,0.8,0.9,1.7,0.9,2.8c0,1.6-0.6,2.7-1.8,3.6c-1.2,0.8-3,1.3-5.3,1.3h-9.2v-17.7h8.7
				c2.2,0,3.8,0.4,5,1.2s1.7,1.9,1.7,3.4c0,0.9-0.2,1.6-0.6,2.3c-0.4,0.7-1,1.2-1.7,1.6C251.3,1000.4,252.1,1000.9,252.7,1001.7z
				 M241.3,994.6v4.2h4.1c1,0,1.8-0.2,2.3-0.5c0.5-0.4,0.8-0.9,0.8-1.6c0-0.7-0.3-1.2-0.8-1.6c-0.5-0.3-1.3-0.5-2.3-0.5H241.3z
				 M248.6,1005.7c0.5-0.4,0.8-0.9,0.8-1.6c0-1.5-1.1-2.2-3.3-2.2h-4.8v4.4h4.8C247.2,1006.2,248,1006,248.6,1005.7z"/>
		</g>
	</g>
	
		<rect id="ConexEdifA_1_" x="363.7" y="1130.5" transform="matrix(-1.346267e-10 1 -1 -1.346267e-10 1545.5845 766.7589)" class="st6" width="51.4" height="51.4"/>
	<g id="A1_1_">
		
			<rect id="Edif_A1_1_" x="263.1" y="1112.2" transform="matrix(-1.347386e-10 1 -1 -1.347386e-10 1482.837 829.1614)" class="st6 EdificioMapa" width="127.6" height="87.6"/>
		<g>
			<path class="st5" d="M325.3,1159.6h-8.2l-1.6,3.8h-4.2l7.9-17.7h4.1l7.9,17.7h-4.3L325.3,1159.6z M324.1,1156.5l-2.8-6.8
				l-2.8,6.8H324.1z"/>
			<path class="st5" d="M339,1145.7v17.7h-4.1V1149h-3.5v-3.3H339z"/>
		</g>
	</g>
	<g id="A2_1_">
		
			<rect id="Edif_A2_1_" x="387.5" y="1113.6" transform="matrix(-1.346525e-10 1 -1 -1.346525e-10 1607.2975 704.701)" class="st6 EdificioMapa" width="127.6" height="84.8"/>
		<g>
			<path class="st5" d="M446.8,1159.6h-8.2l-1.6,3.8h-4.2l7.9-17.7h4.1l7.9,17.7h-4.3L446.8,1159.6z M445.5,1156.5l-2.8-6.8
				l-2.8,6.8H445.5z"/>
			<path class="st5" d="M467.9,1160v3.3h-13.4v-2.7l6.8-6.5c0.7-0.7,1.2-1.3,1.5-1.8c0.3-0.5,0.4-1,0.4-1.5c0-0.7-0.2-1.3-0.7-1.6
				c-0.5-0.4-1.2-0.6-2.1-0.6c-0.8,0-1.5,0.1-2.1,0.4c-0.6,0.3-1.1,0.7-1.6,1.3l-3-1.9c0.7-1,1.6-1.8,2.9-2.4
				c1.2-0.6,2.6-0.9,4.2-0.9c1.3,0,2.5,0.2,3.5,0.6c1,0.4,1.8,1,2.3,1.8c0.5,0.8,0.8,1.7,0.8,2.8c0,1-0.2,1.9-0.6,2.7
				c-0.4,0.8-1.2,1.8-2.4,2.9l-4.1,3.8H467.9z"/>
		</g>
	</g>
	<g id="L_1_">
		
			<rect id="Edif_L_1_" x="278.9" y="1291.8" transform="matrix(-1.347377e-10 1 -1 -1.347377e-10 1654.1855 982.2374)" class="st6 EdificioMapa" width="114.1" height="52.7"/>
		<g>
			<path class="st5" d="M329.8,1307.9h4.1v14.4h8.9v3.3h-13V1307.9z"/>
		</g>
	</g>
	<g id="I_1_">
		<polygon id="Edif_I_1_" class="st6 EdificioMapa" points="272,1283.6 296.2,1283.6 296.2,1254.6 268.2,1254.6 268.2,1243.6 215.5,1243.6 
			215.5,1375.3 261,1375.3 268.2,1375.3 272,1375.3 		"/>
		<g>
			<path class="st5" d="M243,1299.1h4.1v17.7H243V1299.1z"/>
		</g>
	</g>
	<g id="H_1_">
		<polygon id="Edif_H_1_" class="st6 EdificioMapa" points="516.5,1261.2 470.9,1261.2 470.9,1325.6 451.3,1325.6 451.3,1341.8 470.9,1341.8 
			473.7,1341.8 516.5,1341.8 		"/>
		<g>
			<path class="st5" d="M502.5,1291.2v17.7h-4.1v-7.3h-8.1v7.3h-4.1v-17.7h4.1v7h8.1v-7H502.5z"/>
		</g>
	</g>
	<g id="C_1_">
		
			<rect id="Edif_C_1_" x="77.1" y="1463" transform="matrix(-1.346658e-10 1 -1 -1.346658e-10 1652.6342 1327.5203)" class="st6 EdificioMapa" width="171" height="54.1"/>
		<g>
			<path class="st5" d="M158.3,1496.6c-1.5-0.8-2.6-1.9-3.4-3.3c-0.8-1.4-1.3-3-1.3-4.7s0.4-3.3,1.3-4.7c0.8-1.4,2-2.5,3.4-3.3
				s3.1-1.2,4.9-1.2c1.5,0,2.9,0.3,4.2,0.8s2.3,1.3,3.1,2.3l-2.6,2.4c-1.2-1.4-2.7-2.1-4.5-2.1c-1.1,0-2.1,0.2-2.9,0.7
				c-0.9,0.5-1.5,1.2-2,2c-0.5,0.9-0.7,1.8-0.7,2.9s0.2,2.1,0.7,2.9c0.5,0.9,1.2,1.5,2,2c0.9,0.5,1.8,0.7,2.9,0.7
				c1.8,0,3.3-0.7,4.5-2.1l2.6,2.4c-0.8,1-1.9,1.8-3.1,2.4c-1.2,0.5-2.6,0.8-4.2,0.8C161.4,1497.8,159.8,1497.4,158.3,1496.6z"/>
		</g>
	</g>
	<g id="D_1_">
		
			<rect id="Edif_D_1_" x="159.5" y="1463" transform="matrix(-1.346765e-10 1 -1 -1.346765e-10 1735.0332 1245.1212)" class="st6 EdificioMapa" width="171" height="54.1"/>
		<g>
			<path class="st5" d="M236,1479.7h8.1c1.9,0,3.6,0.4,5.1,1.1c1.5,0.7,2.6,1.8,3.4,3.1c0.8,1.3,1.2,2.9,1.2,4.7s-0.4,3.3-1.2,4.7
				c-0.8,1.3-2,2.4-3.4,3.1c-1.5,0.7-3.2,1.1-5.1,1.1H236V1479.7z M243.8,1494.1c1.8,0,3.2-0.5,4.2-1.5c1.1-1,1.6-2.3,1.6-4
				s-0.5-3-1.6-4c-1.1-1-2.5-1.5-4.2-1.5h-3.7v11H243.8z"/>
		</g>
	</g>
	<g id="E_1_">
		
			<rect id="Edif_E_1_" x="251.2" y="1463" transform="matrix(-1.346551e-10 1 -1 -1.346551e-10 1826.7408 1153.4136)" class="st6 EdificioMapa" width="171" height="54.1"/>
		<g>
			<path class="st5" d="M343.4,1494.2v3.3h-13.7v-17.7H343v3.3h-9.3v3.8h8.2v3.2h-8.2v4.1H343.4z"/>
		</g>
	</g>
	<g id="F_1_">
		
			<rect id="Edif_F_1_" x="340.5" y="1463" transform="matrix(-1.346765e-10 1 -1 -1.346765e-10 1916.0352 1064.1193)" class="st6 EdificioMapa" width="171" height="54.1"/>
		<g>
			<path class="st5" d="M423.4,1483v4.7h8.2v3.3h-8.2v6.5h-4.1v-17.7h13.4v3.3H423.4z"/>
		</g>
	</g>
	<g id="Detallitos_1_">
		
			<rect x="604.5" y="60.2" transform="matrix(-1.344535e-10 1 -1 -1.344535e-10 688.3246 -552.8317)" class="st7" width="32.1" height="15.2"/>
		
			<rect x="208.4" y="52.6" transform="matrix(-1.347386e-10 1 -1 -1.347386e-10 298.3825 -142.9175)" class="st8" width="24.5" height="50.3"/>
	</g>
	<g id="TorreCreo_1_">
		
			<rect x="527.1" y="88.3" transform="matrix(-1.347413e-10 1 -1 -1.347413e-10 663.5015 -438.8004)" class="st9" width="48.2" height="48.2"/>
		<g id="Torre_creo_1_">
			<polygon class="st10" points="570.1,94.2 564.7,112.7 570.1,131.1 551.7,125.7 533.2,131.1 538.6,112.7 533.2,94.2 551.7,99.6 
							"/>
			
				<rect x="542.4" y="103.4" transform="matrix(-1.348301e-10 1 -1 -1.348301e-10 664.3365 -438.9824)" class="st11" width="18.5" height="18.5"/>
			
				<rect x="533.2" y="94.2" transform="matrix(-1.346338e-10 1 -1 -1.346338e-10 664.3365 -438.9824)" class="st11" width="36.9" height="36.9"/>
			<circle class="st12" cx="551.7" cy="112.7" r="3.3"/>
		</g>
	</g>
	<g id="Baños_1_">
		<g id="IconBaño_23_">
			<path id="XMLID_531_" class="st13" d="M248.6,1579.4h-23c-0.5,0-0.9-0.4-0.9-0.9v-23c0-0.5,0.4-0.9,0.9-0.9h23
				c0.5,0,0.9,0.4,0.9,0.9v23C249.5,1579,249.1,1579.4,248.6,1579.4z"/>
			<path id="XMLID_530_" class="st14" d="M248.6,1554.7c-6.6,0-12.6,2.7-16.9,7c-4.3,4.3-7,10.3-7,16.9v-23c0-0.5,0.4-0.9,0.9-0.9
				H248.6z"/>
			<g id="XMLID_509_">
				<g id="XMLID_511_">
					<g id="XMLID_520_">
						<path id="XMLID_529_" class="st15" d="M242.6,1560.1c0.9,0,1.6-0.7,1.6-1.6s-0.7-1.6-1.6-1.6c-0.9,0-1.6,0.7-1.6,1.6
							S241.7,1560.1,242.6,1560.1z"/>
						<g id="XMLID_526_">
							<path id="XMLID_528_" class="st16" d="M242.3,1576.2c0,0.6-0.4,1.1-0.9,1.1c-0.5,0-0.9-0.5-0.9-1.1v-9.2
								c0-0.6,0.4-1.1,0.9-1.1c0.5,0,0.9,0.5,0.9,1.1V1576.2z"/>
							<path id="XMLID_527_" class="st16" d="M244.5,1576.2c0,0.6-0.4,1.1-0.9,1.1c-0.5,0-0.9-0.5-0.9-1.1v-9.2
								c0-0.6,0.4-1.1,0.9-1.1c0.5,0,0.9,0.5,0.9,1.1V1576.2z"/>
						</g>
						<polygon id="XMLID_525_" class="st15" points="239.9,1569.9 245.2,1569.9 243.9,1561.5 241.2,1561.5 						"/>
						<path id="XMLID_524_" class="st15" d="M240.6,1560.6h4c0.7,0,1.2,0.6,1.2,1.3v1.1h-6.4v-1.1
							C239.3,1561.2,239.9,1560.6,240.6,1560.6z"/>
						<g id="XMLID_521_">
							<path id="XMLID_523_" class="st16" d="M239.7,1567.9c-0.1,0.4-0.4,0.6-0.8,0.6c-0.4-0.1-0.6-0.4-0.6-0.8l1-5.9
								c0.1-0.4,0.4-0.6,0.8-0.6s0.6,0.4,0.6,0.8L239.7,1567.9z"/>
							<path id="XMLID_522_" class="st16" d="M245.4,1567.9c0.1,0.4,0.4,0.6,0.8,0.6c0.4-0.1,0.6-0.4,0.6-0.8l-1-5.9
								c-0.1-0.4-0.4-0.6-0.8-0.6c-0.4,0.1-0.6,0.4-0.6,0.8L245.4,1567.9z"/>
						</g>
					</g>
					<g id="XMLID_512_">
						<path id="XMLID_519_" class="st15" d="M231.3,1560.1c0.9,0,1.6-0.7,1.6-1.6s-0.7-1.6-1.6-1.6c-0.9,0-1.6,0.7-1.6,1.6
							S230.4,1560.1,231.3,1560.1z"/>
						<path id="XMLID_518_" class="st16" d="M228.9,1567.8c0,0.4-0.3,0.7-0.7,0.7c-0.4,0-0.7-0.3-0.7-0.7v-6c0-0.4,0.3-0.7,0.7-0.7
							c0.4,0,0.7,0.3,0.7,0.7V1567.8z"/>
						<path id="XMLID_517_" class="st16" d="M235,1567.8c0,0.4-0.3,0.7-0.7,0.7c-0.4,0-0.7-0.3-0.7-0.7v-6c0-0.4,0.3-0.7,0.7-0.7
							c0.4,0,0.7,0.3,0.7,0.7V1567.8z"/>
						<path id="XMLID_516_" class="st16" d="M231,1576.2c0,0.6-0.4,1.1-0.9,1.1s-0.9-0.5-0.9-1.1v-9.2c0-0.6,0.4-1.1,0.9-1.1
							s0.9,0.5,0.9,1.1V1576.2z"/>
						<path id="XMLID_515_" class="st16" d="M233.2,1576.2c0,0.6-0.4,1.1-0.9,1.1c-0.5,0-0.9-0.5-0.9-1.1v-9.2
							c0-0.6,0.4-1.1,0.9-1.1c0.5,0,0.9,0.5,0.9,1.1V1576.2z"/>
						<rect id="XMLID_514_" x="229.3" y="1562.5" class="st15" width="4" height="5.9"/>
						<path id="XMLID_513_" class="st15" d="M228.7,1560.6h5.1c0.7,0,1.2,0.6,1.2,1.3v1.1h-7.6v-1.1
							C227.5,1561.2,228,1560.6,228.7,1560.6z"/>
					</g>
				</g>
				<rect id="XMLID_510_" x="236.8" y="1556.8" class="st15" width="0.6" height="20.4"/>
			</g>
		</g>
		<g id="IconBaño_22_">
			<path id="XMLID_508_" class="st13" d="M428.3,1575.3h-23c-0.5,0-0.9-0.4-0.9-0.9v-23c0-0.5,0.4-0.9,0.9-0.9h23
				c0.5,0,0.9,0.4,0.9,0.9v23C429.2,1574.9,428.8,1575.3,428.3,1575.3z"/>
			<path id="XMLID_507_" class="st14" d="M428.3,1550.5c-6.6,0-12.6,2.7-16.9,7c-4.3,4.3-7,10.3-7,16.9v-23c0-0.5,0.4-0.9,0.9-0.9
				H428.3z"/>
			<g id="XMLID_486_">
				<g id="XMLID_488_">
					<g id="XMLID_497_">
						<path id="XMLID_506_" class="st15" d="M422.3,1555.9c0.9,0,1.6-0.7,1.6-1.6s-0.7-1.6-1.6-1.6s-1.6,0.7-1.6,1.6
							S421.4,1555.9,422.3,1555.9z"/>
						<g id="XMLID_503_">
							<path id="XMLID_505_" class="st16" d="M422,1572c0,0.6-0.4,1.1-0.9,1.1c-0.5,0-0.9-0.5-0.9-1.1v-9.2c0-0.6,0.4-1.1,0.9-1.1
								c0.5,0,0.9,0.5,0.9,1.1V1572z"/>
							<path id="XMLID_504_" class="st16" d="M424.2,1572c0,0.6-0.4,1.1-0.9,1.1c-0.5,0-0.9-0.5-0.9-1.1v-9.2c0-0.6,0.4-1.1,0.9-1.1
								c0.5,0,0.9,0.5,0.9,1.1V1572z"/>
						</g>
						<polygon id="XMLID_502_" class="st15" points="419.6,1565.8 425,1565.8 423.6,1557.3 420.9,1557.3 						"/>
						<path id="XMLID_501_" class="st15" d="M420.3,1556.5h4c0.7,0,1.2,0.6,1.2,1.3v1.1H419v-1.1
							C419,1557,419.6,1556.5,420.3,1556.5z"/>
						<g id="XMLID_498_">
							<path id="XMLID_500_" class="st16" d="M419.5,1563.8c-0.1,0.4-0.4,0.6-0.8,0.6c-0.4-0.1-0.6-0.4-0.6-0.8l1-5.9
								c0.1-0.4,0.4-0.6,0.8-0.6c0.4,0.1,0.6,0.4,0.6,0.8L419.5,1563.8z"/>
							<path id="XMLID_499_" class="st16" d="M425.1,1563.8c0.1,0.4,0.4,0.6,0.8,0.6c0.4-0.1,0.6-0.4,0.6-0.8l-1-5.9
								c-0.1-0.4-0.4-0.6-0.8-0.6c-0.4,0.1-0.6,0.4-0.6,0.8L425.1,1563.8z"/>
						</g>
					</g>
					<g id="XMLID_489_">
						<path id="XMLID_496_" class="st15" d="M411,1555.9c0.9,0,1.6-0.7,1.6-1.6s-0.7-1.6-1.6-1.6c-0.9,0-1.6,0.7-1.6,1.6
							S410.1,1555.9,411,1555.9z"/>
						<path id="XMLID_495_" class="st16" d="M408.6,1563.6c0,0.4-0.3,0.7-0.7,0.7c-0.4,0-0.7-0.3-0.7-0.7v-6c0-0.4,0.3-0.7,0.7-0.7
							c0.4,0,0.7,0.3,0.7,0.7V1563.6z"/>
						<path id="XMLID_494_" class="st16" d="M414.7,1563.6c0,0.4-0.3,0.7-0.7,0.7s-0.7-0.3-0.7-0.7v-6c0-0.4,0.3-0.7,0.7-0.7
							s0.7,0.3,0.7,0.7V1563.6z"/>
						<path id="XMLID_493_" class="st16" d="M410.7,1572c0,0.6-0.4,1.1-0.9,1.1s-0.9-0.5-0.9-1.1v-9.2c0-0.6,0.4-1.1,0.9-1.1
							s0.9,0.5,0.9,1.1V1572z"/>
						<path id="XMLID_492_" class="st16" d="M412.9,1572c0,0.6-0.4,1.1-0.9,1.1c-0.5,0-0.9-0.5-0.9-1.1v-9.2c0-0.6,0.4-1.1,0.9-1.1
							c0.5,0,0.9,0.5,0.9,1.1V1572z"/>
						<rect id="XMLID_491_" x="409" y="1558.3" class="st15" width="4" height="5.9"/>
						<path id="XMLID_490_" class="st15" d="M408.4,1556.5h5.1c0.7,0,1.2,0.6,1.2,1.3v1.1h-7.6v-1.1
							C407.2,1557,407.7,1556.5,408.4,1556.5z"/>
					</g>
				</g>
				<rect id="XMLID_487_" x="416.5" y="1552.7" class="st15" width="0.6" height="20.4"/>
			</g>
		</g>
		<g id="IconBaño_21_">
			<path id="XMLID_485_" class="st13" d="M488.4,1346.1h-23c-0.5,0-0.9-0.4-0.9-0.9v-23c0-0.5,0.4-0.9,0.9-0.9h23
				c0.5,0,0.9,0.4,0.9,0.9v23C489.3,1345.7,488.9,1346.1,488.4,1346.1z"/>
			<path id="XMLID_484_" class="st14" d="M488.4,1321.3c-6.6,0-12.6,2.7-16.9,7c-4.3,4.3-7,10.3-7,16.9v-23c0-0.5,0.4-0.9,0.9-0.9
				H488.4z"/>
			<g id="XMLID_463_">
				<g id="XMLID_465_">
					<g id="XMLID_474_">
						<path id="XMLID_483_" class="st15" d="M482.3,1326.7c0.9,0,1.6-0.7,1.6-1.6s-0.7-1.6-1.6-1.6c-0.9,0-1.6,0.7-1.6,1.6
							S481.4,1326.7,482.3,1326.7z"/>
						<g id="XMLID_480_">
							<path id="XMLID_482_" class="st16" d="M482.1,1342.8c0,0.6-0.4,1.1-0.9,1.1s-0.9-0.5-0.9-1.1v-9.2c0-0.6,0.4-1.1,0.9-1.1
								s0.9,0.5,0.9,1.1V1342.8z"/>
							<path id="XMLID_481_" class="st16" d="M484.3,1342.8c0,0.6-0.4,1.1-0.9,1.1c-0.5,0-0.9-0.5-0.9-1.1v-9.2
								c0-0.6,0.4-1.1,0.9-1.1c0.5,0,0.9,0.5,0.9,1.1V1342.8z"/>
						</g>
						<polygon id="XMLID_479_" class="st15" points="479.6,1336.6 485,1336.6 483.7,1328.1 480.9,1328.1 						"/>
						<path id="XMLID_478_" class="st15" d="M480.3,1327.3h4c0.7,0,1.2,0.6,1.2,1.3v1.1h-6.4v-1.1
							C479.1,1327.8,479.6,1327.3,480.3,1327.3z"/>
						<g id="XMLID_475_">
							<path id="XMLID_477_" class="st16" d="M479.5,1334.6c-0.1,0.4-0.4,0.6-0.8,0.6c-0.4-0.1-0.6-0.4-0.6-0.8l1-5.9
								c0.1-0.4,0.4-0.6,0.8-0.6c0.4,0.1,0.6,0.4,0.6,0.8L479.5,1334.6z"/>
							<path id="XMLID_476_" class="st16" d="M485.1,1334.6c0.1,0.4,0.4,0.6,0.8,0.6c0.4-0.1,0.6-0.4,0.6-0.8l-1-5.9
								c-0.1-0.4-0.4-0.6-0.8-0.6c-0.4,0.1-0.6,0.4-0.6,0.8L485.1,1334.6z"/>
						</g>
					</g>
					<g id="XMLID_466_">
						<path id="XMLID_473_" class="st15" d="M471.1,1326.7c0.9,0,1.6-0.7,1.6-1.6s-0.7-1.6-1.6-1.6c-0.9,0-1.6,0.7-1.6,1.6
							S470.2,1326.7,471.1,1326.7z"/>
						<path id="XMLID_472_" class="st16" d="M468.6,1334.5c0,0.4-0.3,0.7-0.7,0.7c-0.4,0-0.7-0.3-0.7-0.7v-6c0-0.4,0.3-0.7,0.7-0.7
							c0.4,0,0.7,0.3,0.7,0.7V1334.5z"/>
						<path id="XMLID_471_" class="st16" d="M474.8,1334.5c0,0.4-0.3,0.7-0.7,0.7c-0.4,0-0.7-0.3-0.7-0.7v-6c0-0.4,0.3-0.7,0.7-0.7
							c0.4,0,0.7,0.3,0.7,0.7V1334.5z"/>
						<path id="XMLID_470_" class="st16" d="M470.8,1342.8c0,0.6-0.4,1.1-0.9,1.1s-0.9-0.5-0.9-1.1v-9.2c0-0.6,0.4-1.1,0.9-1.1
							s0.9,0.5,0.9,1.1V1342.8z"/>
						<path id="XMLID_469_" class="st16" d="M473,1342.8c0,0.6-0.4,1.1-0.9,1.1c-0.5,0-0.9-0.5-0.9-1.1v-9.2c0-0.6,0.4-1.1,0.9-1.1
							c0.5,0,0.9,0.5,0.9,1.1V1342.8z"/>
						<rect id="XMLID_468_" x="469" y="1329.1" class="st15" width="4" height="5.9"/>
						<path id="XMLID_467_" class="st15" d="M468.4,1327.3h5.1c0.7,0,1.2,0.6,1.2,1.3v1.1h-7.6v-1.1
							C467.2,1327.8,467.8,1327.3,468.4,1327.3z"/>
					</g>
				</g>
				<rect id="XMLID_464_" x="476.6" y="1323.5" class="st15" width="0.6" height="20.4"/>
			</g>
		</g>
		<g id="IconBaño_20_">
			<path id="XMLID_462_" class="st13" d="M294.5,1280.5h-23c-0.5,0-0.9-0.4-0.9-0.9v-23c0-0.5,0.4-0.9,0.9-0.9h23
				c0.5,0,0.9,0.4,0.9,0.9v23C295.4,1280.1,295,1280.5,294.5,1280.5z"/>
			<path id="XMLID_461_" class="st14" d="M294.5,1255.7c-6.6,0-12.6,2.7-16.9,7c-4.3,4.3-7,10.3-7,16.9v-23c0-0.5,0.4-0.9,0.9-0.9
				H294.5z"/>
			<g id="XMLID_440_">
				<g id="XMLID_442_">
					<g id="XMLID_451_">
						<path id="XMLID_460_" class="st15" d="M288.5,1261.2c0.9,0,1.6-0.7,1.6-1.6c0-0.9-0.7-1.6-1.6-1.6s-1.6,0.7-1.6,1.6
							C286.9,1260.4,287.6,1261.2,288.5,1261.2z"/>
						<g id="XMLID_457_">
							<path id="XMLID_459_" class="st16" d="M288.3,1277.2c0,0.6-0.4,1.1-0.9,1.1c-0.5,0-0.9-0.5-0.9-1.1v-9.2
								c0-0.6,0.4-1.1,0.9-1.1c0.5,0,0.9,0.5,0.9,1.1V1277.2z"/>
							<path id="XMLID_458_" class="st16" d="M290.5,1277.2c0,0.6-0.4,1.1-0.9,1.1c-0.5,0-0.9-0.5-0.9-1.1v-9.2
								c0-0.6,0.4-1.1,0.9-1.1c0.5,0,0.9,0.5,0.9,1.1V1277.2z"/>
						</g>
						<polygon id="XMLID_456_" class="st15" points="285.8,1271 291.2,1271 289.9,1262.6 287.1,1262.6 						"/>
						<path id="XMLID_455_" class="st15" d="M286.5,1261.7h4c0.7,0,1.2,0.6,1.2,1.3v1.1h-6.4v-1.1
							C285.3,1262.3,285.8,1261.7,286.5,1261.7z"/>
						<g id="XMLID_452_">
							<path id="XMLID_454_" class="st16" d="M285.7,1269c-0.1,0.4-0.4,0.6-0.8,0.6c-0.4-0.1-0.6-0.4-0.6-0.8l1-5.9
								c0.1-0.4,0.4-0.6,0.8-0.6c0.4,0.1,0.6,0.4,0.6,0.8L285.7,1269z"/>
							<path id="XMLID_453_" class="st16" d="M291.3,1269c0.1,0.4,0.4,0.6,0.8,0.6s0.6-0.4,0.6-0.8l-1-5.9c-0.1-0.4-0.4-0.6-0.8-0.6
								c-0.4,0.1-0.6,0.4-0.6,0.8L291.3,1269z"/>
						</g>
					</g>
					<g id="XMLID_443_">
						<path id="XMLID_450_" class="st15" d="M277.3,1261.2c0.9,0,1.6-0.7,1.6-1.6s-0.7-1.6-1.6-1.6c-0.9,0-1.6,0.7-1.6,1.6
							S276.4,1261.2,277.3,1261.2z"/>
						<path id="XMLID_449_" class="st16" d="M274.8,1268.9c0,0.4-0.3,0.7-0.7,0.7c-0.4,0-0.7-0.3-0.7-0.7v-6c0-0.4,0.3-0.7,0.7-0.7
							c0.4,0,0.7,0.3,0.7,0.7V1268.9z"/>
						<path id="XMLID_448_" class="st16" d="M281,1268.9c0,0.4-0.3,0.7-0.7,0.7s-0.7-0.3-0.7-0.7v-6c0-0.4,0.3-0.7,0.7-0.7
							s0.7,0.3,0.7,0.7V1268.9z"/>
						<path id="XMLID_447_" class="st16" d="M277,1277.2c0,0.6-0.4,1.1-0.9,1.1s-0.9-0.5-0.9-1.1v-9.2c0-0.6,0.4-1.1,0.9-1.1
							s0.9,0.5,0.9,1.1V1277.2z"/>
						<path id="XMLID_446_" class="st16" d="M279.2,1277.2c0,0.6-0.4,1.1-0.9,1.1c-0.5,0-0.9-0.5-0.9-1.1v-9.2
							c0-0.6,0.4-1.1,0.9-1.1c0.5,0,0.9,0.5,0.9,1.1V1277.2z"/>
						<rect id="XMLID_445_" x="275.2" y="1263.6" class="st15" width="4" height="5.9"/>
						<path id="XMLID_444_" class="st15" d="M274.6,1261.7h5.1c0.7,0,1.2,0.6,1.2,1.3v1.1h-7.6v-1.1
							C273.4,1262.3,274,1261.7,274.6,1261.7z"/>
					</g>
				</g>
				<rect id="XMLID_441_" x="282.7" y="1257.9" class="st15" width="0.6" height="20.4"/>
			</g>
		</g>
		<g id="IconBaño_19_">
			<path id="XMLID_439_" class="st13" d="M438.5,1213.9h-23c-0.5,0-0.9-0.4-0.9-0.9v-23c0-0.5,0.4-0.9,0.9-0.9h23
				c0.5,0,0.9,0.4,0.9,0.9v23C439.4,1213.5,439,1213.9,438.5,1213.9z"/>
			<path id="XMLID_438_" class="st14" d="M438.5,1189.2c-6.6,0-12.6,2.7-16.9,7c-4.3,4.3-7,10.3-7,16.9v-23c0-0.5,0.4-0.9,0.9-0.9
				H438.5z"/>
			<g id="XMLID_417_">
				<g id="XMLID_419_">
					<g id="XMLID_428_">
						<path id="XMLID_437_" class="st15" d="M432.5,1194.6c0.9,0,1.6-0.7,1.6-1.6c0-0.9-0.7-1.6-1.6-1.6s-1.6,0.7-1.6,1.6
							C430.8,1193.9,431.6,1194.6,432.5,1194.6z"/>
						<g id="XMLID_434_">
							<path id="XMLID_436_" class="st16" d="M432.3,1210.7c0,0.6-0.4,1.1-0.9,1.1c-0.5,0-0.9-0.5-0.9-1.1v-9.2
								c0-0.6,0.4-1.1,0.9-1.1c0.5,0,0.9,0.5,0.9,1.1V1210.7z"/>
							<path id="XMLID_435_" class="st16" d="M434.5,1210.7c0,0.6-0.4,1.1-0.9,1.1c-0.5,0-0.9-0.5-0.9-1.1v-9.2
								c0-0.6,0.4-1.1,0.9-1.1c0.5,0,0.9,0.5,0.9,1.1V1210.7z"/>
						</g>
						<polygon id="XMLID_433_" class="st15" points="429.8,1204.4 435.2,1204.4 433.8,1196 431.1,1196 						"/>
						<path id="XMLID_432_" class="st15" d="M430.5,1195.1h4c0.7,0,1.2,0.6,1.2,1.3v1.1h-6.4v-1.1
							C429.3,1195.7,429.8,1195.1,430.5,1195.1z"/>
						<g id="XMLID_429_">
							<path id="XMLID_431_" class="st16" d="M429.7,1202.4c-0.1,0.4-0.4,0.6-0.8,0.6c-0.4-0.1-0.6-0.4-0.6-0.8l1-5.9
								c0.1-0.4,0.4-0.6,0.8-0.6c0.4,0.1,0.6,0.4,0.6,0.8L429.7,1202.4z"/>
							<path id="XMLID_430_" class="st16" d="M435.3,1202.4c0.1,0.4,0.4,0.6,0.8,0.6c0.4-0.1,0.6-0.4,0.6-0.8l-1-5.9
								c-0.1-0.4-0.4-0.6-0.8-0.6c-0.4,0.1-0.6,0.4-0.6,0.8L435.3,1202.4z"/>
						</g>
					</g>
					<g id="XMLID_420_">
						<path id="XMLID_427_" class="st15" d="M421.2,1194.6c0.9,0,1.6-0.7,1.6-1.6s-0.7-1.6-1.6-1.6c-0.9,0-1.6,0.7-1.6,1.6
							S420.3,1194.6,421.2,1194.6z"/>
						<path id="XMLID_426_" class="st16" d="M418.8,1202.3c0,0.4-0.3,0.7-0.7,0.7c-0.4,0-0.7-0.3-0.7-0.7v-6c0-0.4,0.3-0.7,0.7-0.7
							c0.4,0,0.7,0.3,0.7,0.7V1202.3z"/>
						<path id="XMLID_425_" class="st16" d="M424.9,1202.3c0,0.4-0.3,0.7-0.7,0.7c-0.4,0-0.7-0.3-0.7-0.7v-6c0-0.4,0.3-0.7,0.7-0.7
							c0.4,0,0.7,0.3,0.7,0.7V1202.3z"/>
						<path id="XMLID_424_" class="st16" d="M420.9,1210.7c0,0.6-0.4,1.1-0.9,1.1c-0.5,0-0.9-0.5-0.9-1.1v-9.2
							c0-0.6,0.4-1.1,0.9-1.1c0.5,0,0.9,0.5,0.9,1.1V1210.7z"/>
						<path id="XMLID_423_" class="st16" d="M423.1,1210.7c0,0.6-0.4,1.1-0.9,1.1c-0.5,0-0.9-0.5-0.9-1.1v-9.2
							c0-0.6,0.4-1.1,0.9-1.1c0.5,0,0.9,0.5,0.9,1.1V1210.7z"/>
						<rect id="XMLID_422_" x="419.2" y="1197" class="st15" width="4" height="5.9"/>
						<path id="XMLID_421_" class="st15" d="M418.6,1195.1h5.1c0.7,0,1.2,0.6,1.2,1.3v1.1h-7.6v-1.1
							C417.4,1195.7,417.9,1195.1,418.6,1195.1z"/>
					</g>
				</g>
				<rect id="XMLID_418_" x="426.7" y="1191.3" class="st15" width="0.6" height="20.4"/>
			</g>
		</g>
		<g id="IconBaño_18_">
			<path id="XMLID_416_" class="st13" d="M491.3,978.3h-23c-0.5,0-0.9-0.4-0.9-0.9v-23c0-0.5,0.4-0.9,0.9-0.9h23
				c0.5,0,0.9,0.4,0.9,0.9v23C492.2,977.9,491.8,978.3,491.3,978.3z"/>
			<path id="XMLID_415_" class="st14" d="M491.3,953.5c-6.6,0-12.6,2.7-16.9,7c-4.3,4.3-7,10.3-7,16.9v-23c0-0.5,0.4-0.9,0.9-0.9
				H491.3z"/>
			<g id="XMLID_394_">
				<g id="XMLID_396_">
					<g id="XMLID_405_">
						<path id="XMLID_414_" class="st15" d="M485.3,958.9c0.9,0,1.6-0.7,1.6-1.6c0-0.9-0.7-1.6-1.6-1.6s-1.6,0.7-1.6,1.6
							C483.6,958.2,484.4,958.9,485.3,958.9z"/>
						<g id="XMLID_411_">
							<path id="XMLID_413_" class="st16" d="M485,975c0,0.6-0.4,1.1-0.9,1.1c-0.5,0-0.9-0.5-0.9-1.1v-9.2c0-0.6,0.4-1.1,0.9-1.1
								c0.5,0,0.9,0.5,0.9,1.1V975z"/>
							<path id="XMLID_412_" class="st16" d="M487.2,975c0,0.6-0.4,1.1-0.9,1.1s-0.9-0.5-0.9-1.1v-9.2c0-0.6,0.4-1.1,0.9-1.1
								s0.9,0.5,0.9,1.1V975z"/>
						</g>
						<polygon id="XMLID_410_" class="st15" points="482.6,968.7 487.9,968.7 486.6,960.3 483.9,960.3 						"/>
						<path id="XMLID_409_" class="st15" d="M483.3,959.4h4c0.7,0,1.2,0.6,1.2,1.3v1.1H482v-1.1C482,960,482.6,959.4,483.3,959.4z"
							/>
						<g id="XMLID_406_">
							<path id="XMLID_408_" class="st16" d="M482.4,966.8c-0.1,0.4-0.4,0.6-0.8,0.6c-0.4-0.1-0.6-0.4-0.6-0.8l1-5.9
								c0.1-0.4,0.4-0.6,0.8-0.6c0.4,0.1,0.6,0.4,0.6,0.8L482.4,966.8z"/>
							<path id="XMLID_407_" class="st16" d="M488.1,966.8c0.1,0.4,0.4,0.6,0.8,0.6c0.4-0.1,0.6-0.4,0.6-0.8l-1-5.9
								c-0.1-0.4-0.4-0.6-0.8-0.6c-0.4,0.1-0.6,0.4-0.6,0.8L488.1,966.8z"/>
						</g>
					</g>
					<g id="XMLID_397_">
						<path id="XMLID_404_" class="st15" d="M474,958.9c0.9,0,1.6-0.7,1.6-1.6c0-0.9-0.7-1.6-1.6-1.6c-0.9,0-1.6,0.7-1.6,1.6
							C472.4,958.2,473.1,958.9,474,958.9z"/>
						<path id="XMLID_403_" class="st16" d="M471.6,966.6c0,0.4-0.3,0.7-0.7,0.7c-0.4,0-0.7-0.3-0.7-0.7v-6c0-0.4,0.3-0.7,0.7-0.7
							c0.4,0,0.7,0.3,0.7,0.7V966.6z"/>
						<path id="XMLID_402_" class="st16" d="M477.7,966.6c0,0.4-0.3,0.7-0.7,0.7c-0.4,0-0.7-0.3-0.7-0.7v-6c0-0.4,0.3-0.7,0.7-0.7
							c0.4,0,0.7,0.3,0.7,0.7V966.6z"/>
						<path id="XMLID_401_" class="st16" d="M473.7,975c0,0.6-0.4,1.1-0.9,1.1c-0.5,0-0.9-0.5-0.9-1.1v-9.2c0-0.6,0.4-1.1,0.9-1.1
							c0.5,0,0.9,0.5,0.9,1.1V975z"/>
						<path id="XMLID_400_" class="st16" d="M475.9,975c0,0.6-0.4,1.1-0.9,1.1c-0.5,0-0.9-0.5-0.9-1.1v-9.2c0-0.6,0.4-1.1,0.9-1.1
							c0.5,0,0.9,0.5,0.9,1.1V975z"/>
						<rect id="XMLID_399_" x="472" y="961.3" class="st15" width="4" height="5.9"/>
						<path id="XMLID_398_" class="st15" d="M471.4,959.4h5.1c0.7,0,1.2,0.6,1.2,1.3v1.1h-7.6v-1.1
							C470.2,960,470.7,959.4,471.4,959.4z"/>
					</g>
				</g>
				<rect id="XMLID_395_" x="479.5" y="955.7" class="st15" width="0.6" height="20.4"/>
			</g>
		</g>
		<g id="IconBaño_17_">
			<path id="XMLID_393_" class="st13" d="M488.4,848.6h-23c-0.5,0-0.9-0.4-0.9-0.9v-23c0-0.5,0.4-0.9,0.9-0.9h23
				c0.5,0,0.9,0.4,0.9,0.9v23C489.3,848.2,488.9,848.6,488.4,848.6z"/>
			<path id="XMLID_392_" class="st14" d="M488.4,823.8c-6.6,0-12.6,2.7-16.9,7c-4.3,4.3-7,10.3-7,16.9v-23c0-0.5,0.4-0.9,0.9-0.9
				H488.4z"/>
			<g id="XMLID_371_">
				<g id="XMLID_373_">
					<g id="XMLID_382_">
						<path id="XMLID_391_" class="st15" d="M482.3,829.3c0.9,0,1.6-0.7,1.6-1.6c0-0.9-0.7-1.6-1.6-1.6c-0.9,0-1.6,0.7-1.6,1.6
							C480.7,828.5,481.4,829.3,482.3,829.3z"/>
						<g id="XMLID_388_">
							<path id="XMLID_390_" class="st16" d="M482.1,845.3c0,0.6-0.4,1.1-0.9,1.1s-0.9-0.5-0.9-1.1v-9.2c0-0.6,0.4-1.1,0.9-1.1
								s0.9,0.5,0.9,1.1V845.3z"/>
							<path id="XMLID_389_" class="st16" d="M484.3,845.3c0,0.6-0.4,1.1-0.9,1.1c-0.5,0-0.9-0.5-0.9-1.1v-9.2
								c0-0.6,0.4-1.1,0.9-1.1c0.5,0,0.9,0.5,0.9,1.1V845.3z"/>
						</g>
						<polygon id="XMLID_387_" class="st15" points="479.6,839.1 485,839.1 483.7,830.7 480.9,830.7 						"/>
						<path id="XMLID_386_" class="st15" d="M480.3,829.8h4c0.7,0,1.2,0.6,1.2,1.3v1.1h-6.4V831
							C479.1,830.3,479.6,829.8,480.3,829.8z"/>
						<g id="XMLID_383_">
							<path id="XMLID_385_" class="st16" d="M479.5,837.1c-0.1,0.4-0.4,0.6-0.8,0.6c-0.4-0.1-0.6-0.4-0.6-0.8l1-5.9
								c0.1-0.4,0.4-0.6,0.8-0.6c0.4,0.1,0.6,0.4,0.6,0.8L479.5,837.1z"/>
							<path id="XMLID_384_" class="st16" d="M485.1,837.1c0.1,0.4,0.4,0.6,0.8,0.6c0.4-0.1,0.6-0.4,0.6-0.8l-1-5.9
								c-0.1-0.4-0.4-0.6-0.8-0.6c-0.4,0.1-0.6,0.4-0.6,0.8L485.1,837.1z"/>
						</g>
					</g>
					<g id="XMLID_374_">
						<path id="XMLID_381_" class="st15" d="M471.1,829.3c0.9,0,1.6-0.7,1.6-1.6s-0.7-1.6-1.6-1.6c-0.9,0-1.6,0.7-1.6,1.6
							S470.2,829.3,471.1,829.3z"/>
						<path id="XMLID_380_" class="st16" d="M468.6,837c0,0.4-0.3,0.7-0.7,0.7c-0.4,0-0.7-0.3-0.7-0.7v-6c0-0.4,0.3-0.7,0.7-0.7
							c0.4,0,0.7,0.3,0.7,0.7V837z"/>
						<path id="XMLID_379_" class="st16" d="M474.8,837c0,0.4-0.3,0.7-0.7,0.7c-0.4,0-0.7-0.3-0.7-0.7v-6c0-0.4,0.3-0.7,0.7-0.7
							c0.4,0,0.7,0.3,0.7,0.7V837z"/>
						<path id="XMLID_378_" class="st16" d="M470.8,845.3c0,0.6-0.4,1.1-0.9,1.1s-0.9-0.5-0.9-1.1v-9.2c0-0.6,0.4-1.1,0.9-1.1
							s0.9,0.5,0.9,1.1V845.3z"/>
						<path id="XMLID_377_" class="st16" d="M473,845.3c0,0.6-0.4,1.1-0.9,1.1c-0.5,0-0.9-0.5-0.9-1.1v-9.2c0-0.6,0.4-1.1,0.9-1.1
							c0.5,0,0.9,0.5,0.9,1.1V845.3z"/>
						<rect id="XMLID_376_" x="469" y="831.7" class="st15" width="4" height="5.9"/>
						<path id="XMLID_375_" class="st15" d="M468.4,829.8h5.1c0.7,0,1.2,0.6,1.2,1.3v1.1h-7.6V831
							C467.2,830.3,467.8,829.8,468.4,829.8z"/>
					</g>
				</g>
				<rect id="XMLID_372_" x="476.6" y="826" class="st15" width="0.6" height="20.4"/>
			</g>
		</g>
		<g id="IconBaño_16_">
			<path id="XMLID_370_" class="st13" d="M233.3,777.1h-23c-0.5,0-0.9-0.4-0.9-0.9v-23c0-0.5,0.4-0.9,0.9-0.9h23
				c0.5,0,0.9,0.4,0.9,0.9v23C234.2,776.7,233.8,777.1,233.3,777.1z"/>
			<path id="XMLID_369_" class="st14" d="M233.3,752.3c-6.6,0-12.6,2.7-16.9,7c-4.3,4.3-7,10.3-7,16.9v-23c0-0.5,0.4-0.9,0.9-0.9
				H233.3z"/>
			<g id="XMLID_348_">
				<g id="XMLID_350_">
					<g id="XMLID_359_">
						<path id="XMLID_368_" class="st15" d="M227.3,757.7c0.9,0,1.6-0.7,1.6-1.6c0-0.9-0.7-1.6-1.6-1.6c-0.9,0-1.6,0.7-1.6,1.6
							C225.7,757,226.4,757.7,227.3,757.7z"/>
						<g id="XMLID_365_">
							<path id="XMLID_367_" class="st16" d="M227.1,773.8c0,0.6-0.4,1.1-0.9,1.1c-0.5,0-0.9-0.5-0.9-1.1v-9.2
								c0-0.6,0.4-1.1,0.9-1.1c0.5,0,0.9,0.5,0.9,1.1V773.8z"/>
							<path id="XMLID_366_" class="st16" d="M229.3,773.8c0,0.6-0.4,1.1-0.9,1.1c-0.5,0-0.9-0.5-0.9-1.1v-9.2
								c0-0.6,0.4-1.1,0.9-1.1c0.5,0,0.9,0.5,0.9,1.1V773.8z"/>
						</g>
						<polygon id="XMLID_364_" class="st15" points="224.6,767.5 230,767.5 228.7,759.1 225.9,759.1 						"/>
						<path id="XMLID_363_" class="st15" d="M225.3,758.2h4c0.7,0,1.2,0.6,1.2,1.3v1.1h-6.4v-1.1
							C224.1,758.8,224.6,758.2,225.3,758.2z"/>
						<g id="XMLID_360_">
							<path id="XMLID_362_" class="st16" d="M224.5,765.6c-0.1,0.4-0.4,0.6-0.8,0.6c-0.4-0.1-0.6-0.4-0.6-0.8l1-5.9
								c0.1-0.4,0.4-0.6,0.8-0.6c0.4,0.1,0.6,0.4,0.6,0.8L224.5,765.6z"/>
							<path id="XMLID_361_" class="st16" d="M230.1,765.6c0.1,0.4,0.4,0.6,0.8,0.6c0.4-0.1,0.6-0.4,0.6-0.8l-1-5.9
								c-0.1-0.4-0.4-0.6-0.8-0.6c-0.4,0.1-0.6,0.4-0.6,0.8L230.1,765.6z"/>
						</g>
					</g>
					<g id="XMLID_351_">
						<path id="XMLID_358_" class="st15" d="M216.1,757.7c0.9,0,1.6-0.7,1.6-1.6c0-0.9-0.7-1.6-1.6-1.6c-0.9,0-1.6,0.7-1.6,1.6
							C214.4,757,215.2,757.7,216.1,757.7z"/>
						<path id="XMLID_357_" class="st16" d="M213.6,765.4c0,0.4-0.3,0.7-0.7,0.7c-0.4,0-0.7-0.3-0.7-0.7v-6c0-0.4,0.3-0.7,0.7-0.7
							c0.4,0,0.7,0.3,0.7,0.7V765.4z"/>
						<path id="XMLID_356_" class="st16" d="M219.8,765.4c0,0.4-0.3,0.7-0.7,0.7c-0.4,0-0.7-0.3-0.7-0.7v-6c0-0.4,0.3-0.7,0.7-0.7
							c0.4,0,0.7,0.3,0.7,0.7V765.4z"/>
						<path id="XMLID_355_" class="st16" d="M215.8,773.8c0,0.6-0.4,1.1-0.9,1.1s-0.9-0.5-0.9-1.1v-9.2c0-0.6,0.4-1.1,0.9-1.1
							s0.9,0.5,0.9,1.1V773.8z"/>
						<path id="XMLID_354_" class="st16" d="M218,773.8c0,0.6-0.4,1.1-0.9,1.1c-0.5,0-0.9-0.5-0.9-1.1v-9.2c0-0.6,0.4-1.1,0.9-1.1
							c0.5,0,0.9,0.5,0.9,1.1V773.8z"/>
						<rect id="XMLID_353_" x="214" y="760.1" class="st15" width="4" height="5.9"/>
						<path id="XMLID_352_" class="st15" d="M213.4,758.2h5.1c0.7,0,1.2,0.6,1.2,1.3v1.1h-7.6v-1.1
							C212.2,758.8,212.8,758.2,213.4,758.2z"/>
					</g>
				</g>
				<rect id="XMLID_349_" x="221.5" y="754.5" class="st15" width="0.6" height="20.4"/>
			</g>
		</g>
		<g id="IconBaño_15_">
			<path id="XMLID_347_" class="st13" d="M320.2,623.2h-23c-0.5,0-0.9-0.4-0.9-0.9v-23c0-0.5,0.4-0.9,0.9-0.9h23
				c0.5,0,0.9,0.4,0.9,0.9v23C321.2,622.8,320.7,623.2,320.2,623.2z"/>
			<path id="XMLID_346_" class="st14" d="M320.2,598.4c-6.6,0-12.6,2.7-16.9,7c-4.3,4.3-7,10.3-7,16.9v-23c0-0.5,0.4-0.9,0.9-0.9
				H320.2z"/>
			<g id="XMLID_325_">
				<g id="XMLID_327_">
					<g id="XMLID_336_">
						<path id="XMLID_345_" class="st15" d="M314.2,603.9c0.9,0,1.6-0.7,1.6-1.6c0-0.9-0.7-1.6-1.6-1.6s-1.6,0.7-1.6,1.6
							C312.6,603.1,313.3,603.9,314.2,603.9z"/>
						<g id="XMLID_342_">
							<path id="XMLID_344_" class="st16" d="M314,620c0,0.6-0.4,1.1-0.9,1.1c-0.5,0-0.9-0.5-0.9-1.1v-9.2c0-0.6,0.4-1.1,0.9-1.1
								c0.5,0,0.9,0.5,0.9,1.1V620z"/>
							<path id="XMLID_343_" class="st16" d="M316.2,620c0,0.6-0.4,1.1-0.9,1.1s-0.9-0.5-0.9-1.1v-9.2c0-0.6,0.4-1.1,0.9-1.1
								s0.9,0.5,0.9,1.1V620z"/>
						</g>
						<polygon id="XMLID_341_" class="st15" points="311.5,613.7 316.9,613.7 315.6,605.3 312.8,605.3 						"/>
						<path id="XMLID_340_" class="st15" d="M312.2,604.4h4c0.7,0,1.2,0.6,1.2,1.3v1.1H311v-1.1C311,605,311.5,604.4,312.2,604.4z"
							/>
						<g id="XMLID_337_">
							<path id="XMLID_339_" class="st16" d="M311.4,611.7c-0.1,0.4-0.4,0.6-0.8,0.6c-0.4-0.1-0.6-0.4-0.6-0.8l1-5.9
								c0.1-0.4,0.4-0.6,0.8-0.6c0.4,0.1,0.6,0.4,0.6,0.8L311.4,611.7z"/>
							<path id="XMLID_338_" class="st16" d="M317,611.7c0.1,0.4,0.4,0.6,0.8,0.6c0.4-0.1,0.6-0.4,0.6-0.8l-1-5.9
								c-0.1-0.4-0.4-0.6-0.8-0.6c-0.4,0.1-0.6,0.4-0.6,0.8L317,611.7z"/>
						</g>
					</g>
					<g id="XMLID_328_">
						<path id="XMLID_335_" class="st15" d="M303,603.9c0.9,0,1.6-0.7,1.6-1.6c0-0.9-0.7-1.6-1.6-1.6c-0.9,0-1.6,0.7-1.6,1.6
							C301.3,603.1,302.1,603.9,303,603.9z"/>
						<path id="XMLID_334_" class="st16" d="M300.5,611.6c0,0.4-0.3,0.7-0.7,0.7c-0.4,0-0.7-0.3-0.7-0.7v-6c0-0.4,0.3-0.7,0.7-0.7
							c0.4,0,0.7,0.3,0.7,0.7V611.6z"/>
						<path id="XMLID_333_" class="st16" d="M306.7,611.6c0,0.4-0.3,0.7-0.7,0.7c-0.4,0-0.7-0.3-0.7-0.7v-6c0-0.4,0.3-0.7,0.7-0.7
							c0.4,0,0.7,0.3,0.7,0.7V611.6z"/>
						<path id="XMLID_332_" class="st16" d="M302.7,620c0,0.6-0.4,1.1-0.9,1.1c-0.5,0-0.9-0.5-0.9-1.1v-9.2c0-0.6,0.4-1.1,0.9-1.1
							c0.5,0,0.9,0.5,0.9,1.1V620z"/>
						<path id="XMLID_331_" class="st16" d="M304.9,620c0,0.6-0.4,1.1-0.9,1.1c-0.5,0-0.9-0.5-0.9-1.1v-9.2c0-0.6,0.4-1.1,0.9-1.1
							c0.5,0,0.9,0.5,0.9,1.1V620z"/>
						<rect id="XMLID_330_" x="300.9" y="606.3" class="st15" width="4" height="5.9"/>
						<path id="XMLID_329_" class="st15" d="M300.3,604.4h5.1c0.7,0,1.2,0.6,1.2,1.3v1.1h-7.6v-1.1
							C299.1,605,299.7,604.4,300.3,604.4z"/>
					</g>
				</g>
				<rect id="XMLID_326_" x="308.5" y="600.6" class="st15" width="0.6" height="20.4"/>
			</g>
		</g>
		<g id="IconBaño_14_">
			<path id="XMLID_324_" class="st13" d="M533.1,582.3h-23c-0.5,0-0.9-0.4-0.9-0.9v-23c0-0.5,0.4-0.9,0.9-0.9h23
				c0.5,0,0.9,0.4,0.9,0.9v23C534,581.9,533.6,582.3,533.1,582.3z"/>
			<path id="XMLID_323_" class="st14" d="M533.1,557.5c-6.6,0-12.6,2.7-16.9,7c-4.3,4.3-7,10.3-7,16.9v-23c0-0.5,0.4-0.9,0.9-0.9
				H533.1z"/>
			<g id="XMLID_302_">
				<g id="XMLID_304_">
					<g id="XMLID_313_">
						<path id="XMLID_322_" class="st15" d="M527.1,562.9c0.9,0,1.6-0.7,1.6-1.6s-0.7-1.6-1.6-1.6s-1.6,0.7-1.6,1.6
							S526.2,562.9,527.1,562.9z"/>
						<g id="XMLID_319_">
							<path id="XMLID_321_" class="st16" d="M526.9,579c0,0.6-0.4,1.1-0.9,1.1s-0.9-0.5-0.9-1.1v-9.2c0-0.6,0.4-1.1,0.9-1.1
								s0.9,0.5,0.9,1.1V579z"/>
							<path id="XMLID_320_" class="st16" d="M529.1,579c0,0.6-0.4,1.1-0.9,1.1c-0.5,0-0.9-0.5-0.9-1.1v-9.2c0-0.6,0.4-1.1,0.9-1.1
								c0.5,0,0.9,0.5,0.9,1.1V579z"/>
						</g>
						<polygon id="XMLID_318_" class="st15" points="524.4,572.8 529.8,572.8 528.4,564.3 525.7,564.3 						"/>
						<path id="XMLID_317_" class="st15" d="M525.1,563.5h4c0.7,0,1.2,0.6,1.2,1.3v1.1h-6.4v-1.1C523.9,564,524.4,563.5,525.1,563.5
							z"/>
						<g id="XMLID_314_">
							<path id="XMLID_316_" class="st16" d="M524.3,570.8c-0.1,0.4-0.4,0.6-0.8,0.6c-0.4-0.1-0.6-0.4-0.6-0.8l1-5.9
								c0.1-0.4,0.4-0.6,0.8-0.6c0.4,0.1,0.6,0.4,0.6,0.8L524.3,570.8z"/>
							<path id="XMLID_315_" class="st16" d="M529.9,570.8c0.1,0.4,0.4,0.6,0.8,0.6c0.4-0.1,0.6-0.4,0.6-0.8l-1-5.9
								c-0.1-0.4-0.4-0.6-0.8-0.6c-0.4,0.1-0.6,0.4-0.6,0.8L529.9,570.8z"/>
						</g>
					</g>
					<g id="XMLID_305_">
						<path id="XMLID_312_" class="st15" d="M515.8,562.9c0.9,0,1.6-0.7,1.6-1.6c0-0.9-0.7-1.6-1.6-1.6c-0.9,0-1.6,0.7-1.6,1.6
							C514.2,562.2,514.9,562.9,515.8,562.9z"/>
						<path id="XMLID_311_" class="st16" d="M513.4,570.7c0,0.4-0.3,0.7-0.7,0.7c-0.4,0-0.7-0.3-0.7-0.7v-6c0-0.4,0.3-0.7,0.7-0.7
							c0.4,0,0.7,0.3,0.7,0.7V570.7z"/>
						<path id="XMLID_310_" class="st16" d="M519.5,570.7c0,0.4-0.3,0.7-0.7,0.7s-0.7-0.3-0.7-0.7v-6c0-0.4,0.3-0.7,0.7-0.7
							s0.7,0.3,0.7,0.7V570.7z"/>
						<path id="XMLID_309_" class="st16" d="M515.5,579c0,0.6-0.4,1.1-0.9,1.1s-0.9-0.5-0.9-1.1v-9.2c0-0.6,0.4-1.1,0.9-1.1
							s0.9,0.5,0.9,1.1V579z"/>
						<path id="XMLID_308_" class="st16" d="M517.7,579c0,0.6-0.4,1.1-0.9,1.1c-0.5,0-0.9-0.5-0.9-1.1v-9.2c0-0.6,0.4-1.1,0.9-1.1
							c0.5,0,0.9,0.5,0.9,1.1V579z"/>
						<rect id="XMLID_307_" x="513.8" y="565.3" class="st15" width="4" height="5.9"/>
						<path id="XMLID_306_" class="st15" d="M513.2,563.5h5.1c0.7,0,1.2,0.6,1.2,1.3v1.1H512v-1.1C512,564,512.5,563.5,513.2,563.5z
							"/>
					</g>
				</g>
				<rect id="XMLID_303_" x="521.3" y="559.7" class="st15" width="0.6" height="20.4"/>
			</g>
		</g>
		<g id="IconBaño_13_">
			<path id="XMLID_301_" class="st13" d="M510.5,372.6h-23c-0.5,0-0.9-0.4-0.9-0.9v-23c0-0.5,0.4-0.9,0.9-0.9h23
				c0.5,0,0.9,0.4,0.9,0.9v23C511.4,372.2,511,372.6,510.5,372.6z"/>
			<path id="XMLID_300_" class="st14" d="M510.5,347.9c-6.6,0-12.6,2.7-16.9,7c-4.3,4.3-7,10.3-7,16.9v-23c0-0.5,0.4-0.9,0.9-0.9
				H510.5z"/>
			<g id="XMLID_279_">
				<g id="XMLID_281_">
					<g id="XMLID_290_">
						<path id="XMLID_299_" class="st15" d="M504.5,353.3c0.9,0,1.6-0.7,1.6-1.6c0-0.9-0.7-1.6-1.6-1.6s-1.6,0.7-1.6,1.6
							C502.8,352.6,503.6,353.3,504.5,353.3z"/>
						<g id="XMLID_296_">
							<path id="XMLID_298_" class="st16" d="M504.3,369.4c0,0.6-0.4,1.1-0.9,1.1c-0.5,0-0.9-0.5-0.9-1.1v-9.2
								c0-0.6,0.4-1.1,0.9-1.1c0.5,0,0.9,0.5,0.9,1.1V369.4z"/>
							<path id="XMLID_297_" class="st16" d="M506.4,369.4c0,0.6-0.4,1.1-0.9,1.1c-0.5,0-0.9-0.5-0.9-1.1v-9.2
								c0-0.6,0.4-1.1,0.9-1.1c0.5,0,0.9,0.5,0.9,1.1V369.4z"/>
						</g>
						<polygon id="XMLID_295_" class="st15" points="501.8,363.1 507.2,363.1 505.8,354.7 503.1,354.7 						"/>
						<path id="XMLID_294_" class="st15" d="M502.5,353.8h4c0.7,0,1.2,0.6,1.2,1.3v1.1h-6.4v-1.1
							C501.3,354.4,501.8,353.8,502.5,353.8z"/>
						<g id="XMLID_291_">
							<path id="XMLID_293_" class="st16" d="M501.7,361.1c-0.1,0.4-0.4,0.6-0.8,0.6c-0.4-0.1-0.6-0.4-0.6-0.8l1-5.9
								c0.1-0.4,0.4-0.6,0.8-0.6c0.4,0.1,0.6,0.4,0.6,0.8L501.7,361.1z"/>
							<path id="XMLID_292_" class="st16" d="M507.3,361.1c0.1,0.4,0.4,0.6,0.8,0.6c0.4-0.1,0.6-0.4,0.6-0.8l-1-5.9
								c-0.1-0.4-0.4-0.6-0.8-0.6c-0.4,0.1-0.6,0.4-0.6,0.8L507.3,361.1z"/>
						</g>
					</g>
					<g id="XMLID_282_">
						<path id="XMLID_289_" class="st15" d="M493.2,353.3c0.9,0,1.6-0.7,1.6-1.6c0-0.9-0.7-1.6-1.6-1.6c-0.9,0-1.6,0.7-1.6,1.6
							C491.6,352.6,492.3,353.3,493.2,353.3z"/>
						<path id="XMLID_288_" class="st16" d="M490.8,361c0,0.4-0.3,0.7-0.7,0.7c-0.4,0-0.7-0.3-0.7-0.7v-6c0-0.4,0.3-0.7,0.7-0.7
							c0.4,0,0.7,0.3,0.7,0.7V361z"/>
						<path id="XMLID_287_" class="st16" d="M496.9,361c0,0.4-0.3,0.7-0.7,0.7s-0.7-0.3-0.7-0.7v-6c0-0.4,0.3-0.7,0.7-0.7
							s0.7,0.3,0.7,0.7V361z"/>
						<path id="XMLID_286_" class="st16" d="M492.9,369.4c0,0.6-0.4,1.1-0.9,1.1s-0.9-0.5-0.9-1.1v-9.2c0-0.6,0.4-1.1,0.9-1.1
							s0.9,0.5,0.9,1.1V369.4z"/>
						<path id="XMLID_285_" class="st16" d="M495.1,369.4c0,0.6-0.4,1.1-0.9,1.1c-0.5,0-0.9-0.5-0.9-1.1v-9.2c0-0.6,0.4-1.1,0.9-1.1
							c0.5,0,0.9,0.5,0.9,1.1V369.4z"/>
						<rect id="XMLID_284_" x="491.2" y="355.7" class="st15" width="4" height="5.9"/>
						<path id="XMLID_283_" class="st15" d="M490.6,353.8h5.1c0.7,0,1.2,0.6,1.2,1.3v1.1h-7.6v-1.1
							C489.4,354.4,489.9,353.8,490.6,353.8z"/>
					</g>
				</g>
				<rect id="XMLID_280_" x="498.7" y="350" class="st15" width="0.6" height="20.4"/>
			</g>
		</g>
		<g id="IconBaño_12_">
			<path id="XMLID_278_" class="st13" d="M274.9,74.3h-23c-0.5,0-0.9-0.4-0.9-0.9v-23c0-0.5,0.4-0.9,0.9-0.9h23
				c0.5,0,0.9,0.4,0.9,0.9v23C275.8,73.9,275.4,74.3,274.9,74.3z"/>
			<path id="XMLID_277_" class="st14" d="M274.9,49.5c-6.6,0-12.6,2.7-16.9,7c-4.3,4.3-7,10.3-7,16.9v-23c0-0.5,0.4-0.9,0.9-0.9
				H274.9z"/>
			<g id="XMLID_256_">
				<g id="XMLID_258_">
					<g id="XMLID_267_">
						<path id="XMLID_276_" class="st15" d="M268.9,54.9c0.9,0,1.6-0.7,1.6-1.6c0-0.9-0.7-1.6-1.6-1.6c-0.9,0-1.6,0.7-1.6,1.6
							C267.2,54.2,268,54.9,268.9,54.9z"/>
						<g id="XMLID_273_">
							<path id="XMLID_275_" class="st16" d="M268.6,71c0,0.6-0.4,1.1-0.9,1.1s-0.9-0.5-0.9-1.1v-9.2c0-0.6,0.4-1.1,0.9-1.1
								s0.9,0.5,0.9,1.1V71z"/>
							<path id="XMLID_274_" class="st16" d="M270.8,71c0,0.6-0.4,1.1-0.9,1.1c-0.5,0-0.9-0.5-0.9-1.1v-9.2c0-0.6,0.4-1.1,0.9-1.1
								c0.5,0,0.9,0.5,0.9,1.1V71z"/>
						</g>
						<polygon id="XMLID_272_" class="st15" points="266.2,64.7 271.5,64.7 270.2,56.3 267.5,56.3 						"/>
						<path id="XMLID_271_" class="st15" d="M266.9,55.4h4c0.7,0,1.2,0.6,1.2,1.3v1.1h-6.4v-1.1C265.6,56,266.2,55.4,266.9,55.4z"/>
						<g id="XMLID_268_">
							<path id="XMLID_270_" class="st16" d="M266,62.7c-0.1,0.4-0.4,0.6-0.8,0.6c-0.4-0.1-0.6-0.4-0.6-0.8l1-5.9
								c0.1-0.4,0.4-0.6,0.8-0.6c0.4,0.1,0.6,0.4,0.6,0.8L266,62.7z"/>
							<path id="XMLID_269_" class="st16" d="M271.7,62.7c0.1,0.4,0.4,0.6,0.8,0.6c0.4-0.1,0.6-0.4,0.6-0.8l-1-5.9
								c-0.1-0.4-0.4-0.6-0.8-0.6c-0.4,0.1-0.6,0.4-0.6,0.8L271.7,62.7z"/>
						</g>
					</g>
					<g id="XMLID_259_">
						<path id="XMLID_266_" class="st15" d="M257.6,54.9c0.9,0,1.6-0.7,1.6-1.6c0-0.9-0.7-1.6-1.6-1.6c-0.9,0-1.6,0.7-1.6,1.6
							C256,54.2,256.7,54.9,257.6,54.9z"/>
						<path id="XMLID_265_" class="st16" d="M255.2,62.6c0,0.4-0.3,0.7-0.7,0.7c-0.4,0-0.7-0.3-0.7-0.7v-6c0-0.4,0.3-0.7,0.7-0.7
							c0.4,0,0.7,0.3,0.7,0.7V62.6z"/>
						<path id="XMLID_264_" class="st16" d="M261.3,62.6c0,0.4-0.3,0.7-0.7,0.7c-0.4,0-0.7-0.3-0.7-0.7v-6c0-0.4,0.3-0.7,0.7-0.7
							c0.4,0,0.7,0.3,0.7,0.7V62.6z"/>
						<path id="XMLID_263_" class="st16" d="M257.3,71c0,0.6-0.4,1.1-0.9,1.1s-0.9-0.5-0.9-1.1v-9.2c0-0.6,0.4-1.1,0.9-1.1
							s0.9,0.5,0.9,1.1V71z"/>
						<path id="XMLID_262_" class="st16" d="M259.5,71c0,0.6-0.4,1.1-0.9,1.1c-0.5,0-0.9-0.5-0.9-1.1v-9.2c0-0.6,0.4-1.1,0.9-1.1
							c0.5,0,0.9,0.5,0.9,1.1V71z"/>
						<rect id="XMLID_261_" x="255.6" y="57.3" class="st15" width="4" height="5.9"/>
						<path id="XMLID_260_" class="st15" d="M255,55.4h5.1c0.7,0,1.2,0.6,1.2,1.3v1.1h-7.6v-1.1C253.8,56,254.3,55.4,255,55.4z"/>
					</g>
				</g>
				<rect id="XMLID_257_" x="263.1" y="51.7" class="st15" width="0.6" height="20.4"/>
			</g>
		</g>
	</g>
	<g>
		<path class="st17" d="M282.3,1700.5h-20.6c-1.3,0-2.4-1.1-2.4-2.4v-20.6c0-1.3,1.1-2.4,2.4-2.4h20.6c1.3,0,2.4,1.1,2.4,2.4v20.6
			C284.7,1699.5,283.6,1700.5,282.3,1700.5z"/>
		<path class="st5" d="M273,1685.6c0.7,0.7,1.3,1.4,1.9,2.1c0.3,0.3,0.5,0.6,0.8,0.9c0.4,0.4,0.9,0.4,1.3,0.2
			c0.4-0.3,0.5-0.8,0.3-1.2c-0.2-0.4-0.7-0.7-1.2-0.5c-0.1,0-0.2,0.1-0.3,0.1c-0.1,0-0.3,0-0.4-0.1c-0.2-0.2-0.4-0.4-0.5-0.6
			c-0.2-0.2-0.1-0.4,0.1-0.5c0.8-0.5,1.8-0.6,2.7,0c0.8,0.5,1.3,1.5,1.1,2.5c-0.2,1-1,1.7-2,1.9c-0.8,0.1-1.5-0.1-2.1-0.7
			c-1.1-1.1-2.1-2.3-3.2-3.4c-0.2-0.3-0.3-0.6-0.1-0.9c1-1.8,2.4-2.8,4.4-3c2.9-0.3,5.5,1.7,6.1,4.5c0.6,3-1.5,6.1-4.5,6.6
			c-1.3,0.2-2.6,0-3.7-0.6c-0.4-0.2-0.4-0.3-0.2-0.7c0.1-0.1,0.2-0.3,0.3-0.4c0.2-0.3,0.3-0.3,0.6-0.2c1.4,0.7,2.7,0.7,4.1-0.1
			c1.5-0.9,2.3-2.7,2-4.4c-0.3-1.8-1.7-3.1-3.5-3.4C275.5,1683.5,273.8,1684.2,273,1685.6z"/>
		<path class="st5" d="M271,1690.2c-1-1-1.9-2-2.9-3c-0.3-0.3-0.9-0.4-1.2-0.1c-0.4,0.3-0.5,0.8-0.3,1.2c0.2,0.4,0.6,0.7,1.1,0.6
			c0,0,0.1,0,0.1,0c0.2,0,0.4-0.2,0.5-0.1c0.3,0.2,0.5,0.5,0.7,0.7c0.1,0.1,0,0.3-0.1,0.4c-1.1,0.7-2.5,0.5-3.3-0.5
			c-0.8-1-0.7-2.4,0.3-3.3c0.9-0.9,2.4-0.9,3.3,0.1c1.1,1.1,2.1,2.3,3.2,3.4c0.3,0.3,0.3,0.6,0.1,0.9c-1.1,2-3.3,3.2-5.6,2.9
			c-2.3-0.3-4.2-1.9-4.8-4.2c-0.5-2.3,0.1-4.3,2-5.8c1.9-1.5,3.9-1.6,6-0.6c0.1,0,0.2,0.1,0.3,0.2c0.2,0.1,0.2,0.3,0.1,0.5
			c-0.1,0.2-0.3,0.4-0.4,0.6c-0.2,0.2-0.3,0.2-0.5,0c-1-0.5-2.1-0.7-3.2-0.3c-1.9,0.6-3.2,2.5-3,4.5c0.3,2.1,1.9,3.7,4,3.7
			C268.9,1692.1,270.1,1691.5,271,1690.2z"/>
	</g>
	<g>
		<path class="st18" d="M311.3,1700.5h-20.6c-1.3,0-2.4-1.1-2.4-2.4v-20.6c0-1.3,1.1-2.4,2.4-2.4h20.6c1.3,0,2.4,1.1,2.4,2.4v20.6
			C313.6,1699.5,312.6,1700.5,311.3,1700.5z"/>
		<g>
			<path class="st5" d="M311.3,1686.8c0,0.1-0.1,0.2-0.2,0.2c-0.1,0.1-0.2,0.2-0.4,0.2c-0.2,0-0.5,0-0.8,0c0-1.3,0-2.6,0-3.8
				c0.3,0,0.5,0,0.7,0c0.3,0,0.4,0.2,0.5,0.5C311.3,1684.8,311.3,1685.8,311.3,1686.8z"/>
			<path class="st5" d="M290.7,1683.9c0.2-0.6,0.8-0.5,1.3-0.5c0,1.3,0,2.6,0,3.8c-0.3,0-0.5,0-0.8,0c-0.3,0-0.4-0.2-0.5-0.5
				C290.7,1685.8,290.7,1684.8,290.7,1683.9z"/>
			<path class="st5" d="M307.4,1695c0,0.4,0,0.8,0,1.2c0,0.3-0.1,0.6-0.2,0.8c-0.2,0.3-0.5,0.5-0.9,0.5c-0.5,0-1,0-1.5,0
				c-0.6,0-1.1-0.6-1.1-1.3c0-0.4,0-0.7,0-1.1c0-0.1,0-0.1,0-0.2c-1.7,0-3.4,0-5.2,0c0,0.1,0,0.1,0,0.2c0,0.3,0,0.7,0,1
				c0,0.8-0.6,1.4-1.4,1.4c-0.4,0-0.8,0-1.2,0c-0.8,0-1.3-0.5-1.3-1.3c0-0.4,0-0.8,0-1.2c-0.2-0.1-0.4-0.1-0.5-0.2
				c-0.5-0.2-0.7-0.6-0.7-1.1c0-0.1,0-0.1,0-0.2c0-3.8,0-7.6,0-11.4c0-0.7,0.1-1.3,0.4-1.9c0.7-1.3,1.8-2,3.3-2.1c1.4,0,2.8,0,4.2,0
				c1.2,0,2.5,0,3.7,0c0.7,0,1.3,0.1,1.9,0.5c0.7,0.4,1.2,0.9,1.6,1.6c0.3,0.6,0.5,1.2,0.5,1.9c0,3.8,0,7.6,0,11.4
				c0,0.7-0.3,1.1-0.9,1.3C307.7,1694.9,307.6,1695,307.4,1695z M294.5,1682.1c0,2.6,0,5.2,0,7.7c4.3,0,8.6,0,12.9,0
				c0-2.6,0-5.2,0-7.7C303.1,1682.1,298.8,1682.1,294.5,1682.1z M303.6,1680.8c0-0.4,0-0.9,0-1.3c-1.7,0-3.4,0-5.1,0
				c0,0.4,0,0.9,0,1.3C300.1,1680.8,301.8,1680.8,303.6,1680.8z M294.5,1692.4c0,0.7,0.6,1.3,1.3,1.3c0.7,0,1.3-0.6,1.2-1.3
				c0-0.7-0.6-1.3-1.3-1.2C295.1,1691.1,294.5,1691.7,294.5,1692.4z M306.1,1693.7c0.7,0,1.3-0.5,1.3-1.3c0-0.7-0.6-1.3-1.3-1.3
				c-0.7,0-1.3,0.6-1.3,1.3C304.8,1693.1,305.4,1693.7,306.1,1693.7z"/>
		</g>
	</g>
	<polyline id="Reja_1_" class="st19" points="60,0 60,1269.2 0,1289.1 0,1572.5 12.4,1584.9 84.3,1584.9 84.3,1588.8 162.4,1666.9 
		592.7,1666.9 592.7,83.8 647.8,83.8 	"/>
	<g>
		<path class="st2" d="M628.9,1739.9h-40.5c-2.2,0-4.1-1.8-4.1-4.1s1.8-4.1,4.1-4.1h40.5c2.2,0,4.1,1.8,4.1,4.1
			S631.1,1739.9,628.9,1739.9z M547.8,1739.9h-40.5c-2.2,0-4.1-1.8-4.1-4.1s1.8-4.1,4.1-4.1h40.5c2.2,0,4.1,1.8,4.1,4.1
			S550.1,1739.9,547.8,1739.9z M466.8,1739.9h-40.5c-2.2,0-4.1-1.8-4.1-4.1s1.8-4.1,4.1-4.1h40.5c2.2,0,4.1,1.8,4.1,4.1
			S469,1739.9,466.8,1739.9z M385.8,1739.9h-40.5c-2.2,0-4.1-1.8-4.1-4.1s1.8-4.1,4.1-4.1h40.5c2.2,0,4.1,1.8,4.1,4.1
			S388,1739.9,385.8,1739.9z M304.8,1739.9h-40.5c-2.2,0-4.1-1.8-4.1-4.1s1.8-4.1,4.1-4.1h40.5c2.2,0,4.1,1.8,4.1,4.1
			S307,1739.9,304.8,1739.9z M223.8,1739.9h-40.5c-2.2,0-4.1-1.8-4.1-4.1s1.8-4.1,4.1-4.1h40.5c2.2,0,4.1,1.8,4.1,4.1
			S226,1739.9,223.8,1739.9z M142.7,1739.9h-40.5c-2.2,0-4.1-1.8-4.1-4.1s1.8-4.1,4.1-4.1h40.5c2.2,0,4.1,1.8,4.1,4.1
			S145,1739.9,142.7,1739.9z M61.7,1739.9H21.2c-2.2,0-4.1-1.8-4.1-4.1s1.8-4.1,4.1-4.1h40.5c2.2,0,4.1,1.8,4.1,4.1
			S63.9,1739.9,61.7,1739.9z"/>
	</g>
	<g>
		<path class="st2" d="M628.9,1799.9h-40.5c-2.2,0-4.1-1.8-4.1-4.1c0-2.2,1.8-4.1,4.1-4.1h40.5c2.2,0,4.1,1.8,4.1,4.1
			C632.9,1798.1,631.1,1799.9,628.9,1799.9z M547.8,1799.9h-40.5c-2.2,0-4.1-1.8-4.1-4.1c0-2.2,1.8-4.1,4.1-4.1h40.5
			c2.2,0,4.1,1.8,4.1,4.1C551.9,1798.1,550.1,1799.9,547.8,1799.9z M466.8,1799.9h-40.5c-2.2,0-4.1-1.8-4.1-4.1
			c0-2.2,1.8-4.1,4.1-4.1h40.5c2.2,0,4.1,1.8,4.1,4.1C470.9,1798.1,469,1799.9,466.8,1799.9z M385.8,1799.9h-40.5
			c-2.2,0-4.1-1.8-4.1-4.1c0-2.2,1.8-4.1,4.1-4.1h40.5c2.2,0,4.1,1.8,4.1,4.1C389.8,1798.1,388,1799.9,385.8,1799.9z M304.8,1799.9
			h-40.5c-2.2,0-4.1-1.8-4.1-4.1c0-2.2,1.8-4.1,4.1-4.1h40.5c2.2,0,4.1,1.8,4.1,4.1C308.8,1798.1,307,1799.9,304.8,1799.9z
			 M223.8,1799.9h-40.5c-2.2,0-4.1-1.8-4.1-4.1c0-2.2,1.8-4.1,4.1-4.1h40.5c2.2,0,4.1,1.8,4.1,4.1
			C227.8,1798.1,226,1799.9,223.8,1799.9z M142.7,1799.9h-40.5c-2.2,0-4.1-1.8-4.1-4.1c0-2.2,1.8-4.1,4.1-4.1h40.5
			c2.2,0,4.1,1.8,4.1,4.1C146.8,1798.1,145,1799.9,142.7,1799.9z M61.7,1799.9H21.2c-2.2,0-4.1-1.8-4.1-4.1c0-2.2,1.8-4.1,4.1-4.1
			h40.5c2.2,0,4.1,1.8,4.1,4.1C65.8,1798.1,63.9,1799.9,61.7,1799.9z"/>
	</g>
	<path class="st2" d="M60,1920c-46.5,0-47.6-71.4,0-71.4h587.8v71.4H60z"/>
</g>
<g>
	<path d="M36.6,1580.1v1.4h-6v-7.7h5.8v1.4h-4v1.7H36v1.4h-3.6v1.8H36.6z"/>
	<path d="M43.8,1576.1c0.5,0.4,0.7,1.1,0.7,2v3.4h-1.7v-3.1c0-0.5-0.1-0.8-0.3-1.1c-0.2-0.2-0.5-0.3-0.9-0.3c-0.4,0-0.8,0.1-1,0.4
		s-0.4,0.7-0.4,1.2v2.9h-1.7v-5.9h1.6v0.7c0.2-0.3,0.5-0.4,0.8-0.6c0.3-0.1,0.7-0.2,1.1-0.2C42.8,1575.5,43.4,1575.7,43.8,1576.1z"
		/>
	<path d="M50.4,1581.2c-0.2,0.1-0.4,0.2-0.6,0.3c-0.2,0.1-0.5,0.1-0.8,0.1c-0.7,0-1.2-0.2-1.6-0.5c-0.4-0.4-0.6-0.9-0.6-1.6v-2.4
		h-0.9v-1.3h0.9v-1.4h1.7v1.4H50v1.3h-1.5v2.4c0,0.2,0.1,0.4,0.2,0.6c0.1,0.1,0.3,0.2,0.5,0.2c0.3,0,0.5-0.1,0.7-0.2L50.4,1581.2z"
		/>
	<path d="M54.4,1575.7c0.3-0.1,0.7-0.2,1.2-0.2v1.6c-0.2,0-0.3,0-0.4,0c-0.5,0-0.9,0.1-1.2,0.4c-0.3,0.3-0.4,0.7-0.4,1.2v2.8h-1.7
		v-5.9h1.6v0.8C53.8,1576.1,54,1575.9,54.4,1575.7z"/>
	<path d="M61.6,1576.1c0.5,0.4,0.7,1.1,0.7,2v3.4h-1.6v-0.7c-0.3,0.6-0.9,0.8-1.8,0.8c-0.5,0-0.8-0.1-1.2-0.2
		c-0.3-0.2-0.6-0.4-0.8-0.6c-0.2-0.3-0.3-0.6-0.3-0.9c0-0.5,0.2-1,0.6-1.3s1.1-0.5,1.9-0.5h1.4c0-0.4-0.1-0.7-0.3-0.9
		c-0.2-0.2-0.6-0.3-1-0.3c-0.3,0-0.6,0-0.9,0.1c-0.3,0.1-0.6,0.2-0.8,0.4l-0.6-1.2c0.3-0.2,0.7-0.4,1.2-0.5c0.5-0.1,0.9-0.2,1.4-0.2
		C60.4,1575.5,61.1,1575.7,61.6,1576.1z M60.2,1580.2c0.2-0.1,0.4-0.3,0.5-0.6v-0.6h-1.2c-0.7,0-1.1,0.2-1.1,0.7
		c0,0.2,0.1,0.4,0.3,0.5c0.2,0.1,0.4,0.2,0.7,0.2C59.7,1580.4,59.9,1580.4,60.2,1580.2z"/>
	<path d="M70.6,1573.3v8.2h-1.6v-0.7c-0.4,0.5-1,0.8-1.8,0.8c-0.6,0-1.1-0.1-1.5-0.4c-0.5-0.2-0.8-0.6-1.1-1.1
		c-0.3-0.5-0.4-1-0.4-1.6s0.1-1.1,0.4-1.6c0.3-0.5,0.6-0.8,1.1-1.1s1-0.4,1.5-0.4c0.8,0,1.3,0.2,1.8,0.7v-2.9H70.6z M68.5,1579.7
		c0.3-0.3,0.4-0.7,0.4-1.2s-0.1-0.9-0.4-1.2s-0.6-0.4-1.1-0.4c-0.4,0-0.8,0.1-1.1,0.4s-0.4,0.7-0.4,1.2s0.1,0.9,0.4,1.2
		s0.6,0.4,1.1,0.4C67.8,1580.2,68.2,1580,68.5,1579.7z"/>
	<path d="M77.2,1576.1c0.5,0.4,0.7,1.1,0.7,2v3.4h-1.6v-0.7c-0.3,0.6-0.9,0.8-1.8,0.8c-0.5,0-0.8-0.1-1.2-0.2
		c-0.3-0.2-0.6-0.4-0.8-0.6c-0.2-0.3-0.3-0.6-0.3-0.9c0-0.5,0.2-1,0.6-1.3s1.1-0.5,1.9-0.5h1.4c0-0.4-0.1-0.7-0.3-0.9
		c-0.2-0.2-0.6-0.3-1-0.3c-0.3,0-0.6,0-0.9,0.1c-0.3,0.1-0.6,0.2-0.8,0.4l-0.6-1.2c0.3-0.2,0.7-0.4,1.2-0.5c0.5-0.1,0.9-0.2,1.4-0.2
		C76,1575.5,76.7,1575.7,77.2,1576.1z M75.7,1580.2c0.2-0.1,0.4-0.3,0.5-0.6v-0.6H75c-0.7,0-1.1,0.2-1.1,0.7c0,0.2,0.1,0.4,0.3,0.5
		c0.2,0.1,0.4,0.2,0.7,0.2C75.3,1580.4,75.5,1580.4,75.7,1580.2z"/>
</g>
</svg>
